;Layer: Drill PTH
;EasyEDA v6.3.43, 2020-05-10T20:22:00+02:00
;8efef6a7772f454f874d1fefd099d7f4,c718b20e53f548e3abf3144c64a63f4f,10
;Gerber Generator version 0.2
M48
METRIC,LZ,000.000
;Holesize 1 = 0.305 METRIC
T01C0.305
;Holesize 2 = 0.306 METRIC
T02C0.306
;Holesize 3 = 0.310 METRIC
T03C0.310
;Holesize 4 = 0.701 METRIC
T04C0.701
;Holesize 5 = 0.915 METRIC
T05C0.915
;Holesize 6 = 1.016 METRIC
T06C1.016
;Holesize 7 = 1.200 METRIC
T07C1.200
%
G05
G90
T01
X+038239Y+018629
X+038239Y+017825
X+040652Y+008681
X+035699Y+014015
X+035699Y+013507
X+035699Y+012999
X+060500Y+039200
X+043699Y+035400
X+043600Y+039100
X+043600Y+042900
X+042940Y+009122
X+042841Y+011722
X+062340Y+017122
X+011899Y+033699
X+011894Y+029848
X+011800Y+020999
X+011899Y+037699
X+025500Y+011100
X+022833Y+005639
X+025500Y+010592
X+025500Y+010084
X+022833Y+006290
X+020293Y+015164
X+011800Y+025099
X+028500Y+041200
X+024599Y+041200
X+020500Y+041100
X+011800Y+016999
X+056107Y+037532
X+057123Y+036800
X+045099Y+037699
X+054900Y+035400
X+041792Y+015716
X+042373Y+015717
X+039399Y+021171
X+041099Y+021209
X+058900Y+024700
X+062700Y+027899
X+062400Y+011499
X+070799Y+002899
X+061799Y+001799
X+039399Y+020700
X+041099Y+020700
X+014699Y+024100
X+014699Y+020100
X+014600Y+015996
X+014800Y+028100
X+014800Y+032100
X+014800Y+036100
X+040699Y+034599
X+062700Y+038299
X+015100Y+017899
X+018699Y+004100
X+007999Y+023100
X+007100Y+026899
X+008500Y+032699
X+018599Y+040999
X+022500Y+041000
X+026500Y+041000
X+037100Y+036200
X+026999Y+028100
X+022999Y+029899
X+026700Y+037600
X+022699Y+037600
X+018699Y+037699
X+011999Y+019199
X+011999Y+015199
X+018200Y+024999
X+018200Y+031501
X+034999Y+036200
X+036399Y+044299
X+037100Y+045112
X+026800Y+048200
X+033800Y+048100
X+033800Y+054299
X+037900Y+031899
X+038900Y+025599
X+077100Y+002899
X+061799Y+001199
X+061799Y+000599
X+034399Y+054299
X+033200Y+054299
X+033200Y+048100
X+034399Y+048100
X+018699Y+003499
X+018699Y+002899
X+037900Y+025199
X+035100Y+023999
X+055500Y+021599
X+057900Y+019959
T02
X+051032Y+002958
X+053572Y+002958
T03
X+011899Y+027999
X+011800Y+035999
X+011899Y+031800
X+037100Y+027199
X+011999Y+023199
X+039543Y+034604
T04
X+056701Y+002159G85X+056701Y+003160
X+049503Y+002159G85X+049503Y+003160
X+056701Y+005629G85X+056701Y+006630
X+049503Y+005629G85X+049503Y+006630
T05
X+013899Y+008499
X+011359Y+008499
X+008819Y+008499
X+006279Y+008499
X+003739Y+008499
X+013899Y+005959
X+011359Y+005959
X+008819Y+005959
X+006279Y+005959
X+003739Y+005959
X+003999Y+049500
X+006539Y+049500
X+009079Y+049500
X+011619Y+049500
X+014159Y+049500
X+003999Y+052040
X+006539Y+052040
X+009079Y+052040
X+011619Y+052040
X+014159Y+052040
X+045880Y+055640
X+043340Y+055640
X+040800Y+055640
X+045880Y+053100
X+043340Y+053100
X+040800Y+053100
X+050773Y+034130
X+053567Y+034130
X+056107Y+034130
X+058647Y+034130
T06
X+052170Y+053053
X+057250Y+053053
X+062330Y+053053
X+054710Y+053053
X+059790Y+053053
X+064870Y+053053
T07
X+074338Y+033192
X+067838Y+033192
X+067838Y+037692
X+074338Y+037692
X+074338Y+022609
X+067838Y+022609
X+067838Y+027108
X+074338Y+027108
X+074338Y+012025
X+067838Y+012025
X+067838Y+016525
X+074338Y+016525
X+074338Y+043775
X+067838Y+043775
X+067838Y+048275
X+074338Y+048275
M30
