G04 Layer: TopSilkLayer*
G04 EasyEDA v6.3.43, 2020-05-10T20:22:00+02:00*
G04 8efef6a7772f454f874d1fefd099d7f4,c718b20e53f548e3abf3144c64a63f4f,10*
G04 Gerber Generator version 0.2*
G04 Scale: 100 percent, Rotated: No, Reflected: No *
G04 Dimensions in millimeters *
G04 leading zeros omitted , absolute positions ,3 integer and 3 decimal *
%FSLAX33Y33*%
%MOMM*%
G90*
G71D02*

%ADD10C,0.254000*%
%ADD14C,0.399999*%
%ADD44C,0.203200*%
%ADD45C,0.228600*%
%ADD46C,0.200660*%
%ADD47C,0.249999*%
%ADD48C,0.127000*%
%ADD49C,0.228600*%
%ADD50C,0.299999*%
%ADD51C,0.152400*%
%ADD52C,0.080000*%

%LPD*%
G54D44*
G01X37600Y26499D02*
G01X33400Y26499D01*
G01X33400Y23099D01*
G01X37600Y23099D01*
G01X37600Y26499D01*
G54D10*
G01X21312Y47262D02*
G01X21312Y48659D01*
G01X32107Y46754D02*
G01X21820Y46754D01*
G01X32615Y48532D02*
G01X32615Y47262D01*
G01X33123Y53739D02*
G01X34774Y53739D01*
G01X21947Y51961D02*
G01X31218Y51961D01*
G01X31345Y51961D01*
G01X21439Y52850D02*
G01X21439Y52469D01*
G01X19026Y53739D02*
G01X19788Y53739D01*
G01X20550Y53739D01*
G01X31980Y49167D02*
G01X30731Y49167D01*
G01X19026Y58057D02*
G01X34774Y58057D01*
G01X34774Y44341D01*
G01X19026Y44341D01*
G01X19026Y58057D01*
G54D45*
G01X70850Y3899D02*
G01X74250Y3899D01*
G01X74250Y2099D01*
G01X70850Y2099D01*
G01X70850Y3899D01*
G54D10*
G01X16947Y244D02*
G01X691Y244D01*
G01X691Y10658D01*
G01X16947Y10658D01*
G01X16947Y244D01*
G01X951Y57755D02*
G01X17207Y57755D01*
G01X17207Y47341D01*
G01X951Y47341D01*
G01X951Y57755D01*
G54D45*
G01X62491Y11122D02*
G01X59091Y11122D01*
G01X59091Y12922D01*
G01X62491Y12922D01*
G01X62491Y11122D01*
G54D46*
G01X39530Y51830D02*
G01X47150Y51830D01*
G01X39530Y51830D02*
G01X39530Y56910D01*
G01X39530Y56910D02*
G01X47150Y56910D01*
G01X47150Y51830D02*
G01X47150Y56910D01*
G54D45*
G01X39753Y13166D02*
G01X39753Y16566D01*
G01X41553Y16566D01*
G01X41553Y13166D01*
G01X39753Y13166D01*
G54D10*
G01X57103Y7168D02*
G01X57103Y508D01*
G01X57103Y508D02*
G01X49102Y508D01*
G01X49091Y7168D02*
G01X49091Y508D01*
G01X57103Y7168D02*
G01X55853Y7168D01*
G01X50341Y7168D02*
G01X49091Y7168D01*
G01X50351Y7168D02*
G01X50351Y5520D01*
G01X55853Y7168D02*
G01X55853Y5520D01*
G01X54761Y5520D02*
G01X55853Y5520D01*
G01X50351Y5520D02*
G01X51441Y5520D01*
G54D45*
G01X36296Y6385D02*
G01X32896Y6385D01*
G01X32896Y8184D01*
G01X36296Y8184D01*
G01X36296Y6385D01*
G54D47*
G01X78597Y8716D02*
G01X78597Y4716D01*
G01X75597Y4716D01*
G01X75597Y8716D01*
G01X78597Y8716D01*
G01X78100Y8199D02*
G01X78100Y5199D01*
G01X76100Y5199D01*
G01X76100Y8199D01*
G01X78100Y8199D01*
G54D48*
G01X45241Y15393D02*
G01X45241Y16663D01*
G01X45241Y15647D02*
G01X45622Y15647D01*
G01X45622Y15647D02*
G01X45241Y16409D01*
G01X45241Y16409D02*
G01X45622Y16409D01*
G01X45241Y15647D02*
G01X44860Y15647D01*
G01X44860Y15647D02*
G01X45241Y16409D01*
G01X45241Y16409D02*
G01X44860Y16409D01*
G54D10*
G01X43991Y18027D02*
G01X46490Y18027D01*
G01X46490Y18027D02*
G01X46490Y14029D01*
G01X46490Y14029D02*
G01X43991Y14029D01*
G01X43991Y14029D02*
G01X43991Y18027D01*
G01X43996Y16884D02*
G01X46485Y16884D01*
G54D45*
G01X62491Y16222D02*
G01X59091Y16222D01*
G01X59091Y18022D01*
G01X62491Y18022D01*
G01X62491Y16222D01*
G54D10*
G01X51826Y11808D02*
G01X55080Y11808D01*
G01X55080Y21760D01*
G01X51397Y21760D01*
G01X51397Y11808D01*
G01X51826Y11808D01*
G54D45*
G01X61800Y24550D02*
G01X61800Y27950D01*
G01X63600Y27950D01*
G01X63600Y24550D01*
G01X61800Y24550D01*
G01X38650Y36200D02*
G01X42050Y36200D01*
G01X42050Y34400D01*
G01X38650Y34400D01*
G01X38650Y36200D01*
G01X62491Y13722D02*
G01X59091Y13722D01*
G01X59091Y15522D01*
G01X62491Y15522D01*
G01X62491Y13722D01*
G01X70238Y4410D02*
G01X66656Y4410D01*
G01X66656Y6188D01*
G01X70238Y6188D01*
G01X70238Y4410D01*
G54D49*
G01X66860Y4410D02*
G01X66860Y6188D01*
G54D45*
G01X70238Y6610D02*
G01X66656Y6610D01*
G01X66656Y8388D01*
G01X70238Y8388D01*
G01X70238Y6610D01*
G54D49*
G01X66860Y6610D02*
G01X66860Y8388D01*
G54D45*
G01X70850Y6199D02*
G01X74250Y6199D01*
G01X74250Y4399D01*
G01X70850Y4399D01*
G01X70850Y6199D01*
G01X70850Y8399D02*
G01X74250Y8399D01*
G01X74250Y6599D01*
G01X70850Y6599D01*
G01X70850Y8399D01*
G01X32945Y10470D02*
G01X36345Y10470D01*
G01X36345Y8671D01*
G01X32945Y8671D01*
G01X32945Y10470D01*
G01X42691Y12622D02*
G01X46091Y12622D01*
G01X46091Y10822D01*
G01X42691Y10822D01*
G01X42691Y12622D01*
G01X46091Y8222D02*
G01X42691Y8222D01*
G01X42691Y10022D01*
G01X46091Y10022D01*
G01X46091Y8222D01*
G54D10*
G01X57885Y51783D02*
G01X56615Y51783D01*
G01X55980Y52418D01*
G01X55345Y51783D01*
G01X54075Y51783D01*
G01X53440Y52418D01*
G01X52805Y51783D01*
G01X51535Y51783D01*
G01X50900Y52418D01*
G01X50900Y53688D01*
G01X51535Y54323D01*
G01X52805Y54323D01*
G01X53440Y53688D01*
G01X54075Y54323D01*
G01X55345Y54323D01*
G01X55980Y53688D01*
G01X56615Y54323D01*
G01X57885Y54323D01*
G01X58520Y53688D01*
G01X59155Y54323D01*
G01X60425Y54323D01*
G01X61060Y53688D01*
G01X61695Y54323D01*
G01X62965Y54323D01*
G01X63600Y53688D01*
G01X64235Y54323D01*
G01X65505Y54323D01*
G01X66140Y53688D01*
G01X66140Y52418D01*
G01X65505Y51783D01*
G01X64235Y51783D01*
G01X63600Y52418D01*
G01X62965Y51783D01*
G01X61695Y51783D01*
G01X61060Y52418D01*
G01X60425Y51783D01*
G01X59155Y51783D01*
G01X58520Y52418D01*
G01X57885Y51783D01*
G01X47979Y35908D02*
G01X60933Y35908D01*
G01X60933Y31336D01*
G01X47979Y31336D01*
G01X47979Y35908D01*
G01X47979Y36162D02*
G01X60933Y36162D01*
G01X60933Y2126D01*
G01X47979Y2126D01*
G01X47979Y36162D01*
G01X73363Y32441D02*
G01X68813Y32441D01*
G01X68191Y34371D02*
G01X68191Y36512D01*
G01X68885Y38339D02*
G01X73291Y38339D01*
G01X73990Y36511D02*
G01X73990Y34373D01*
G01X73363Y21857D02*
G01X68813Y21857D01*
G01X68191Y23788D02*
G01X68191Y25929D01*
G01X68885Y27756D02*
G01X73291Y27756D01*
G01X73990Y25928D02*
G01X73990Y23789D01*
G01X73363Y11274D02*
G01X68813Y11274D01*
G01X68191Y13205D02*
G01X68191Y15346D01*
G01X68885Y17173D02*
G01X73291Y17173D01*
G01X73990Y15344D02*
G01X73990Y13206D01*
G01X73363Y43024D02*
G01X68813Y43024D01*
G01X68191Y44955D02*
G01X68191Y47096D01*
G01X68885Y48923D02*
G01X73291Y48923D01*
G01X73990Y47094D02*
G01X73990Y44956D01*
G54D45*
G01X28128Y13247D02*
G01X24728Y13247D01*
G01X24728Y15047D01*
G01X28128Y15047D01*
G01X28128Y13247D01*
G01X24777Y17460D02*
G01X28177Y17460D01*
G01X28177Y15660D01*
G01X24777Y15660D01*
G01X24777Y17460D01*
G01X21193Y10806D02*
G01X21193Y7406D01*
G01X19393Y7406D01*
G01X19393Y10806D01*
G01X21193Y10806D01*
G54D10*
G01X19343Y15008D02*
G01X19343Y15008D01*
G01X19693Y15358D01*
G01X21243Y15008D02*
G01X21243Y15008D01*
G01X20893Y15358D01*
G01X21243Y12758D02*
G01X21243Y11408D01*
G01X19343Y12758D02*
G01X19343Y11408D01*
G01X21243Y13758D02*
G01X21243Y15008D01*
G01X19343Y13758D02*
G01X19343Y15008D01*
G01X21243Y11408D02*
G01X19343Y11408D01*
G01X20893Y15358D02*
G01X19693Y15358D01*
G01X20793Y12958D02*
G01X19793Y12958D01*
G01X20288Y12958D02*
G01X20288Y13458D01*
G01X41728Y8582D02*
G01X41728Y8582D01*
G01X41379Y8232D01*
G01X39828Y8582D02*
G01X39829Y8582D01*
G01X40178Y8232D01*
G01X39828Y10832D02*
G01X39828Y12182D01*
G01X41728Y10832D02*
G01X41728Y12182D01*
G01X39828Y9832D02*
G01X39828Y8582D01*
G01X41728Y9832D02*
G01X41728Y8582D01*
G01X39828Y12182D02*
G01X41728Y12182D01*
G01X40178Y8232D02*
G01X41379Y8232D01*
G01X40278Y10632D02*
G01X41278Y10632D01*
G01X40784Y10632D02*
G01X40784Y10132D01*
G54D46*
G01X25649Y4950D02*
G01X25649Y11651D01*
G01X28898Y11651D01*
G01X28898Y4950D01*
G01X25649Y4950D01*
G54D10*
G01X58250Y38300D02*
G01X58250Y36700D01*
G01X60101Y36705D02*
G01X61351Y36705D01*
G01X60101Y38305D02*
G01X61351Y38305D01*
G01X59500Y36700D02*
G01X58250Y36700D01*
G01X59500Y38300D02*
G01X58250Y38300D01*
G01X61351Y38305D02*
G01X61351Y36705D01*
G01X55549Y36700D02*
G01X55549Y38300D01*
G01X53698Y38295D02*
G01X52448Y38295D01*
G01X53698Y36695D02*
G01X52448Y36695D01*
G01X54299Y38300D02*
G01X55549Y38300D01*
G01X54299Y36700D02*
G01X55549Y36700D01*
G01X52448Y36695D02*
G01X52448Y38295D01*
G01X76707Y18216D02*
G01X76707Y19817D01*
G01X74857Y19811D02*
G01X73607Y19811D01*
G01X74857Y18211D02*
G01X73607Y18211D01*
G01X75457Y19817D02*
G01X76707Y19817D01*
G01X75457Y18216D02*
G01X76707Y18216D01*
G01X73607Y18211D02*
G01X73607Y19811D01*
G01X76580Y28757D02*
G01X76580Y30358D01*
G01X74730Y30352D02*
G01X73480Y30352D01*
G01X74730Y28752D02*
G01X73480Y28752D01*
G01X75330Y30358D02*
G01X76580Y30358D01*
G01X75330Y28757D02*
G01X76580Y28757D01*
G01X73480Y28752D02*
G01X73480Y30352D01*
G01X76707Y39425D02*
G01X76707Y41026D01*
G01X74857Y41020D02*
G01X73607Y41020D01*
G01X74857Y39420D02*
G01X73607Y39420D01*
G01X75457Y41026D02*
G01X76707Y41026D01*
G01X75457Y39425D02*
G01X76707Y39425D01*
G01X73607Y39420D02*
G01X73607Y41020D01*
G01X76580Y49839D02*
G01X76580Y51440D01*
G01X74730Y51434D02*
G01X73480Y51434D01*
G01X74730Y49834D02*
G01X73480Y49834D01*
G01X75330Y51440D02*
G01X76580Y51440D01*
G01X75330Y49839D02*
G01X76580Y49839D01*
G01X73480Y49834D02*
G01X73480Y51434D01*
G01X32122Y12243D02*
G01X35722Y12243D01*
G01X32122Y19343D02*
G01X35722Y19343D01*
G01X32122Y19343D02*
G01X32122Y17659D01*
G01X32122Y13928D02*
G01X32122Y12243D01*
G01X35722Y19343D02*
G01X35722Y18759D01*
G01X35722Y17428D02*
G01X35722Y16459D01*
G01X35722Y15128D02*
G01X35722Y14159D01*
G01X35722Y12828D02*
G01X35722Y12243D01*
G01X14399Y18099D02*
G01X14399Y17081D01*
G01X12599Y14968D02*
G01X12599Y14899D01*
G01X12599Y16868D02*
G01X12599Y16131D01*
G01X12599Y18099D02*
G01X12599Y18031D01*
G01X14399Y14899D02*
G01X12599Y14899D01*
G01X14399Y18099D02*
G01X12599Y18099D01*
G01X14399Y15918D02*
G01X14399Y14899D01*
G01X20699Y38501D02*
G01X19680Y38501D01*
G01X17568Y40301D02*
G01X17499Y40301D01*
G01X19468Y40301D02*
G01X18730Y40301D01*
G01X20699Y40301D02*
G01X20630Y40301D01*
G01X17499Y38501D02*
G01X17499Y40301D01*
G01X20699Y38501D02*
G01X20699Y40301D01*
G01X18518Y38501D02*
G01X17499Y38501D01*
G01X14399Y22099D02*
G01X14399Y21081D01*
G01X12599Y18968D02*
G01X12599Y18899D01*
G01X12599Y20868D02*
G01X12599Y20131D01*
G01X12599Y22099D02*
G01X12599Y22030D01*
G01X14399Y18899D02*
G01X12599Y18899D01*
G01X14399Y22099D02*
G01X12599Y22099D01*
G01X14399Y19918D02*
G01X14399Y18899D01*
G01X28700Y38499D02*
G01X27681Y38499D01*
G01X25569Y40299D02*
G01X25500Y40299D01*
G01X27469Y40299D02*
G01X26731Y40299D01*
G01X28700Y40299D02*
G01X28631Y40299D01*
G01X25500Y38499D02*
G01X25500Y40299D01*
G01X28700Y38499D02*
G01X28700Y40299D01*
G01X26519Y38499D02*
G01X25500Y38499D01*
G01X24700Y38500D02*
G01X23681Y38500D01*
G01X21569Y40300D02*
G01X21500Y40300D01*
G01X23469Y40300D02*
G01X22731Y40300D01*
G01X24700Y40300D02*
G01X24631Y40300D01*
G01X21500Y38500D02*
G01X21500Y40300D01*
G01X24700Y38500D02*
G01X24700Y40300D01*
G01X22519Y38500D02*
G01X21500Y38500D01*
G01X14492Y34048D02*
G01X14492Y33029D01*
G01X12692Y30917D02*
G01X12692Y30848D01*
G01X12692Y32817D02*
G01X12692Y32079D01*
G01X12692Y34048D02*
G01X12692Y33979D01*
G01X14492Y30848D02*
G01X12692Y30848D01*
G01X14492Y34048D02*
G01X12692Y34048D01*
G01X14492Y31867D02*
G01X14492Y30848D01*
G01X14594Y30048D02*
G01X14594Y29029D01*
G01X12793Y26917D02*
G01X12793Y26848D01*
G01X12793Y28817D02*
G01X12793Y28079D01*
G01X12793Y30048D02*
G01X12793Y29979D01*
G01X14594Y26848D02*
G01X12793Y26848D01*
G01X14594Y30048D02*
G01X12793Y30048D01*
G01X14594Y27867D02*
G01X14594Y26848D01*
G01X14496Y38048D02*
G01X14496Y37030D01*
G01X12696Y34917D02*
G01X12696Y34848D01*
G01X12696Y36817D02*
G01X12696Y36080D01*
G01X12696Y38048D02*
G01X12696Y37980D01*
G01X14496Y34848D02*
G01X12696Y34848D01*
G01X14496Y38048D02*
G01X12696Y38048D01*
G01X14496Y35867D02*
G01X14496Y34848D01*
G01X14399Y26099D02*
G01X14399Y25081D01*
G01X12599Y22968D02*
G01X12599Y22899D01*
G01X12599Y24868D02*
G01X12599Y24131D01*
G01X12599Y26099D02*
G01X12599Y26031D01*
G01X14399Y22899D02*
G01X12599Y22899D01*
G01X14399Y26099D02*
G01X12599Y26099D01*
G01X14399Y23918D02*
G01X14399Y22899D01*
G54D44*
G01X2150Y16199D02*
G01X4088Y16199D01*
G01X2150Y16199D02*
G01X2150Y17400D01*
G01X3072Y16199D02*
G01X3072Y16938D01*
G01X4088Y16199D02*
G01X4088Y17400D01*
G01X2795Y18010D02*
G01X4088Y18564D01*
G01X2795Y19117D02*
G01X4088Y18564D01*
G01X2150Y19727D02*
G01X2242Y19821D01*
G01X2150Y19912D01*
G01X2056Y19821D01*
G01X2150Y19727D01*
G01X2795Y19821D02*
G01X4088Y19821D01*
G01X2150Y20522D02*
G01X4088Y20522D01*
G01X2610Y23941D02*
G01X2427Y23847D01*
G01X2242Y23661D01*
G01X2150Y23478D01*
G01X2150Y23108D01*
G01X2242Y22925D01*
G01X2427Y22739D01*
G01X2610Y22645D01*
G01X2887Y22554D01*
G01X3349Y22554D01*
G01X3626Y22645D01*
G01X3811Y22739D01*
G01X3997Y22925D01*
G01X4088Y23108D01*
G01X4088Y23478D01*
G01X3997Y23661D01*
G01X3811Y23847D01*
G01X3626Y23941D01*
G01X2795Y24550D02*
G01X4088Y24550D01*
G01X3349Y24550D02*
G01X3072Y24642D01*
G01X2887Y24827D01*
G01X2795Y25010D01*
G01X2795Y25287D01*
G01X2795Y26359D02*
G01X2887Y26176D01*
G01X3072Y25991D01*
G01X3349Y25897D01*
G01X3534Y25897D01*
G01X3811Y25991D01*
G01X3997Y26176D01*
G01X4088Y26359D01*
G01X4088Y26636D01*
G01X3997Y26821D01*
G01X3811Y27007D01*
G01X3534Y27098D01*
G01X3349Y27098D01*
G01X3072Y27007D01*
G01X2887Y26821D01*
G01X2795Y26636D01*
G01X2795Y26359D01*
G01X2795Y27708D02*
G01X4088Y28078D01*
G01X2795Y28447D02*
G01X4088Y28078D01*
G01X2795Y28447D02*
G01X4088Y28818D01*
G01X2795Y29186D02*
G01X4088Y28818D01*
G01X2150Y31218D02*
G01X4088Y31218D01*
G01X2150Y31218D02*
G01X2150Y32048D01*
G01X2242Y32325D01*
G01X2333Y32419D01*
G01X2518Y32511D01*
G01X2704Y32511D01*
G01X2887Y32419D01*
G01X2981Y32325D01*
G01X3072Y32048D01*
G01X3072Y31218D01*
G01X3072Y31866D02*
G01X4088Y32511D01*
G01X2150Y33120D02*
G01X4088Y33120D01*
G01X2150Y33120D02*
G01X2150Y34322D01*
G01X3072Y33120D02*
G01X3072Y33859D01*
G01X2150Y36354D02*
G01X4088Y36354D01*
G01X2150Y36354D02*
G01X2150Y37184D01*
G01X2242Y37461D01*
G01X2333Y37555D01*
G01X2518Y37647D01*
G01X2704Y37647D01*
G01X2887Y37555D01*
G01X2981Y37461D01*
G01X3072Y37184D01*
G01X3072Y36354D02*
G01X3072Y37184D01*
G01X3166Y37461D01*
G01X3258Y37555D01*
G01X3443Y37647D01*
G01X3720Y37647D01*
G01X3903Y37555D01*
G01X3997Y37461D01*
G01X4088Y37184D01*
G01X4088Y36354D01*
G01X3349Y38256D02*
G01X3349Y39364D01*
G01X3166Y39364D01*
G01X2981Y39272D01*
G01X2887Y39181D01*
G01X2795Y38995D01*
G01X2795Y38718D01*
G01X2887Y38533D01*
G01X3072Y38348D01*
G01X3349Y38256D01*
G01X3534Y38256D01*
G01X3811Y38348D01*
G01X3997Y38533D01*
G01X4088Y38718D01*
G01X4088Y38995D01*
G01X3997Y39181D01*
G01X3811Y39364D01*
G01X2150Y40250D02*
G01X3720Y40250D01*
G01X3997Y40344D01*
G01X4088Y40527D01*
G01X4088Y40712D01*
G01X2795Y39973D02*
G01X2795Y40621D01*
G01X2795Y42432D02*
G01X4088Y42432D01*
G01X3072Y42432D02*
G01X2887Y42247D01*
G01X2795Y42061D01*
G01X2795Y41784D01*
G01X2887Y41599D01*
G01X3072Y41416D01*
G01X3349Y41322D01*
G01X3534Y41322D01*
G01X3811Y41416D01*
G01X3997Y41599D01*
G01X4088Y41784D01*
G01X4088Y42061D01*
G01X3997Y42247D01*
G01X3811Y42432D01*
G01X4749Y22624D02*
G01X6227Y22624D01*
G01X6504Y22530D01*
G01X6596Y22439D01*
G01X6690Y22253D01*
G01X6690Y22068D01*
G01X6596Y21885D01*
G01X6504Y21791D01*
G01X6227Y21700D01*
G01X6042Y21700D01*
G01X5394Y23693D02*
G01X5488Y23511D01*
G01X5674Y23325D01*
G01X5951Y23234D01*
G01X6133Y23234D01*
G01X6410Y23325D01*
G01X6596Y23511D01*
G01X6690Y23693D01*
G01X6690Y23973D01*
G01X6596Y24156D01*
G01X6410Y24341D01*
G01X6133Y24433D01*
G01X5951Y24433D01*
G01X5674Y24341D01*
G01X5488Y24156D01*
G01X5394Y23973D01*
G01X5394Y23693D01*
G01X5951Y25042D02*
G01X5951Y26152D01*
G01X5765Y26152D01*
G01X5580Y26058D01*
G01X5488Y25967D01*
G01X5394Y25781D01*
G01X5394Y25504D01*
G01X5488Y25319D01*
G01X5674Y25136D01*
G01X5951Y25042D01*
G01X6133Y25042D01*
G01X6410Y25136D01*
G01X6596Y25319D01*
G01X6690Y25504D01*
G01X6690Y25781D01*
G01X6596Y25967D01*
G01X6410Y26152D01*
G01X4749Y26762D02*
G01X6690Y26762D01*
G01X5026Y30087D02*
G01X4841Y29901D01*
G01X4749Y29624D01*
G01X4749Y29256D01*
G01X4841Y28977D01*
G01X5026Y28794D01*
G01X5211Y28794D01*
G01X5394Y28885D01*
G01X5488Y28977D01*
G01X5580Y29162D01*
G01X5765Y29716D01*
G01X5857Y29901D01*
G01X5951Y29993D01*
G01X6133Y30087D01*
G01X6410Y30087D01*
G01X6596Y29901D01*
G01X6690Y29624D01*
G01X6690Y29256D01*
G01X6596Y28977D01*
G01X6410Y28794D01*
G01X5951Y30696D02*
G01X5951Y31804D01*
G01X5765Y31804D01*
G01X5580Y31712D01*
G01X5488Y31618D01*
G01X5394Y31435D01*
G01X5394Y31158D01*
G01X5488Y30973D01*
G01X5674Y30788D01*
G01X5951Y30696D01*
G01X6133Y30696D01*
G01X6410Y30788D01*
G01X6596Y30973D01*
G01X6690Y31158D01*
G01X6690Y31435D01*
G01X6596Y31618D01*
G01X6410Y31804D01*
G01X5394Y32413D02*
G01X6690Y32413D01*
G01X5951Y32413D02*
G01X5674Y32507D01*
G01X5488Y32690D01*
G01X5394Y32876D01*
G01X5394Y33152D01*
G01X5394Y33762D02*
G01X6690Y33762D01*
G01X5765Y33762D02*
G01X5488Y34039D01*
G01X5394Y34224D01*
G01X5394Y34501D01*
G01X5488Y34687D01*
G01X5765Y34778D01*
G01X6690Y34778D01*
G01X5394Y36495D02*
G01X6690Y36495D01*
G01X5674Y36495D02*
G01X5488Y36312D01*
G01X5394Y36127D01*
G01X5394Y35850D01*
G01X5488Y35664D01*
G01X5674Y35479D01*
G01X5951Y35388D01*
G01X6133Y35388D01*
G01X6410Y35479D01*
G01X6596Y35664D01*
G01X6690Y35850D01*
G01X6690Y36127D01*
G01X6596Y36312D01*
G01X6410Y36495D01*
G01X7549Y14700D02*
G01X9489Y14700D01*
G01X7549Y14700D02*
G01X7549Y15899D01*
G01X8473Y14700D02*
G01X8473Y15439D01*
G01X8197Y16971D02*
G01X8288Y16788D01*
G01X8473Y16603D01*
G01X8750Y16509D01*
G01X8936Y16509D01*
G01X9213Y16603D01*
G01X9395Y16788D01*
G01X9489Y16971D01*
G01X9489Y17248D01*
G01X9395Y17433D01*
G01X9213Y17619D01*
G01X8936Y17710D01*
G01X8750Y17710D01*
G01X8473Y17619D01*
G01X8288Y17433D01*
G01X8197Y17248D01*
G01X8197Y16971D01*
G01X8197Y18320D02*
G01X9489Y18320D01*
G01X8750Y18320D02*
G01X8473Y18414D01*
G01X8288Y18596D01*
G01X8197Y18782D01*
G01X8197Y19059D01*
G01X8750Y19668D02*
G01X8750Y20776D01*
G01X8565Y20776D01*
G01X8379Y20684D01*
G01X8288Y20593D01*
G01X8197Y20407D01*
G01X8197Y20131D01*
G01X8288Y19945D01*
G01X8473Y19760D01*
G01X8750Y19668D01*
G01X8936Y19668D01*
G01X9213Y19760D01*
G01X9395Y19945D01*
G01X9489Y20131D01*
G01X9489Y20407D01*
G01X9395Y20593D01*
G01X9213Y20776D01*
G01X8197Y21385D02*
G01X9489Y21385D01*
G01X8565Y21385D02*
G01X8288Y21665D01*
G01X8197Y21848D01*
G01X8197Y22125D01*
G01X8288Y22310D01*
G01X8565Y22401D01*
G01X9489Y22401D01*
G01X8473Y24027D02*
G01X8288Y23936D01*
G01X8197Y23659D01*
G01X8197Y23382D01*
G01X8288Y23105D01*
G01X8473Y23011D01*
G01X8656Y23105D01*
G01X8750Y23290D01*
G01X8842Y23750D01*
G01X8936Y23936D01*
G01X9119Y24027D01*
G01X9213Y24027D01*
G01X9395Y23936D01*
G01X9489Y23659D01*
G01X9489Y23382D01*
G01X9395Y23105D01*
G01X9213Y23011D01*
G01X7549Y24637D02*
G01X7640Y24731D01*
G01X7549Y24822D01*
G01X7457Y24731D01*
G01X7549Y24637D01*
G01X8197Y24731D02*
G01X9489Y24731D01*
G01X8473Y26542D02*
G01X8288Y26356D01*
G01X8197Y26171D01*
G01X8197Y25894D01*
G01X8288Y25708D01*
G01X8473Y25526D01*
G01X8750Y25432D01*
G01X8936Y25432D01*
G01X9213Y25526D01*
G01X9395Y25708D01*
G01X9489Y25894D01*
G01X9489Y26171D01*
G01X9395Y26356D01*
G01X9213Y26542D01*
G01X8379Y30420D02*
G01X8288Y30420D01*
G01X8197Y30326D01*
G01X8197Y30235D01*
G01X8288Y30143D01*
G01X8473Y30049D01*
G01X8936Y29866D01*
G01X9213Y29681D01*
G01X9395Y29496D01*
G01X9489Y29310D01*
G01X9489Y28942D01*
G01X9395Y28756D01*
G01X9304Y28665D01*
G01X9119Y28574D01*
G01X8936Y28574D01*
G01X8750Y28665D01*
G01X8656Y28756D01*
G01X8288Y29404D01*
G01X8197Y29496D01*
G01X8011Y29590D01*
G01X7826Y29590D01*
G01X7640Y29496D01*
G01X7549Y29310D01*
G01X7640Y29127D01*
G01X7826Y29033D01*
G01X8011Y29033D01*
G01X8288Y29127D01*
G01X8565Y29310D01*
G01X9213Y29772D01*
G01X9395Y29958D01*
G01X9489Y30143D01*
G01X9489Y30326D01*
G01X9395Y30420D01*
G01X9304Y30420D01*
G01X7826Y33745D02*
G01X7640Y33560D01*
G01X7549Y33283D01*
G01X7549Y32914D01*
G01X7640Y32638D01*
G01X7826Y32452D01*
G01X8011Y32452D01*
G01X8197Y32544D01*
G01X8288Y32638D01*
G01X8379Y32820D01*
G01X8565Y33374D01*
G01X8656Y33560D01*
G01X8750Y33654D01*
G01X8936Y33745D01*
G01X9213Y33745D01*
G01X9395Y33560D01*
G01X9489Y33283D01*
G01X9489Y32914D01*
G01X9395Y32638D01*
G01X9213Y32452D01*
G01X8750Y34355D02*
G01X8750Y35462D01*
G01X8565Y35462D01*
G01X8379Y35371D01*
G01X8288Y35279D01*
G01X8197Y35094D01*
G01X8197Y34817D01*
G01X8288Y34631D01*
G01X8473Y34446D01*
G01X8750Y34355D01*
G01X8936Y34355D01*
G01X9213Y34446D01*
G01X9395Y34631D01*
G01X9489Y34817D01*
G01X9489Y35094D01*
G01X9395Y35279D01*
G01X9213Y35462D01*
G01X8473Y37182D02*
G01X8288Y36996D01*
G01X8197Y36811D01*
G01X8197Y36534D01*
G01X8288Y36349D01*
G01X8473Y36166D01*
G01X8750Y36072D01*
G01X8936Y36072D01*
G01X9213Y36166D01*
G01X9395Y36349D01*
G01X9489Y36534D01*
G01X9489Y36811D01*
G01X9395Y36996D01*
G01X9213Y37182D01*
G01X8197Y37791D02*
G01X9119Y37791D01*
G01X9395Y37883D01*
G01X9489Y38068D01*
G01X9489Y38345D01*
G01X9395Y38530D01*
G01X9119Y38807D01*
G01X8197Y38807D02*
G01X9489Y38807D01*
G01X8197Y39417D02*
G01X9489Y39417D01*
G01X8750Y39417D02*
G01X8473Y39508D01*
G01X8288Y39694D01*
G01X8197Y39877D01*
G01X8197Y40156D01*
G01X7549Y40766D02*
G01X7640Y40857D01*
G01X7549Y40948D01*
G01X7457Y40857D01*
G01X7549Y40766D01*
G01X8197Y40857D02*
G01X9489Y40857D01*
G01X7549Y41835D02*
G01X9119Y41835D01*
G01X9395Y41929D01*
G01X9489Y42112D01*
G01X9489Y42297D01*
G01X8197Y41558D02*
G01X8197Y42206D01*
G01X8197Y43001D02*
G01X9489Y43555D01*
G01X8197Y44108D02*
G01X9489Y43555D01*
G01X9858Y43369D01*
G01X10043Y43184D01*
G01X10135Y43001D01*
G01X10135Y42907D01*
G54D51*
G01X35708Y21746D02*
G01X34981Y22836D01*
G01X34981Y21746D02*
G01X35708Y22836D01*
G01X34638Y21954D02*
G01X34534Y21901D01*
G01X34377Y21746D01*
G01X34377Y22836D01*
G01X24779Y55194D02*
G01X24726Y55298D01*
G01X24622Y55402D01*
G01X24520Y55453D01*
G01X24312Y55453D01*
G01X24208Y55402D01*
G01X24104Y55298D01*
G01X24050Y55194D01*
G01X24000Y55036D01*
G01X24000Y54777D01*
G01X24050Y54622D01*
G01X24104Y54518D01*
G01X24208Y54414D01*
G01X24312Y54363D01*
G01X24520Y54363D01*
G01X24622Y54414D01*
G01X24726Y54518D01*
G01X24779Y54622D01*
G01X25536Y55453D02*
G01X25122Y54363D01*
G01X25536Y55453D02*
G01X25953Y54363D01*
G01X25277Y54726D02*
G01X25798Y54726D01*
G01X26296Y55453D02*
G01X26296Y54363D01*
G01X26296Y55453D02*
G01X26763Y55453D01*
G01X26921Y55402D01*
G01X26971Y55349D01*
G01X27022Y55244D01*
G01X27022Y55140D01*
G01X26971Y55036D01*
G01X26921Y54985D01*
G01X26763Y54935D01*
G01X26296Y54935D01*
G01X26659Y54935D02*
G01X27022Y54363D01*
G01X27365Y55453D02*
G01X27365Y54363D01*
G01X27365Y55453D02*
G01X27731Y55453D01*
G01X27886Y55402D01*
G01X27990Y55298D01*
G01X28041Y55194D01*
G01X28094Y55036D01*
G01X28094Y54777D01*
G01X28041Y54622D01*
G01X27990Y54518D01*
G01X27886Y54414D01*
G01X27731Y54363D01*
G01X27365Y54363D01*
G01X28437Y55244D02*
G01X28541Y55298D01*
G01X28696Y55453D01*
G01X28696Y54363D01*
G01X72462Y5169D02*
G01X72462Y4079D01*
G01X72462Y5169D02*
G01X72929Y5169D01*
G01X73084Y5118D01*
G01X73137Y5064D01*
G01X73188Y4960D01*
G01X73188Y4856D01*
G01X73137Y4752D01*
G01X73084Y4701D01*
G01X72929Y4650D01*
G01X72462Y4650D01*
G01X72825Y4650D02*
G01X73188Y4079D01*
G01X74156Y5014D02*
G01X74102Y5118D01*
G01X73947Y5169D01*
G01X73843Y5169D01*
G01X73688Y5118D01*
G01X73584Y4960D01*
G01X73531Y4701D01*
G01X73531Y4442D01*
G01X73584Y4234D01*
G01X73688Y4130D01*
G01X73843Y4079D01*
G01X73897Y4079D01*
G01X74052Y4130D01*
G01X74156Y4234D01*
G01X74207Y4389D01*
G01X74207Y4442D01*
G01X74156Y4597D01*
G01X74052Y4701D01*
G01X73897Y4752D01*
G01X73843Y4752D01*
G01X73688Y4701D01*
G01X73584Y4597D01*
G01X73531Y4442D01*
G01X7847Y1899D02*
G01X8626Y1899D01*
G01X8781Y1950D01*
G01X8885Y2054D01*
G01X8936Y2212D01*
G01X8936Y2316D01*
G01X8885Y2471D01*
G01X8781Y2575D01*
G01X8626Y2626D01*
G01X7847Y2626D01*
G01X7847Y3698D02*
G01X8936Y3177D01*
G01X7847Y2969D02*
G01X7847Y3698D01*
G01X6946Y54301D02*
G01X7726Y54301D01*
G01X7881Y54352D01*
G01X7985Y54456D01*
G01X8038Y54611D01*
G01X8038Y54715D01*
G01X7985Y54872D01*
G01X7881Y54974D01*
G01X7726Y55027D01*
G01X6946Y55027D01*
G01X6946Y55629D02*
G01X6997Y55474D01*
G01X7101Y55421D01*
G01X7205Y55421D01*
G01X7309Y55474D01*
G01X7363Y55578D01*
G01X7414Y55787D01*
G01X7467Y55942D01*
G01X7568Y56046D01*
G01X7673Y56097D01*
G01X7830Y56097D01*
G01X7934Y56046D01*
G01X7985Y55992D01*
G01X8038Y55837D01*
G01X8038Y55629D01*
G01X7985Y55474D01*
G01X7934Y55421D01*
G01X7830Y55370D01*
G01X7673Y55370D01*
G01X7568Y55421D01*
G01X7467Y55525D01*
G01X7414Y55683D01*
G01X7363Y55888D01*
G01X7309Y55992D01*
G01X7205Y56046D01*
G01X7101Y56046D01*
G01X6997Y55992D01*
G01X6946Y55837D01*
G01X6946Y55629D01*
G01X60879Y9853D02*
G01X60879Y10943D01*
G01X60879Y9853D02*
G01X60411Y9853D01*
G01X60256Y9904D01*
G01X60203Y9957D01*
G01X60152Y10062D01*
G01X60152Y10166D01*
G01X60203Y10270D01*
G01X60256Y10321D01*
G01X60411Y10371D01*
G01X60879Y10371D01*
G01X60515Y10371D02*
G01X60152Y10943D01*
G01X59548Y9853D02*
G01X59705Y9904D01*
G01X59756Y10008D01*
G01X59756Y10112D01*
G01X59705Y10217D01*
G01X59601Y10270D01*
G01X59393Y10321D01*
G01X59238Y10371D01*
G01X59134Y10476D01*
G01X59080Y10580D01*
G01X59080Y10737D01*
G01X59134Y10841D01*
G01X59184Y10892D01*
G01X59342Y10943D01*
G01X59548Y10943D01*
G01X59705Y10892D01*
G01X59756Y10841D01*
G01X59809Y10737D01*
G01X59809Y10580D01*
G01X59756Y10476D01*
G01X59652Y10371D01*
G01X59497Y10321D01*
G01X59289Y10270D01*
G01X59184Y10217D01*
G01X59134Y10112D01*
G01X59134Y10008D01*
G01X59184Y9904D01*
G01X59342Y9853D01*
G01X59548Y9853D01*
G01X42578Y58063D02*
G01X42578Y56973D01*
G01X43700Y57804D02*
G01X43647Y57908D01*
G01X43543Y58012D01*
G01X43441Y58063D01*
G01X43233Y58063D01*
G01X43129Y58012D01*
G01X43025Y57908D01*
G01X42971Y57804D01*
G01X42920Y57646D01*
G01X42920Y57387D01*
G01X42971Y57232D01*
G01X43025Y57128D01*
G01X43129Y57024D01*
G01X43233Y56973D01*
G01X43441Y56973D01*
G01X43543Y57024D01*
G01X43647Y57128D01*
G01X43700Y57232D01*
G01X44770Y57908D02*
G01X44665Y58012D01*
G01X44510Y58063D01*
G01X44302Y58063D01*
G01X44147Y58012D01*
G01X44043Y57908D01*
G01X44043Y57804D01*
G01X44094Y57699D01*
G01X44147Y57646D01*
G01X44251Y57595D01*
G01X44561Y57491D01*
G01X44665Y57440D01*
G01X44719Y57387D01*
G01X44770Y57283D01*
G01X44770Y57128D01*
G01X44665Y57024D01*
G01X44510Y56973D01*
G01X44302Y56973D01*
G01X44147Y57024D01*
G01X44043Y57128D01*
G01X45112Y58063D02*
G01X45112Y56973D01*
G01X45112Y58063D02*
G01X45580Y58063D01*
G01X45737Y58012D01*
G01X45788Y57959D01*
G01X45841Y57854D01*
G01X45841Y57699D01*
G01X45788Y57595D01*
G01X45737Y57545D01*
G01X45580Y57491D01*
G01X45112Y57491D01*
G54D44*
G01X38768Y53054D02*
G01X38882Y53112D01*
G01X39057Y53285D01*
G01X39057Y52071D01*
G01X38318Y55535D02*
G01X38318Y55594D01*
G01X38374Y55708D01*
G01X38432Y55767D01*
G01X38549Y55825D01*
G01X38780Y55825D01*
G01X38895Y55767D01*
G01X38953Y55708D01*
G01X39009Y55594D01*
G01X39009Y55477D01*
G01X38953Y55363D01*
G01X38836Y55190D01*
G01X38260Y54611D01*
G01X39067Y54611D01*
G54D51*
G01X38483Y14777D02*
G01X39573Y14777D01*
G01X38483Y14777D02*
G01X38483Y15245D01*
G01X38534Y15400D01*
G01X38588Y15453D01*
G01X38692Y15504D01*
G01X38796Y15504D01*
G01X38900Y15453D01*
G01X38951Y15400D01*
G01X39002Y15245D01*
G01X39002Y14777D01*
G01X39002Y15141D02*
G01X39573Y15504D01*
G01X38483Y16576D02*
G01X39573Y16055D01*
G01X38483Y15847D02*
G01X38483Y16576D01*
G01X47882Y3447D02*
G01X48972Y3447D01*
G01X47882Y3447D02*
G01X47882Y3915D01*
G01X47933Y4070D01*
G01X47987Y4123D01*
G01X48091Y4174D01*
G01X48246Y4174D01*
G01X48350Y4123D01*
G01X48401Y4070D01*
G01X48454Y3915D01*
G01X48454Y3447D01*
G01X47882Y5038D02*
G01X48609Y4517D01*
G01X48609Y5297D01*
G01X47882Y5038D02*
G01X48972Y5038D01*
G01X33904Y5374D02*
G01X33957Y5270D01*
G01X34061Y5166D01*
G01X34163Y5115D01*
G01X34371Y5115D01*
G01X34475Y5166D01*
G01X34579Y5270D01*
G01X34633Y5374D01*
G01X34684Y5532D01*
G01X34684Y5791D01*
G01X34633Y5946D01*
G01X34579Y6050D01*
G01X34475Y6154D01*
G01X34371Y6205D01*
G01X34163Y6205D01*
G01X34061Y6154D01*
G01X33957Y6050D01*
G01X33904Y5946D01*
G01X33510Y5374D02*
G01X33510Y5324D01*
G01X33457Y5219D01*
G01X33406Y5166D01*
G01X33302Y5115D01*
G01X33093Y5115D01*
G01X32989Y5166D01*
G01X32939Y5219D01*
G01X32885Y5324D01*
G01X32885Y5428D01*
G01X32939Y5532D01*
G01X33043Y5687D01*
G01X33561Y6205D01*
G01X32834Y6205D01*
G01X79622Y6227D02*
G01X79726Y6331D01*
G01X79777Y6486D01*
G01X79777Y6694D01*
G01X79726Y6849D01*
G01X79622Y6953D01*
G01X79518Y6953D01*
G01X79414Y6903D01*
G01X79360Y6849D01*
G01X79309Y6745D01*
G01X79205Y6433D01*
G01X79154Y6331D01*
G01X79101Y6278D01*
G01X78997Y6227D01*
G01X78842Y6227D01*
G01X78738Y6331D01*
G01X78687Y6486D01*
G01X78687Y6694D01*
G01X78738Y6849D01*
G01X78842Y6953D01*
G01X79777Y5884D02*
G01X78687Y5623D01*
G01X79777Y5363D02*
G01X78687Y5623D01*
G01X79777Y5363D02*
G01X78687Y5104D01*
G01X79777Y4845D02*
G01X78687Y5104D01*
G01X79568Y4502D02*
G01X79622Y4398D01*
G01X79777Y4241D01*
G01X78687Y4241D01*
G01X42817Y15868D02*
G01X43907Y15868D01*
G01X42817Y15868D02*
G01X42817Y16232D01*
G01X42868Y16389D01*
G01X42972Y16491D01*
G01X43076Y16544D01*
G01X43234Y16595D01*
G01X43493Y16595D01*
G01X43648Y16544D01*
G01X43752Y16491D01*
G01X43856Y16389D01*
G01X43907Y16232D01*
G01X43907Y15868D01*
G01X42817Y17042D02*
G01X42817Y17613D01*
G01X43234Y17304D01*
G01X43234Y17458D01*
G01X43285Y17563D01*
G01X43336Y17613D01*
G01X43493Y17667D01*
G01X43597Y17667D01*
G01X43752Y17613D01*
G01X43856Y17509D01*
G01X43907Y17354D01*
G01X43907Y17199D01*
G01X43856Y17042D01*
G01X43805Y16991D01*
G01X43701Y16938D01*
G01X60099Y15212D02*
G01X60152Y15108D01*
G01X60256Y15004D01*
G01X60358Y14953D01*
G01X60566Y14953D01*
G01X60670Y15004D01*
G01X60774Y15108D01*
G01X60828Y15212D01*
G01X60879Y15370D01*
G01X60879Y15629D01*
G01X60828Y15784D01*
G01X60774Y15888D01*
G01X60670Y15992D01*
G01X60566Y16043D01*
G01X60358Y16043D01*
G01X60256Y15992D01*
G01X60152Y15888D01*
G01X60099Y15784D01*
G01X59652Y14953D02*
G01X59080Y14953D01*
G01X59393Y15370D01*
G01X59238Y15370D01*
G01X59134Y15421D01*
G01X59080Y15471D01*
G01X59029Y15629D01*
G01X59029Y15733D01*
G01X59080Y15888D01*
G01X59184Y15992D01*
G01X59342Y16043D01*
G01X59497Y16043D01*
G01X59652Y15992D01*
G01X59705Y15941D01*
G01X59756Y15837D01*
G01X48516Y16403D02*
G01X49296Y16403D01*
G01X49451Y16454D01*
G01X49555Y16558D01*
G01X49606Y16716D01*
G01X49606Y16820D01*
G01X49555Y16975D01*
G01X49451Y17079D01*
G01X49296Y17130D01*
G01X48516Y17130D01*
G01X48516Y18097D02*
G01X48516Y17577D01*
G01X48984Y17526D01*
G01X48933Y17577D01*
G01X48880Y17734D01*
G01X48880Y17889D01*
G01X48933Y18044D01*
G01X49035Y18148D01*
G01X49192Y18201D01*
G01X49296Y18201D01*
G01X49451Y18148D01*
G01X49555Y18044D01*
G01X49606Y17889D01*
G01X49606Y17734D01*
G01X49555Y17577D01*
G01X49504Y17526D01*
G01X49400Y17472D01*
G01X60789Y26941D02*
G01X60685Y26888D01*
G01X60581Y26784D01*
G01X60530Y26682D01*
G01X60530Y26474D01*
G01X60581Y26370D01*
G01X60685Y26266D01*
G01X60789Y26212D01*
G01X60947Y26162D01*
G01X61206Y26162D01*
G01X61361Y26212D01*
G01X61465Y26266D01*
G01X61569Y26370D01*
G01X61620Y26474D01*
G01X61620Y26682D01*
G01X61569Y26784D01*
G01X61465Y26888D01*
G01X61361Y26941D01*
G01X60530Y27802D02*
G01X61257Y27284D01*
G01X61257Y28064D01*
G01X60530Y27802D02*
G01X61620Y27802D01*
G01X41041Y37210D02*
G01X40988Y37314D01*
G01X40884Y37418D01*
G01X40782Y37469D01*
G01X40574Y37469D01*
G01X40470Y37418D01*
G01X40366Y37314D01*
G01X40312Y37210D01*
G01X40262Y37052D01*
G01X40262Y36793D01*
G01X40312Y36638D01*
G01X40366Y36534D01*
G01X40470Y36430D01*
G01X40574Y36379D01*
G01X40782Y36379D01*
G01X40884Y36430D01*
G01X40988Y36534D01*
G01X41041Y36638D01*
G01X41384Y37260D02*
G01X41488Y37314D01*
G01X41643Y37469D01*
G01X41643Y36379D01*
G01X60879Y12453D02*
G01X60879Y13543D01*
G01X60879Y12453D02*
G01X60411Y12453D01*
G01X60256Y12504D01*
G01X60203Y12557D01*
G01X60152Y12662D01*
G01X60152Y12766D01*
G01X60203Y12870D01*
G01X60256Y12921D01*
G01X60411Y12971D01*
G01X60879Y12971D01*
G01X60515Y12971D02*
G01X60152Y13543D01*
G01X59134Y12817D02*
G01X59184Y12971D01*
G01X59289Y13076D01*
G01X59443Y13129D01*
G01X59497Y13129D01*
G01X59652Y13076D01*
G01X59756Y12971D01*
G01X59809Y12817D01*
G01X59809Y12766D01*
G01X59756Y12608D01*
G01X59652Y12504D01*
G01X59497Y12453D01*
G01X59443Y12453D01*
G01X59289Y12504D01*
G01X59184Y12608D01*
G01X59134Y12817D01*
G01X59134Y13076D01*
G01X59184Y13337D01*
G01X59289Y13492D01*
G01X59443Y13543D01*
G01X59548Y13543D01*
G01X59705Y13492D01*
G01X59756Y13388D01*
G01X68638Y3130D02*
G01X68638Y4220D01*
G01X68638Y3130D02*
G01X68274Y3130D01*
G01X68117Y3181D01*
G01X68015Y3285D01*
G01X67962Y3389D01*
G01X67911Y3547D01*
G01X67911Y3806D01*
G01X67962Y3961D01*
G01X68015Y4065D01*
G01X68117Y4169D01*
G01X68274Y4220D01*
G01X68638Y4220D01*
G01X67048Y3130D02*
G01X67568Y3857D01*
G01X66788Y3857D01*
G01X67048Y3130D02*
G01X67048Y4220D01*
G01X68638Y5330D02*
G01X68638Y6420D01*
G01X68638Y5330D02*
G01X68274Y5330D01*
G01X68117Y5381D01*
G01X68015Y5485D01*
G01X67962Y5589D01*
G01X67911Y5747D01*
G01X67911Y6006D01*
G01X67962Y6161D01*
G01X68015Y6265D01*
G01X68117Y6369D01*
G01X68274Y6420D01*
G01X68638Y6420D01*
G01X66943Y5330D02*
G01X67464Y5330D01*
G01X67515Y5798D01*
G01X67464Y5747D01*
G01X67307Y5694D01*
G01X67152Y5694D01*
G01X66997Y5747D01*
G01X66893Y5848D01*
G01X66839Y6006D01*
G01X66839Y6110D01*
G01X66893Y6265D01*
G01X66997Y6369D01*
G01X67152Y6420D01*
G01X67307Y6420D01*
G01X67464Y6369D01*
G01X67515Y6318D01*
G01X67568Y6214D01*
G01X72462Y7469D02*
G01X72462Y6379D01*
G01X72462Y7469D02*
G01X72929Y7469D01*
G01X73084Y7418D01*
G01X73137Y7365D01*
G01X73188Y7260D01*
G01X73188Y7156D01*
G01X73137Y7052D01*
G01X73084Y7001D01*
G01X72929Y6950D01*
G01X72462Y6950D01*
G01X72825Y6950D02*
G01X73188Y6379D01*
G01X73531Y7260D02*
G01X73635Y7314D01*
G01X73793Y7469D01*
G01X73793Y6379D01*
G01X74445Y7469D02*
G01X74290Y7418D01*
G01X74186Y7260D01*
G01X74135Y7001D01*
G01X74135Y6846D01*
G01X74186Y6585D01*
G01X74290Y6430D01*
G01X74445Y6379D01*
G01X74549Y6379D01*
G01X74707Y6430D01*
G01X74811Y6585D01*
G01X74862Y6846D01*
G01X74862Y7001D01*
G01X74811Y7260D01*
G01X74707Y7418D01*
G01X74549Y7469D01*
G01X74445Y7469D01*
G01X72462Y9669D02*
G01X72462Y8579D01*
G01X72462Y9669D02*
G01X72929Y9669D01*
G01X73084Y9618D01*
G01X73137Y9565D01*
G01X73188Y9460D01*
G01X73188Y9356D01*
G01X73137Y9252D01*
G01X73084Y9201D01*
G01X72929Y9150D01*
G01X72462Y9150D01*
G01X72825Y9150D02*
G01X73188Y8579D01*
G01X73531Y9460D02*
G01X73635Y9514D01*
G01X73793Y9669D01*
G01X73793Y8579D01*
G01X74135Y9460D02*
G01X74240Y9514D01*
G01X74394Y9669D01*
G01X74394Y8579D01*
G01X35336Y11481D02*
G01X35283Y11585D01*
G01X35179Y11689D01*
G01X35077Y11740D01*
G01X34869Y11740D01*
G01X34765Y11689D01*
G01X34661Y11585D01*
G01X34607Y11481D01*
G01X34557Y11323D01*
G01X34557Y11064D01*
G01X34607Y10909D01*
G01X34661Y10805D01*
G01X34765Y10701D01*
G01X34869Y10650D01*
G01X35077Y10650D01*
G01X35179Y10701D01*
G01X35283Y10805D01*
G01X35336Y10909D01*
G01X36302Y11740D02*
G01X35783Y11740D01*
G01X35730Y11272D01*
G01X35783Y11323D01*
G01X35938Y11376D01*
G01X36093Y11376D01*
G01X36251Y11323D01*
G01X36355Y11221D01*
G01X36406Y11064D01*
G01X36406Y10960D01*
G01X36355Y10805D01*
G01X36251Y10701D01*
G01X36093Y10650D01*
G01X35938Y10650D01*
G01X35783Y10701D01*
G01X35730Y10752D01*
G01X35679Y10856D01*
G01X46746Y11702D02*
G01X46642Y11649D01*
G01X46538Y11545D01*
G01X46487Y11443D01*
G01X46487Y11235D01*
G01X46538Y11131D01*
G01X46642Y11027D01*
G01X46746Y10973D01*
G01X46904Y10922D01*
G01X47163Y10922D01*
G01X47318Y10973D01*
G01X47422Y11027D01*
G01X47526Y11131D01*
G01X47577Y11235D01*
G01X47577Y11443D01*
G01X47526Y11545D01*
G01X47422Y11649D01*
G01X47318Y11702D01*
G01X46642Y12667D02*
G01X46538Y12617D01*
G01X46487Y12459D01*
G01X46487Y12358D01*
G01X46538Y12200D01*
G01X46696Y12096D01*
G01X46955Y12045D01*
G01X47214Y12045D01*
G01X47422Y12096D01*
G01X47526Y12200D01*
G01X47577Y12358D01*
G01X47577Y12408D01*
G01X47526Y12563D01*
G01X47422Y12667D01*
G01X47267Y12721D01*
G01X47214Y12721D01*
G01X47059Y12667D01*
G01X46955Y12563D01*
G01X46904Y12408D01*
G01X46904Y12358D01*
G01X46955Y12200D01*
G01X47059Y12096D01*
G01X47214Y12045D01*
G01X46746Y9002D02*
G01X46642Y8949D01*
G01X46538Y8845D01*
G01X46487Y8743D01*
G01X46487Y8535D01*
G01X46538Y8431D01*
G01X46642Y8327D01*
G01X46746Y8273D01*
G01X46904Y8222D01*
G01X47163Y8222D01*
G01X47318Y8273D01*
G01X47422Y8327D01*
G01X47526Y8431D01*
G01X47577Y8535D01*
G01X47577Y8743D01*
G01X47526Y8845D01*
G01X47422Y8949D01*
G01X47318Y9002D01*
G01X46487Y10072D02*
G01X47577Y9553D01*
G01X46487Y9345D02*
G01X46487Y10072D01*
G01X58520Y55476D02*
G01X58520Y54696D01*
G01X58570Y54541D01*
G01X58675Y54437D01*
G01X58832Y54386D01*
G01X58936Y54386D01*
G01X59091Y54437D01*
G01X59195Y54541D01*
G01X59246Y54696D01*
G01X59246Y55476D01*
G01X59642Y55217D02*
G01X59642Y55267D01*
G01X59693Y55372D01*
G01X59746Y55425D01*
G01X59851Y55476D01*
G01X60056Y55476D01*
G01X60160Y55425D01*
G01X60214Y55372D01*
G01X60265Y55267D01*
G01X60265Y55163D01*
G01X60214Y55059D01*
G01X60110Y54904D01*
G01X59589Y54386D01*
G01X60318Y54386D01*
G54D52*
G01X50446Y32653D02*
G01X50408Y32727D01*
G01X50336Y32798D01*
G01X50263Y32836D01*
G01X50118Y32836D01*
G01X50044Y32798D01*
G01X49973Y32727D01*
G01X49935Y32653D01*
G01X49900Y32544D01*
G01X49900Y32364D01*
G01X49935Y32255D01*
G01X49973Y32181D01*
G01X50044Y32107D01*
G01X50118Y32072D01*
G01X50263Y32072D01*
G01X50336Y32107D01*
G01X50408Y32181D01*
G01X50446Y32255D01*
G01X50446Y32364D01*
G01X50263Y32364D02*
G01X50446Y32364D01*
G01X50684Y32836D02*
G01X50684Y32072D01*
G01X50684Y32836D02*
G01X51195Y32072D01*
G01X51195Y32836D02*
G01X51195Y32072D01*
G01X51434Y32836D02*
G01X51434Y32072D01*
G01X51434Y32836D02*
G01X51688Y32836D01*
G01X51797Y32798D01*
G01X51871Y32727D01*
G01X51906Y32653D01*
G01X51944Y32544D01*
G01X51944Y32364D01*
G01X51906Y32255D01*
G01X51871Y32181D01*
G01X51797Y32107D01*
G01X51688Y32072D01*
G01X51434Y32072D01*
G01X52500Y32836D02*
G01X52792Y32072D01*
G01X53081Y32836D02*
G01X52792Y32072D01*
G01X53866Y32653D02*
G01X53831Y32727D01*
G01X53757Y32798D01*
G01X53686Y32836D01*
G01X53538Y32836D01*
G01X53467Y32798D01*
G01X53394Y32727D01*
G01X53358Y32653D01*
G01X53323Y32544D01*
G01X53323Y32364D01*
G01X53358Y32255D01*
G01X53394Y32181D01*
G01X53467Y32107D01*
G01X53538Y32072D01*
G01X53686Y32072D01*
G01X53757Y32107D01*
G01X53831Y32181D01*
G01X53866Y32255D01*
G01X54653Y32653D02*
G01X54615Y32727D01*
G01X54544Y32798D01*
G01X54471Y32836D01*
G01X54326Y32836D01*
G01X54252Y32798D01*
G01X54178Y32727D01*
G01X54143Y32653D01*
G01X54107Y32544D01*
G01X54107Y32364D01*
G01X54143Y32255D01*
G01X54178Y32181D01*
G01X54252Y32107D01*
G01X54326Y32072D01*
G01X54471Y32072D01*
G01X54544Y32107D01*
G01X54615Y32181D01*
G01X54653Y32255D01*
G01X55853Y32750D02*
G01X55781Y32821D01*
G01X55672Y32859D01*
G01X55527Y32859D01*
G01X55418Y32821D01*
G01X55345Y32750D01*
G01X55345Y32677D01*
G01X55380Y32605D01*
G01X55418Y32567D01*
G01X55489Y32532D01*
G01X55708Y32458D01*
G01X55781Y32423D01*
G01X55817Y32387D01*
G01X55853Y32313D01*
G01X55853Y32204D01*
G01X55781Y32131D01*
G01X55672Y32095D01*
G01X55527Y32095D01*
G01X55418Y32131D01*
G01X55345Y32204D01*
G01X56640Y32677D02*
G01X56602Y32750D01*
G01X56531Y32821D01*
G01X56457Y32859D01*
G01X56312Y32859D01*
G01X56239Y32821D01*
G01X56168Y32750D01*
G01X56129Y32677D01*
G01X56094Y32567D01*
G01X56094Y32387D01*
G01X56129Y32278D01*
G01X56168Y32204D01*
G01X56239Y32131D01*
G01X56312Y32095D01*
G01X56457Y32095D01*
G01X56531Y32131D01*
G01X56602Y32204D01*
G01X56640Y32278D01*
G01X56879Y32859D02*
G01X56879Y32095D01*
G01X56879Y32095D02*
G01X57316Y32095D01*
G01X58308Y32727D02*
G01X58236Y32798D01*
G01X58127Y32836D01*
G01X57982Y32836D01*
G01X57873Y32798D01*
G01X57800Y32727D01*
G01X57800Y32653D01*
G01X57835Y32582D01*
G01X57873Y32544D01*
G01X57944Y32509D01*
G01X58163Y32435D01*
G01X58236Y32399D01*
G01X58272Y32364D01*
G01X58308Y32290D01*
G01X58308Y32181D01*
G01X58236Y32107D01*
G01X58127Y32072D01*
G01X57982Y32072D01*
G01X57873Y32107D01*
G01X57800Y32181D01*
G01X58549Y32836D02*
G01X58549Y32072D01*
G01X58549Y32836D02*
G01X58803Y32836D01*
G01X58912Y32798D01*
G01X58986Y32727D01*
G01X59021Y32653D01*
G01X59057Y32544D01*
G01X59057Y32364D01*
G01X59021Y32255D01*
G01X58986Y32181D01*
G01X58912Y32107D01*
G01X58803Y32072D01*
G01X58549Y32072D01*
G01X59588Y32836D02*
G01X59298Y32072D01*
G01X59588Y32836D02*
G01X59880Y32072D01*
G01X59407Y32326D02*
G01X59771Y32326D01*
G54D44*
G01X51753Y31007D02*
G01X51568Y30915D01*
G01X51385Y30730D01*
G01X51291Y30547D01*
G01X51200Y30268D01*
G01X51200Y29808D01*
G01X51291Y29531D01*
G01X51385Y29346D01*
G01X51568Y29160D01*
G01X51753Y29069D01*
G01X52124Y29069D01*
G01X52307Y29160D01*
G01X52492Y29346D01*
G01X52584Y29531D01*
G01X52678Y29808D01*
G01X52678Y30268D01*
G01X52584Y30547D01*
G01X52492Y30730D01*
G01X52307Y30915D01*
G01X52124Y31007D01*
G01X51753Y31007D01*
G01X53287Y31007D02*
G01X53287Y29069D01*
G01X53287Y29069D02*
G01X54395Y29069D01*
G01X55004Y31007D02*
G01X55004Y29069D01*
G01X55004Y31007D02*
G01X56206Y31007D01*
G01X55004Y30085D02*
G01X55744Y30085D01*
G01X55004Y29069D02*
G01X56206Y29069D01*
G01X56815Y31007D02*
G01X56815Y29069D01*
G01X56815Y31007D02*
G01X57461Y31007D01*
G01X57740Y30915D01*
G01X57923Y30730D01*
G01X58017Y30547D01*
G01X58108Y30268D01*
G01X58108Y29808D01*
G01X58017Y29531D01*
G01X57923Y29346D01*
G01X57740Y29160D01*
G01X57461Y29069D01*
G01X56815Y29069D01*
G54D51*
G01X54329Y37315D02*
G01X54329Y36535D01*
G01X54379Y36380D01*
G01X54484Y36276D01*
G01X54641Y36225D01*
G01X54745Y36225D01*
G01X54900Y36276D01*
G01X55004Y36380D01*
G01X55055Y36535D01*
G01X55055Y37315D01*
G01X55502Y37315D02*
G01X56074Y37315D01*
G01X55764Y36898D01*
G01X55919Y36898D01*
G01X56023Y36847D01*
G01X56074Y36797D01*
G01X56127Y36639D01*
G01X56127Y36535D01*
G01X56074Y36380D01*
G01X55969Y36276D01*
G01X55814Y36225D01*
G01X55660Y36225D01*
G01X55502Y36276D01*
G01X55451Y36327D01*
G01X55398Y36431D01*
G01X71290Y30769D02*
G01X71290Y31858D01*
G01X70564Y30769D02*
G01X71290Y31495D01*
G01X71031Y31236D02*
G01X70564Y31858D01*
G01X70221Y30769D02*
G01X70221Y31858D01*
G01X70221Y30769D02*
G01X69545Y30769D01*
G01X70221Y31287D02*
G01X69804Y31287D01*
G01X70221Y31858D02*
G01X69545Y31858D01*
G01X69202Y30769D02*
G01X68786Y31287D01*
G01X68786Y31858D01*
G01X68369Y30769D02*
G01X68786Y31287D01*
G01X67924Y30769D02*
G01X67353Y30769D01*
G01X67663Y31185D01*
G01X67508Y31185D01*
G01X67404Y31236D01*
G01X67353Y31287D01*
G01X67300Y31444D01*
G01X67300Y31548D01*
G01X67353Y31703D01*
G01X67455Y31808D01*
G01X67612Y31858D01*
G01X67767Y31858D01*
G01X67924Y31808D01*
G01X67975Y31757D01*
G01X68026Y31653D01*
G01X71290Y20185D02*
G01X71290Y21275D01*
G01X70564Y20185D02*
G01X71290Y20912D01*
G01X71031Y20653D02*
G01X70564Y21275D01*
G01X70221Y20185D02*
G01X70221Y21275D01*
G01X70221Y20185D02*
G01X69545Y20185D01*
G01X70221Y20704D02*
G01X69804Y20704D01*
G01X70221Y21275D02*
G01X69545Y21275D01*
G01X69202Y20185D02*
G01X68786Y20704D01*
G01X68786Y21275D01*
G01X68369Y20185D02*
G01X68786Y20704D01*
G01X67975Y20444D02*
G01X67975Y20394D01*
G01X67924Y20290D01*
G01X67871Y20236D01*
G01X67767Y20185D01*
G01X67559Y20185D01*
G01X67455Y20236D01*
G01X67404Y20290D01*
G01X67353Y20394D01*
G01X67353Y20498D01*
G01X67404Y20602D01*
G01X67508Y20757D01*
G01X68026Y21275D01*
G01X67300Y21275D01*
G01X71290Y9602D02*
G01X71290Y10692D01*
G01X70564Y9602D02*
G01X71290Y10328D01*
G01X71031Y10069D02*
G01X70564Y10692D01*
G01X70221Y9602D02*
G01X70221Y10692D01*
G01X70221Y9602D02*
G01X69545Y9602D01*
G01X70221Y10120D02*
G01X69804Y10120D01*
G01X70221Y10692D02*
G01X69545Y10692D01*
G01X69202Y9602D02*
G01X68786Y10120D01*
G01X68786Y10692D01*
G01X68369Y9602D02*
G01X68786Y10120D01*
G01X68026Y9810D02*
G01X67924Y9757D01*
G01X67767Y9602D01*
G01X67767Y10692D01*
G01X71290Y41352D02*
G01X71290Y42442D01*
G01X70564Y41352D02*
G01X71290Y42078D01*
G01X71031Y41819D02*
G01X70564Y42442D01*
G01X70221Y41352D02*
G01X70221Y42442D01*
G01X70221Y41352D02*
G01X69545Y41352D01*
G01X70221Y41870D02*
G01X69804Y41870D01*
G01X70221Y42442D02*
G01X69545Y42442D01*
G01X69202Y41352D02*
G01X68786Y41870D01*
G01X68786Y42442D01*
G01X68369Y41352D02*
G01X68786Y41870D01*
G01X67508Y41352D02*
G01X68026Y42078D01*
G01X67249Y42078D01*
G01X67508Y41352D02*
G01X67508Y42442D01*
G01X25736Y12237D02*
G01X25789Y12133D01*
G01X25893Y12029D01*
G01X25995Y11978D01*
G01X26203Y11978D01*
G01X26307Y12029D01*
G01X26411Y12133D01*
G01X26465Y12237D01*
G01X26516Y12395D01*
G01X26516Y12654D01*
G01X26465Y12809D01*
G01X26411Y12913D01*
G01X26307Y13017D01*
G01X26203Y13068D01*
G01X25995Y13068D01*
G01X25893Y13017D01*
G01X25789Y12913D01*
G01X25736Y12809D01*
G01X24717Y12342D02*
G01X24771Y12496D01*
G01X24875Y12601D01*
G01X25030Y12654D01*
G01X25080Y12654D01*
G01X25238Y12601D01*
G01X25342Y12496D01*
G01X25393Y12342D01*
G01X25393Y12291D01*
G01X25342Y12133D01*
G01X25238Y12029D01*
G01X25080Y11978D01*
G01X25030Y11978D01*
G01X24875Y12029D01*
G01X24771Y12133D01*
G01X24717Y12342D01*
G01X24717Y12601D01*
G01X24771Y12862D01*
G01X24875Y13017D01*
G01X25030Y13068D01*
G01X25134Y13068D01*
G01X25289Y13017D01*
G01X25342Y12913D01*
G01X27168Y18471D02*
G01X27115Y18575D01*
G01X27011Y18679D01*
G01X26909Y18730D01*
G01X26701Y18730D01*
G01X26597Y18679D01*
G01X26493Y18575D01*
G01X26439Y18471D01*
G01X26389Y18313D01*
G01X26389Y18054D01*
G01X26439Y17899D01*
G01X26493Y17795D01*
G01X26597Y17691D01*
G01X26701Y17640D01*
G01X26909Y17640D01*
G01X27011Y17691D01*
G01X27115Y17795D01*
G01X27168Y17899D01*
G01X27770Y18730D02*
G01X27615Y18679D01*
G01X27562Y18575D01*
G01X27562Y18471D01*
G01X27615Y18366D01*
G01X27719Y18313D01*
G01X27925Y18262D01*
G01X28083Y18211D01*
G01X28187Y18107D01*
G01X28238Y18003D01*
G01X28238Y17846D01*
G01X28187Y17742D01*
G01X28134Y17691D01*
G01X27979Y17640D01*
G01X27770Y17640D01*
G01X27615Y17691D01*
G01X27562Y17742D01*
G01X27511Y17846D01*
G01X27511Y18003D01*
G01X27562Y18107D01*
G01X27666Y18211D01*
G01X27824Y18262D01*
G01X28029Y18313D01*
G01X28134Y18366D01*
G01X28187Y18471D01*
G01X28187Y18575D01*
G01X28134Y18679D01*
G01X27979Y18730D01*
G01X27770Y18730D01*
G01X22462Y9194D02*
G01X21372Y9194D01*
G01X22462Y9194D02*
G01X22462Y8727D01*
G01X22411Y8572D01*
G01X22358Y8519D01*
G01X22253Y8468D01*
G01X22149Y8468D01*
G01X22045Y8519D01*
G01X21994Y8572D01*
G01X21944Y8727D01*
G01X21944Y9194D01*
G01X21944Y8831D02*
G01X21372Y8468D01*
G01X22253Y8125D02*
G01X22307Y8021D01*
G01X22462Y7864D01*
G01X21372Y7864D01*
G01X22307Y6898D02*
G01X22411Y6949D01*
G01X22462Y7107D01*
G01X22462Y7211D01*
G01X22411Y7366D01*
G01X22253Y7470D01*
G01X21994Y7521D01*
G01X21735Y7521D01*
G01X21527Y7470D01*
G01X21423Y7366D01*
G01X21372Y7211D01*
G01X21372Y7157D01*
G01X21423Y7002D01*
G01X21527Y6898D01*
G01X21682Y6845D01*
G01X21735Y6845D01*
G01X21890Y6898D01*
G01X21994Y7002D01*
G01X22045Y7157D01*
G01X22045Y7211D01*
G01X21994Y7366D01*
G01X21890Y7470D01*
G01X21735Y7521D01*
G01X22423Y13617D02*
G01X21333Y13617D01*
G01X21333Y13617D02*
G01X21333Y12995D01*
G01X22423Y12652D02*
G01X21333Y12652D01*
G01X22423Y12652D02*
G01X22423Y11977D01*
G01X21904Y12652D02*
G01X21904Y12236D01*
G01X21333Y12652D02*
G01X21333Y11977D01*
G01X22423Y11634D02*
G01X21333Y11634D01*
G01X22423Y11634D02*
G01X22423Y11268D01*
G01X22372Y11113D01*
G01X22268Y11009D01*
G01X22164Y10958D01*
G01X22009Y10905D01*
G01X21750Y10905D01*
G01X21592Y10958D01*
G01X21488Y11009D01*
G01X21384Y11113D01*
G01X21333Y11268D01*
G01X21333Y11634D01*
G01X22423Y10458D02*
G01X22423Y9886D01*
G01X22009Y10199D01*
G01X22009Y10044D01*
G01X21955Y9940D01*
G01X21904Y9886D01*
G01X21750Y9835D01*
G01X21645Y9835D01*
G01X21488Y9886D01*
G01X21384Y9990D01*
G01X21333Y10148D01*
G01X21333Y10303D01*
G01X21384Y10458D01*
G01X21437Y10511D01*
G01X21541Y10562D01*
G01X38648Y9974D02*
G01X39740Y9974D01*
G01X39740Y9974D02*
G01X39740Y10597D01*
G01X38648Y10940D02*
G01X39740Y10940D01*
G01X38648Y10940D02*
G01X38648Y11615D01*
G01X39169Y10940D02*
G01X39169Y11356D01*
G01X39740Y10940D02*
G01X39740Y11615D01*
G01X38648Y11958D02*
G01X39740Y11958D01*
G01X38648Y11958D02*
G01X38648Y12321D01*
G01X38701Y12479D01*
G01X38803Y12583D01*
G01X38907Y12634D01*
G01X39064Y12685D01*
G01X39324Y12685D01*
G01X39478Y12634D01*
G01X39583Y12583D01*
G01X39687Y12479D01*
G01X39740Y12321D01*
G01X39740Y11958D01*
G01X38648Y13548D02*
G01X39374Y13027D01*
G01X39374Y13807D01*
G01X38648Y13548D02*
G01X39740Y13548D01*
G01X27379Y3609D02*
G01X27379Y4389D01*
G01X27328Y4544D01*
G01X27224Y4648D01*
G01X27067Y4699D01*
G01X26963Y4699D01*
G01X26808Y4648D01*
G01X26704Y4544D01*
G01X26653Y4389D01*
G01X26653Y3609D01*
G01X25634Y3973D02*
G01X25685Y4128D01*
G01X25789Y4232D01*
G01X25944Y4285D01*
G01X25997Y4285D01*
G01X26152Y4232D01*
G01X26256Y4128D01*
G01X26310Y3973D01*
G01X26310Y3922D01*
G01X26256Y3764D01*
G01X26152Y3660D01*
G01X25997Y3609D01*
G01X25944Y3609D01*
G01X25789Y3660D01*
G01X25685Y3764D01*
G01X25634Y3973D01*
G01X25634Y4232D01*
G01X25685Y4493D01*
G01X25789Y4648D01*
G01X25944Y4699D01*
G01X26048Y4699D01*
G01X26206Y4648D01*
G01X26256Y4544D01*
G01X59751Y39542D02*
G01X59751Y38450D01*
G01X59751Y39542D02*
G01X60219Y39542D01*
G01X60374Y39489D01*
G01X60427Y39438D01*
G01X60478Y39334D01*
G01X60478Y39230D01*
G01X60427Y39126D01*
G01X60374Y39075D01*
G01X60219Y39022D01*
G01X59751Y39022D01*
G01X60115Y39022D02*
G01X60478Y38450D01*
G01X60821Y39334D02*
G01X60925Y39387D01*
G01X61080Y39542D01*
G01X61080Y38450D01*
G01X54048Y35457D02*
G01X54048Y36549D01*
G01X54048Y35457D02*
G01X53580Y35457D01*
G01X53425Y35510D01*
G01X53372Y35561D01*
G01X53321Y35665D01*
G01X53321Y35769D01*
G01X53372Y35873D01*
G01X53425Y35924D01*
G01X53580Y35978D01*
G01X54048Y35978D01*
G01X53684Y35978D02*
G01X53321Y36549D01*
G01X52925Y35716D02*
G01X52925Y35665D01*
G01X52874Y35561D01*
G01X52823Y35510D01*
G01X52719Y35457D01*
G01X52511Y35457D01*
G01X52407Y35510D01*
G01X52353Y35561D01*
G01X52303Y35665D01*
G01X52303Y35769D01*
G01X52353Y35873D01*
G01X52458Y36028D01*
G01X52978Y36549D01*
G01X52252Y36549D01*
G01X75206Y16974D02*
G01X75206Y18064D01*
G01X75206Y16974D02*
G01X74738Y16974D01*
G01X74581Y17025D01*
G01X74530Y17078D01*
G01X74477Y17183D01*
G01X74477Y17287D01*
G01X74530Y17391D01*
G01X74581Y17442D01*
G01X74738Y17493D01*
G01X75206Y17493D01*
G01X74843Y17493D02*
G01X74477Y18064D01*
G01X73616Y16974D02*
G01X74134Y17701D01*
G01X73357Y17701D01*
G01X73616Y16974D02*
G01X73616Y18064D01*
G01X75079Y27515D02*
G01X75079Y28605D01*
G01X75079Y27515D02*
G01X74611Y27515D01*
G01X74454Y27566D01*
G01X74403Y27619D01*
G01X74350Y27724D01*
G01X74350Y27828D01*
G01X74403Y27932D01*
G01X74454Y27983D01*
G01X74611Y28034D01*
G01X75079Y28034D01*
G01X74716Y28034D02*
G01X74350Y28605D01*
G01X73385Y27515D02*
G01X73905Y27515D01*
G01X73956Y27983D01*
G01X73905Y27932D01*
G01X73748Y27879D01*
G01X73593Y27879D01*
G01X73435Y27932D01*
G01X73334Y28034D01*
G01X73281Y28191D01*
G01X73281Y28295D01*
G01X73334Y28450D01*
G01X73435Y28554D01*
G01X73593Y28605D01*
G01X73748Y28605D01*
G01X73905Y28554D01*
G01X73956Y28503D01*
G01X74007Y28399D01*
G01X75206Y38183D02*
G01X75206Y39273D01*
G01X75206Y38183D02*
G01X74739Y38183D01*
G01X74582Y38234D01*
G01X74531Y38287D01*
G01X74477Y38392D01*
G01X74477Y38496D01*
G01X74531Y38600D01*
G01X74582Y38651D01*
G01X74739Y38702D01*
G01X75206Y38702D01*
G01X74843Y38702D02*
G01X74477Y39273D01*
G01X74134Y38392D02*
G01X74030Y38338D01*
G01X73875Y38183D01*
G01X73875Y39273D01*
G01X73014Y38183D02*
G01X73532Y38910D01*
G01X72753Y38910D01*
G01X73014Y38183D02*
G01X73014Y39273D01*
G01X75079Y48597D02*
G01X75079Y49687D01*
G01X75079Y48597D02*
G01X74611Y48597D01*
G01X74454Y48648D01*
G01X74403Y48701D01*
G01X74350Y48806D01*
G01X74350Y48910D01*
G01X74403Y49014D01*
G01X74454Y49065D01*
G01X74611Y49116D01*
G01X75079Y49116D01*
G01X74716Y49116D02*
G01X74350Y49687D01*
G01X74007Y48806D02*
G01X73905Y48752D01*
G01X73748Y48597D01*
G01X73748Y49687D01*
G01X72783Y48597D02*
G01X73301Y48597D01*
G01X73354Y49065D01*
G01X73301Y49014D01*
G01X73146Y48961D01*
G01X72991Y48961D01*
G01X72833Y49014D01*
G01X72729Y49116D01*
G01X72679Y49273D01*
G01X72679Y49377D01*
G01X72729Y49532D01*
G01X72833Y49636D01*
G01X72991Y49687D01*
G01X73146Y49687D01*
G01X73301Y49636D01*
G01X73354Y49585D01*
G01X73405Y49481D01*
G01X33744Y20629D02*
G01X33744Y19850D01*
G01X33795Y19695D01*
G01X33899Y19591D01*
G01X34054Y19540D01*
G01X34158Y19540D01*
G01X34316Y19591D01*
G01X34420Y19695D01*
G01X34471Y19850D01*
G01X34471Y20629D01*
G01X35439Y20474D02*
G01X35385Y20579D01*
G01X35230Y20629D01*
G01X35126Y20629D01*
G01X34969Y20579D01*
G01X34867Y20421D01*
G01X34814Y20162D01*
G01X34814Y19903D01*
G01X34867Y19695D01*
G01X34969Y19591D01*
G01X35126Y19540D01*
G01X35177Y19540D01*
G01X35334Y19591D01*
G01X35439Y19695D01*
G01X35489Y19850D01*
G01X35489Y19903D01*
G01X35439Y20058D01*
G01X35334Y20162D01*
G01X35177Y20215D01*
G01X35126Y20215D01*
G01X34969Y20162D01*
G01X34867Y20058D01*
G01X34814Y19903D01*
G01X16387Y14646D02*
G01X16491Y14697D01*
G01X16595Y14801D01*
G01X16649Y14906D01*
G01X16699Y15060D01*
G01X16699Y15322D01*
G01X16649Y15477D01*
G01X16595Y15581D01*
G01X16491Y15685D01*
G01X16387Y15736D01*
G01X16179Y15736D01*
G01X16077Y15685D01*
G01X15973Y15581D01*
G01X15920Y15477D01*
G01X15869Y15322D01*
G01X15869Y15060D01*
G01X15920Y14906D01*
G01X15973Y14801D01*
G01X16077Y14697D01*
G01X16179Y14646D01*
G01X16387Y14646D01*
G01X16232Y15530D02*
G01X15920Y15840D01*
G01X14850Y15010D02*
G01X14901Y15165D01*
G01X15005Y15269D01*
G01X15163Y15322D01*
G01X15214Y15322D01*
G01X15369Y15269D01*
G01X15473Y15165D01*
G01X15526Y15010D01*
G01X15526Y14959D01*
G01X15473Y14801D01*
G01X15369Y14697D01*
G01X15214Y14646D01*
G01X15163Y14646D01*
G01X15005Y14697D01*
G01X14901Y14801D01*
G01X14850Y15010D01*
G01X14850Y15269D01*
G01X14901Y15530D01*
G01X15005Y15685D01*
G01X15163Y15736D01*
G01X15264Y15736D01*
G01X15422Y15685D01*
G01X15473Y15581D01*
G01X17347Y36612D02*
G01X17398Y36508D01*
G01X17502Y36404D01*
G01X17606Y36351D01*
G01X17761Y36300D01*
G01X18023Y36300D01*
G01X18178Y36351D01*
G01X18282Y36404D01*
G01X18386Y36508D01*
G01X18437Y36612D01*
G01X18437Y36818D01*
G01X18386Y36922D01*
G01X18282Y37026D01*
G01X18178Y37080D01*
G01X18023Y37130D01*
G01X17761Y37130D01*
G01X17606Y37080D01*
G01X17502Y37026D01*
G01X17398Y36922D01*
G01X17347Y36818D01*
G01X17347Y36612D01*
G01X18228Y36767D02*
G01X18541Y37080D01*
G01X17347Y37732D02*
G01X17398Y37577D01*
G01X17502Y37527D01*
G01X17606Y37527D01*
G01X17710Y37577D01*
G01X17761Y37682D01*
G01X17814Y37890D01*
G01X17865Y38045D01*
G01X17969Y38149D01*
G01X18074Y38202D01*
G01X18228Y38202D01*
G01X18333Y38149D01*
G01X18386Y38098D01*
G01X18437Y37941D01*
G01X18437Y37732D01*
G01X18386Y37577D01*
G01X18333Y37527D01*
G01X18228Y37473D01*
G01X18074Y37473D01*
G01X17969Y37527D01*
G01X17865Y37631D01*
G01X17814Y37786D01*
G01X17761Y37994D01*
G01X17710Y38098D01*
G01X17606Y38149D01*
G01X17502Y38149D01*
G01X17398Y38098D01*
G01X17347Y37941D01*
G01X17347Y37732D01*
G01X16089Y18645D02*
G01X16193Y18699D01*
G01X16294Y18803D01*
G01X16348Y18907D01*
G01X16398Y19062D01*
G01X16398Y19321D01*
G01X16348Y19478D01*
G01X16294Y19580D01*
G01X16193Y19684D01*
G01X16089Y19737D01*
G01X15880Y19737D01*
G01X15776Y19684D01*
G01X15672Y19580D01*
G01X15621Y19478D01*
G01X15568Y19321D01*
G01X15568Y19062D01*
G01X15621Y18907D01*
G01X15672Y18803D01*
G01X15776Y18699D01*
G01X15880Y18645D01*
G01X16089Y18645D01*
G01X15931Y19529D02*
G01X15621Y19842D01*
G01X15225Y18853D02*
G01X15121Y18803D01*
G01X14966Y18645D01*
G01X14966Y19737D01*
G01X25446Y36510D02*
G01X25499Y36406D01*
G01X25603Y36305D01*
G01X25707Y36251D01*
G01X25862Y36201D01*
G01X26121Y36201D01*
G01X26279Y36251D01*
G01X26380Y36305D01*
G01X26484Y36406D01*
G01X26538Y36510D01*
G01X26538Y36719D01*
G01X26484Y36823D01*
G01X26380Y36927D01*
G01X26279Y36978D01*
G01X26121Y37031D01*
G01X25862Y37031D01*
G01X25707Y36978D01*
G01X25603Y36927D01*
G01X25499Y36823D01*
G01X25446Y36719D01*
G01X25446Y36510D01*
G01X26329Y36668D02*
G01X26642Y36978D01*
G01X25603Y37996D02*
G01X25499Y37946D01*
G01X25446Y37791D01*
G01X25446Y37686D01*
G01X25499Y37529D01*
G01X25654Y37425D01*
G01X25913Y37374D01*
G01X26175Y37374D01*
G01X26380Y37425D01*
G01X26484Y37529D01*
G01X26538Y37686D01*
G01X26538Y37737D01*
G01X26484Y37892D01*
G01X26380Y37996D01*
G01X26225Y38050D01*
G01X26175Y38050D01*
G01X26017Y37996D01*
G01X25913Y37892D01*
G01X25862Y37737D01*
G01X25862Y37686D01*
G01X25913Y37529D01*
G01X26017Y37425D01*
G01X26175Y37374D01*
G01X21347Y36611D02*
G01X21398Y36507D01*
G01X21502Y36405D01*
G01X21606Y36352D01*
G01X21761Y36301D01*
G01X22023Y36301D01*
G01X22178Y36352D01*
G01X22282Y36405D01*
G01X22386Y36507D01*
G01X22437Y36611D01*
G01X22437Y36819D01*
G01X22386Y36924D01*
G01X22282Y37028D01*
G01X22178Y37078D01*
G01X22023Y37132D01*
G01X21761Y37132D01*
G01X21606Y37078D01*
G01X21502Y37028D01*
G01X21398Y36924D01*
G01X21347Y36819D01*
G01X21347Y36611D01*
G01X22229Y36769D02*
G01X22541Y37078D01*
G01X21347Y38097D02*
G01X21347Y37579D01*
G01X21815Y37526D01*
G01X21761Y37579D01*
G01X21711Y37734D01*
G01X21711Y37891D01*
G01X21761Y38046D01*
G01X21866Y38150D01*
G01X22023Y38201D01*
G01X22127Y38201D01*
G01X22282Y38150D01*
G01X22386Y38046D01*
G01X22437Y37891D01*
G01X22437Y37734D01*
G01X22386Y37579D01*
G01X22333Y37526D01*
G01X22229Y37475D01*
G01X16388Y30546D02*
G01X16492Y30599D01*
G01X16597Y30701D01*
G01X16647Y30805D01*
G01X16698Y30962D01*
G01X16698Y31222D01*
G01X16647Y31376D01*
G01X16597Y31481D01*
G01X16492Y31585D01*
G01X16388Y31638D01*
G01X16180Y31638D01*
G01X16076Y31585D01*
G01X15972Y31481D01*
G01X15921Y31376D01*
G01X15868Y31222D01*
G01X15868Y30962D01*
G01X15921Y30805D01*
G01X15972Y30701D01*
G01X16076Y30599D01*
G01X16180Y30546D01*
G01X16388Y30546D01*
G01X16231Y31430D02*
G01X15921Y31742D01*
G01X15007Y30546D02*
G01X15525Y31272D01*
G01X14745Y31272D01*
G01X15007Y30546D02*
G01X15007Y31638D01*
G01X16487Y26745D02*
G01X16591Y26799D01*
G01X16695Y26903D01*
G01X16746Y27005D01*
G01X16800Y27162D01*
G01X16800Y27421D01*
G01X16746Y27576D01*
G01X16695Y27680D01*
G01X16591Y27784D01*
G01X16487Y27838D01*
G01X16279Y27838D01*
G01X16175Y27784D01*
G01X16073Y27680D01*
G01X16020Y27576D01*
G01X15969Y27421D01*
G01X15969Y27162D01*
G01X16020Y27005D01*
G01X16073Y26903D01*
G01X16175Y26799D01*
G01X16279Y26745D01*
G01X16487Y26745D01*
G01X16332Y27629D02*
G01X16020Y27942D01*
G01X15522Y26745D02*
G01X14950Y26745D01*
G01X15260Y27162D01*
G01X15105Y27162D01*
G01X15001Y27213D01*
G01X14950Y27266D01*
G01X14897Y27421D01*
G01X14897Y27525D01*
G01X14950Y27680D01*
G01X15055Y27784D01*
G01X15210Y27838D01*
G01X15364Y27838D01*
G01X15522Y27784D01*
G01X15573Y27734D01*
G01X15626Y27629D01*
G01X16588Y34647D02*
G01X16692Y34698D01*
G01X16796Y34802D01*
G01X16847Y34906D01*
G01X16900Y35061D01*
G01X16900Y35323D01*
G01X16847Y35477D01*
G01X16796Y35582D01*
G01X16692Y35686D01*
G01X16588Y35737D01*
G01X16380Y35737D01*
G01X16275Y35686D01*
G01X16171Y35582D01*
G01X16120Y35477D01*
G01X16067Y35323D01*
G01X16067Y35061D01*
G01X16120Y34906D01*
G01X16171Y34802D01*
G01X16275Y34698D01*
G01X16380Y34647D01*
G01X16588Y34647D01*
G01X16433Y35528D02*
G01X16120Y35841D01*
G01X15673Y34906D02*
G01X15673Y34855D01*
G01X15623Y34751D01*
G01X15569Y34698D01*
G01X15465Y34647D01*
G01X15257Y34647D01*
G01X15153Y34698D01*
G01X15102Y34751D01*
G01X15051Y34855D01*
G01X15051Y34957D01*
G01X15102Y35061D01*
G01X15206Y35218D01*
G01X15724Y35737D01*
G01X14998Y35737D01*
G01X16389Y22945D02*
G01X16490Y22999D01*
G01X16595Y23103D01*
G01X16648Y23207D01*
G01X16699Y23362D01*
G01X16699Y23621D01*
G01X16648Y23778D01*
G01X16595Y23880D01*
G01X16490Y23984D01*
G01X16389Y24037D01*
G01X16181Y24037D01*
G01X16076Y23984D01*
G01X15972Y23880D01*
G01X15919Y23778D01*
G01X15868Y23621D01*
G01X15868Y23362D01*
G01X15919Y23207D01*
G01X15972Y23103D01*
G01X16076Y22999D01*
G01X16181Y22945D01*
G01X16389Y22945D01*
G01X16231Y23829D02*
G01X15919Y24142D01*
G01X14799Y22945D02*
G01X15317Y24037D01*
G01X15525Y22945D02*
G01X14799Y22945D01*
G54D50*
G75*
G01X37400Y26850D02*
G03X37398Y26850I-1J150D01*
G01*
G54D10*
G75*
G01X21312Y48660D02*
G02X21820Y49168I508J0D01*
G01*
G75*
G01X21820Y46755D02*
G02X21312Y47263I0J508D01*
G01*
G75*
G01X32615Y47263D02*
G02X32107Y46755I-508J0D01*
G01*
G75*
G01X31980Y49168D02*
G02X32615Y48533I0J-635D01*
G01*
G75*
G01X31980Y52597D02*
G02X33123Y53740I1143J0D01*
G01*
G75*
G01X31345Y51962D02*
G03X31980Y52597I0J635D01*
G01*
G75*
G01X21439Y52470D02*
G03X21947Y51962I508J0D01*
G01*
G75*
G01X20550Y53740D02*
G02X21439Y52851I0J-889D01*
G01*
G54D14*
G75*
G01X55512Y11476D02*
G03X55512Y11479I200J1D01*
G01*
G54D10*
G75*
G01X77722Y6716D02*
G03X77722Y6716I-625J0D01*
G01*
G75*
G01X72884Y35394D02*
G03X72884Y35394I-1750J0D01*
G01*
G75*
G01X71884Y35394D02*
G03X71884Y35394I-749J0D01*
G01*
G75*
G01X72884Y24811D02*
G03X72884Y24811I-1750J0D01*
G01*
G75*
G01X71884Y24811D02*
G03X71884Y24811I-749J0D01*
G01*
G75*
G01X72884Y14227D02*
G03X72884Y14227I-1750J0D01*
G01*
G75*
G01X71884Y14227D02*
G03X71884Y14227I-749J0D01*
G01*
G75*
G01X72884Y45977D02*
G03X72884Y45977I-1750J0D01*
G01*
G75*
G01X71884Y45977D02*
G03X71884Y45977I-749J0D01*
G01*
M00*
M02*
