G04 Layer: BottomLayer*
G04 EasyEDA v6.3.43, 2020-05-10T20:22:00+02:00*
G04 8efef6a7772f454f874d1fefd099d7f4,c718b20e53f548e3abf3144c64a63f4f,10*
G04 Gerber Generator version 0.2*
G04 Scale: 100 percent, Rotated: No, Reflected: No *
G04 Dimensions in millimeters *
G04 leading zeros omitted , absolute positions ,3 integer and 3 decimal *
%FSLAX33Y33*%
%MOMM*%
G90*
G71D02*

%ADD10C,0.254000*%
%ADD11C,0.499999*%
%ADD12C,0.999998*%
%ADD13C,0.259994*%
%ADD14C,0.399999*%
%ADD16C,0.599999*%
%ADD17C,0.610006*%
%ADD18C,0.609600*%
%ADD35C,1.524000*%
%ADD36C,1.498600*%
%ADD37R,1.498600X1.498600*%
%ADD38R,1.414780X1.414780*%
%ADD39C,1.999996*%

%LPD*%
G36*
G01X59623Y24092D02*
G01X59622Y24092D01*
G01X47800Y24000D01*
G01X47786Y23999D01*
G01X47772Y23996D01*
G01X47759Y23991D01*
G01X47746Y23984D01*
G01X47734Y23975D01*
G01X47724Y23965D01*
G01X47716Y23953D01*
G01X47709Y23941D01*
G01X47704Y23927D01*
G01X47701Y23913D01*
G01X47700Y23899D01*
G01X47700Y21599D01*
G01X40863Y21532D01*
G01X40849Y21531D01*
G01X40835Y21528D01*
G01X40821Y21523D01*
G01X40809Y21516D01*
G01X40797Y21507D01*
G01X40787Y21497D01*
G01X40778Y21485D01*
G01X40772Y21473D01*
G01X40767Y21459D01*
G01X40764Y21445D01*
G01X40763Y21431D01*
G01X40763Y17433D01*
G01X40764Y17418D01*
G01X40768Y17402D01*
G01X40774Y17387D01*
G01X40782Y17374D01*
G01X40792Y17362D01*
G01X41862Y16292D01*
G01X41873Y16282D01*
G01X41885Y16275D01*
G01X41898Y16269D01*
G01X41912Y16264D01*
G01X41955Y16253D01*
G01X41997Y16239D01*
G01X42038Y16221D01*
G01X42052Y16215D01*
G01X42067Y16212D01*
G01X42082Y16211D01*
G01X42098Y16212D01*
G01X42112Y16215D01*
G01X42127Y16221D01*
G01X42160Y16236D01*
G01X42194Y16249D01*
G01X42229Y16259D01*
G01X42264Y16267D01*
G01X42300Y16273D01*
G01X42337Y16277D01*
G01X42373Y16278D01*
G01X42407Y16277D01*
G01X42441Y16274D01*
G01X42474Y16269D01*
G01X42507Y16262D01*
G01X42540Y16252D01*
G01X42572Y16241D01*
G01X42603Y16228D01*
G01X42634Y16214D01*
G01X42663Y16197D01*
G01X42692Y16179D01*
G01X42719Y16158D01*
G01X42745Y16137D01*
G01X42770Y16113D01*
G01X42793Y16089D01*
G01X42815Y16063D01*
G01X42835Y16035D01*
G01X42853Y16007D01*
G01X42870Y15977D01*
G01X42885Y15947D01*
G01X42898Y15916D01*
G01X42909Y15884D01*
G01X42918Y15851D01*
G01X42925Y15818D01*
G01X42930Y15784D01*
G01X42933Y15750D01*
G01X42934Y15717D01*
G01X42933Y15683D01*
G01X42930Y15649D01*
G01X42925Y15615D01*
G01X42918Y15582D01*
G01X42909Y15550D01*
G01X42898Y15517D01*
G01X42885Y15486D01*
G01X42870Y15456D01*
G01X42853Y15426D01*
G01X42835Y15398D01*
G01X42815Y15370D01*
G01X42793Y15344D01*
G01X42770Y15320D01*
G01X42745Y15296D01*
G01X42719Y15275D01*
G01X42692Y15255D01*
G01X42663Y15236D01*
G01X42634Y15219D01*
G01X42603Y15205D01*
G01X42572Y15192D01*
G01X42540Y15181D01*
G01X42507Y15172D01*
G01X42474Y15164D01*
G01X42441Y15159D01*
G01X42407Y15156D01*
G01X42373Y15155D01*
G01X42337Y15156D01*
G01X42301Y15160D01*
G01X42265Y15166D01*
G01X42230Y15174D01*
G01X42195Y15184D01*
G01X42161Y15197D01*
G01X42128Y15212D01*
G01X42113Y15217D01*
G01X42099Y15221D01*
G01X42083Y15222D01*
G01X42068Y15221D01*
G01X42053Y15217D01*
G01X42039Y15212D01*
G01X42005Y15197D01*
G01X41971Y15184D01*
G01X41936Y15173D01*
G01X41901Y15165D01*
G01X41865Y15159D01*
G01X41829Y15156D01*
G01X41792Y15155D01*
G01X41758Y15156D01*
G01X41723Y15159D01*
G01X41689Y15164D01*
G01X41655Y15172D01*
G01X41622Y15181D01*
G01X41590Y15193D01*
G01X41558Y15206D01*
G01X41527Y15221D01*
G01X41497Y15239D01*
G01X41468Y15258D01*
G01X41441Y15279D01*
G01X41414Y15301D01*
G01X41389Y15325D01*
G01X41366Y15351D01*
G01X41344Y15378D01*
G01X41324Y15406D01*
G01X41306Y15435D01*
G01X41290Y15466D01*
G01X41275Y15497D01*
G01X41263Y15529D01*
G01X41253Y15562D01*
G01X41244Y15596D01*
G01X41240Y15610D01*
G01X41234Y15623D01*
G01X41226Y15635D01*
G01X41217Y15646D01*
G01X39983Y16879D01*
G01X39961Y16903D01*
G01X39941Y16929D01*
G01X39922Y16955D01*
G01X39905Y16983D01*
G01X39891Y17013D01*
G01X39878Y17043D01*
G01X39868Y17074D01*
G01X39860Y17105D01*
G01X39854Y17137D01*
G01X39851Y17170D01*
G01X39849Y17202D01*
G01X39849Y21420D01*
G01X39848Y21434D01*
G01X39845Y21448D01*
G01X39840Y21462D01*
G01X39833Y21475D01*
G01X39825Y21486D01*
G01X39814Y21496D01*
G01X39803Y21505D01*
G01X39790Y21512D01*
G01X39777Y21517D01*
G01X39762Y21520D01*
G01X39748Y21521D01*
G01X39747Y21521D01*
G01X17300Y21300D01*
G01X17286Y21299D01*
G01X17272Y21296D01*
G01X17258Y21291D01*
G01X17246Y21284D01*
G01X17234Y21275D01*
G01X17224Y21265D01*
G01X17215Y21254D01*
G01X17209Y21241D01*
G01X17204Y21227D01*
G01X17201Y21213D01*
G01X17200Y21199D01*
G01X17200Y358D01*
G01X17201Y343D01*
G01X17204Y329D01*
G01X17209Y315D01*
G01X17216Y303D01*
G01X17224Y291D01*
G01X17235Y281D01*
G01X17246Y272D01*
G01X17259Y265D01*
G01X17273Y260D01*
G01X17287Y257D01*
G01X17301Y256D01*
G01X63439Y256D01*
G01X63453Y257D01*
G01X63467Y260D01*
G01X63481Y265D01*
G01X63494Y272D01*
G01X63505Y281D01*
G01X63516Y291D01*
G01X63524Y303D01*
G01X63531Y315D01*
G01X63536Y329D01*
G01X63539Y343D01*
G01X63540Y358D01*
G01X63540Y11974D01*
G01X63539Y11989D01*
G01X63535Y12005D01*
G01X63529Y12020D01*
G01X63521Y12033D01*
G01X63511Y12045D01*
G01X62828Y12728D01*
G01X62808Y12750D01*
G01X62789Y12774D01*
G01X62772Y12799D01*
G01X62757Y12825D01*
G01X62745Y12852D01*
G01X62734Y12881D01*
G01X62726Y12910D01*
G01X62720Y12939D01*
G01X62717Y12969D01*
G01X62716Y12999D01*
G01X62716Y20346D01*
G01X62715Y20360D01*
G01X62711Y20375D01*
G01X62706Y20388D01*
G01X62699Y20401D01*
G01X62691Y20412D01*
G01X62681Y20423D01*
G01X62669Y20431D01*
G01X62656Y20438D01*
G01X62643Y20443D01*
G01X62628Y20447D01*
G01X62614Y20448D01*
G01X62599Y20446D01*
G01X62585Y20443D01*
G01X62571Y20438D01*
G01X62558Y20431D01*
G01X62546Y20422D01*
G01X62536Y20411D01*
G01X62527Y20399D01*
G01X62511Y20374D01*
G01X62492Y20350D01*
G01X62471Y20328D01*
G01X62113Y19969D01*
G01X62103Y19957D01*
G01X62094Y19944D01*
G01X62088Y19929D01*
G01X62084Y19913D01*
G01X62083Y19898D01*
G01X62083Y12401D01*
G01X62084Y12385D01*
G01X62088Y12369D01*
G01X62094Y12354D01*
G01X62103Y12341D01*
G01X62113Y12329D01*
G01X62353Y12090D01*
G01X62364Y12080D01*
G01X62377Y12072D01*
G01X62391Y12066D01*
G01X62406Y12062D01*
G01X62421Y12060D01*
G01X62455Y12058D01*
G01X62489Y12054D01*
G01X62523Y12047D01*
G01X62556Y12038D01*
G01X62589Y12028D01*
G01X62621Y12015D01*
G01X62652Y12001D01*
G01X62683Y11984D01*
G01X62712Y11966D01*
G01X62740Y11946D01*
G01X62766Y11924D01*
G01X62792Y11901D01*
G01X62816Y11876D01*
G01X62838Y11850D01*
G01X62859Y11823D01*
G01X62878Y11794D01*
G01X62895Y11764D01*
G01X62910Y11733D01*
G01X62923Y11701D01*
G01X62935Y11669D01*
G01X62944Y11636D01*
G01X62952Y11602D01*
G01X62957Y11568D01*
G01X62960Y11534D01*
G01X62961Y11499D01*
G01X62960Y11465D01*
G01X62957Y11432D01*
G01X62952Y11398D01*
G01X62945Y11365D01*
G01X62936Y11332D01*
G01X62925Y11300D01*
G01X62912Y11269D01*
G01X62897Y11239D01*
G01X62880Y11209D01*
G01X62862Y11181D01*
G01X62842Y11153D01*
G01X62820Y11127D01*
G01X62797Y11102D01*
G01X62772Y11079D01*
G01X62746Y11057D01*
G01X62719Y11037D01*
G01X62690Y11019D01*
G01X62661Y11002D01*
G01X62630Y10987D01*
G01X62599Y10975D01*
G01X62567Y10963D01*
G01X62534Y10954D01*
G01X62501Y10947D01*
G01X62467Y10942D01*
G01X62434Y10939D01*
G01X62400Y10938D01*
G01X62365Y10939D01*
G01X62331Y10942D01*
G01X62297Y10948D01*
G01X62263Y10955D01*
G01X62230Y10964D01*
G01X62197Y10976D01*
G01X62165Y10989D01*
G01X62135Y11005D01*
G01X62105Y11022D01*
G01X62076Y11041D01*
G01X62048Y11062D01*
G01X62022Y11084D01*
G01X61997Y11108D01*
G01X61974Y11133D01*
G01X61952Y11160D01*
G01X61932Y11188D01*
G01X61914Y11218D01*
G01X61898Y11248D01*
G01X61883Y11279D01*
G01X61871Y11312D01*
G01X61860Y11344D01*
G01X61852Y11378D01*
G01X61845Y11412D01*
G01X61841Y11446D01*
G01X61839Y11480D01*
G01X61837Y11496D01*
G01X61833Y11510D01*
G01X61827Y11524D01*
G01X61819Y11537D01*
G01X61809Y11549D01*
G01X61429Y11927D01*
G01X61408Y11950D01*
G01X61390Y11973D01*
G01X61373Y11998D01*
G01X61358Y12025D01*
G01X61345Y12052D01*
G01X61335Y12080D01*
G01X61327Y12109D01*
G01X61321Y12139D01*
G01X61317Y12169D01*
G01X61316Y12199D01*
G01X61316Y20099D01*
G01X61317Y20129D01*
G01X61321Y20159D01*
G01X61327Y20188D01*
G01X61335Y20217D01*
G01X61345Y20245D01*
G01X61358Y20273D01*
G01X61373Y20299D01*
G01X61389Y20324D01*
G01X61408Y20348D01*
G01X61428Y20370D01*
G01X61787Y20728D01*
G01X61797Y20740D01*
G01X61805Y20754D01*
G01X61811Y20768D01*
G01X61815Y20784D01*
G01X61816Y20800D01*
G01X61816Y21898D01*
G01X61815Y21914D01*
G01X61811Y21930D01*
G01X61805Y21944D01*
G01X61797Y21958D01*
G01X61786Y21970D01*
G01X61027Y22728D01*
G01X61010Y22747D01*
G01X61005Y22751D01*
G01X59694Y24062D01*
G01X59682Y24073D01*
G01X59669Y24081D01*
G01X59654Y24087D01*
G01X59638Y24091D01*
G01X59623Y24092D01*
G37*

%LPC*%
G36*
G01X38279Y19384D02*
G01X38240Y19385D01*
G01X38200Y19384D01*
G01X38161Y19381D01*
G01X38121Y19376D01*
G01X38082Y19369D01*
G01X38044Y19360D01*
G01X38006Y19349D01*
G01X37969Y19335D01*
G01X37932Y19320D01*
G01X37896Y19303D01*
G01X37862Y19284D01*
G01X37828Y19264D01*
G01X37795Y19241D01*
G01X37764Y19217D01*
G01X37734Y19192D01*
G01X37705Y19164D01*
G01X37678Y19136D01*
G01X37652Y19106D01*
G01X37628Y19074D01*
G01X37605Y19042D01*
G01X37585Y19008D01*
G01X37566Y18973D01*
G01X37549Y18937D01*
G01X37534Y18901D01*
G01X37520Y18864D01*
G01X37509Y18826D01*
G01X37500Y18787D01*
G01X37492Y18748D01*
G01X37487Y18709D01*
G01X37484Y18670D01*
G01X37482Y18655D01*
G01X37478Y18640D01*
G01X37472Y18626D01*
G01X37463Y18613D01*
G01X37453Y18602D01*
G01X37441Y18592D01*
G01X37428Y18584D01*
G01X37414Y18579D01*
G01X37399Y18575D01*
G01X37384Y18574D01*
G01X35592Y18556D01*
G01X35552Y18555D01*
G01X35511Y18551D01*
G01X35471Y18545D01*
G01X35431Y18537D01*
G01X35392Y18527D01*
G01X35353Y18515D01*
G01X35315Y18501D01*
G01X35278Y18484D01*
G01X35242Y18466D01*
G01X35206Y18446D01*
G01X35172Y18424D01*
G01X35139Y18400D01*
G01X35108Y18374D01*
G01X35078Y18347D01*
G01X23191Y7025D01*
G01X23179Y7015D01*
G01X23166Y7007D01*
G01X23151Y7001D01*
G01X23136Y6998D01*
G01X23121Y6997D01*
G01X23104Y6998D01*
G01X23087Y7003D01*
G01X23046Y7016D01*
G01X23004Y7027D01*
G01X22962Y7035D01*
G01X22919Y7042D01*
G01X22876Y7045D01*
G01X22833Y7047D01*
G01X22793Y7045D01*
G01X22753Y7042D01*
G01X22714Y7037D01*
G01X22675Y7030D01*
G01X22637Y7021D01*
G01X22599Y7009D01*
G01X22561Y6996D01*
G01X22525Y6981D01*
G01X22489Y6964D01*
G01X22454Y6945D01*
G01X22421Y6924D01*
G01X22388Y6902D01*
G01X22356Y6878D01*
G01X22326Y6852D01*
G01X22298Y6825D01*
G01X22270Y6796D01*
G01X22245Y6766D01*
G01X22220Y6735D01*
G01X22198Y6702D01*
G01X22177Y6668D01*
G01X22158Y6633D01*
G01X22141Y6598D01*
G01X22126Y6561D01*
G01X22113Y6524D01*
G01X22102Y6486D01*
G01X22093Y6447D01*
G01X22085Y6408D01*
G01X22080Y6369D01*
G01X22077Y6330D01*
G01X22076Y6290D01*
G01X22076Y5638D01*
G01X22077Y5599D01*
G01X22080Y5559D01*
G01X22085Y5520D01*
G01X22093Y5481D01*
G01X22102Y5443D01*
G01X22113Y5405D01*
G01X22126Y5367D01*
G01X22141Y5331D01*
G01X22158Y5295D01*
G01X22177Y5260D01*
G01X22198Y5226D01*
G01X22220Y5194D01*
G01X22245Y5162D01*
G01X22270Y5132D01*
G01X22326Y5076D01*
G01X22356Y5051D01*
G01X22388Y5026D01*
G01X22420Y5004D01*
G01X22454Y4983D01*
G01X22489Y4964D01*
G01X22525Y4947D01*
G01X22561Y4932D01*
G01X22599Y4919D01*
G01X22637Y4908D01*
G01X22675Y4898D01*
G01X22714Y4891D01*
G01X22753Y4886D01*
G01X22793Y4883D01*
G01X22833Y4882D01*
G01X22874Y4883D01*
G01X22915Y4886D01*
G01X22956Y4892D01*
G01X22997Y4900D01*
G01X23037Y4910D01*
G01X23077Y4923D01*
G01X23116Y4937D01*
G01X23154Y4954D01*
G01X23191Y4972D01*
G01X23227Y4993D01*
G01X23262Y5015D01*
G01X23295Y5040D01*
G01X23327Y5066D01*
G01X23358Y5094D01*
G01X35876Y17018D01*
G01X35888Y17028D01*
G01X35901Y17036D01*
G01X35915Y17041D01*
G01X35930Y17045D01*
G01X35945Y17046D01*
G01X38247Y17069D01*
G01X38286Y17070D01*
G01X38326Y17074D01*
G01X38364Y17079D01*
G01X38403Y17087D01*
G01X38441Y17096D01*
G01X38479Y17108D01*
G01X38516Y17121D01*
G01X38552Y17137D01*
G01X38588Y17154D01*
G01X38622Y17173D01*
G01X38656Y17194D01*
G01X38688Y17216D01*
G01X38719Y17240D01*
G01X38749Y17266D01*
G01X38777Y17293D01*
G01X38804Y17322D01*
G01X38829Y17352D01*
G01X38853Y17383D01*
G01X38875Y17416D01*
G01X38896Y17449D01*
G01X38915Y17484D01*
G01X38931Y17520D01*
G01X38946Y17556D01*
G01X38959Y17593D01*
G01X38971Y17631D01*
G01X38980Y17669D01*
G01X38987Y17708D01*
G01X38992Y17747D01*
G01X38995Y17786D01*
G01X38996Y17825D01*
G01X38996Y18629D01*
G01X38995Y18669D01*
G01X38992Y18708D01*
G01X38987Y18747D01*
G01X38980Y18786D01*
G01X38970Y18825D01*
G01X38959Y18863D01*
G01X38946Y18900D01*
G01X38931Y18937D01*
G01X38914Y18972D01*
G01X38895Y19007D01*
G01X38874Y19041D01*
G01X38852Y19074D01*
G01X38827Y19105D01*
G01X38802Y19135D01*
G01X38774Y19164D01*
G01X38746Y19191D01*
G01X38716Y19217D01*
G01X38684Y19241D01*
G01X38652Y19263D01*
G01X38618Y19284D01*
G01X38583Y19303D01*
G01X38547Y19320D01*
G01X38511Y19335D01*
G01X38473Y19348D01*
G01X38435Y19360D01*
G01X38397Y19369D01*
G01X38358Y19376D01*
G01X38319Y19381D01*
G01X38279Y19384D01*
G37*
G36*
G01X57099Y22331D02*
G01X55699Y22331D01*
G01X55675Y22330D01*
G01X55651Y22327D01*
G01X55627Y22321D01*
G01X55604Y22313D01*
G01X55582Y22303D01*
G01X55560Y22290D01*
G01X55541Y22276D01*
G01X55522Y22260D01*
G01X55505Y22242D01*
G01X55490Y22223D01*
G01X55477Y22202D01*
G01X55469Y22190D01*
G01X55458Y22179D01*
G01X55447Y22170D01*
G01X55434Y22162D01*
G01X55420Y22156D01*
G01X55406Y22153D01*
G01X55372Y22146D01*
G01X55339Y22137D01*
G01X55307Y22127D01*
G01X55275Y22114D01*
G01X55244Y22099D01*
G01X55214Y22083D01*
G01X55185Y22064D01*
G01X55157Y22044D01*
G01X55131Y22023D01*
G01X55106Y21999D01*
G01X55082Y21975D01*
G01X55060Y21948D01*
G01X55039Y21921D01*
G01X55021Y21892D01*
G01X55004Y21863D01*
G01X54989Y21832D01*
G01X54975Y21800D01*
G01X54964Y21768D01*
G01X54955Y21735D01*
G01X54948Y21702D01*
G01X54942Y21668D01*
G01X54939Y21634D01*
G01X54938Y21599D01*
G01X54939Y21565D01*
G01X54942Y21531D01*
G01X54948Y21497D01*
G01X54955Y21463D01*
G01X54964Y21430D01*
G01X54976Y21398D01*
G01X54989Y21366D01*
G01X55004Y21336D01*
G01X55021Y21306D01*
G01X55040Y21277D01*
G01X55061Y21250D01*
G01X55083Y21223D01*
G01X55107Y21199D01*
G01X55132Y21175D01*
G01X55158Y21154D01*
G01X55186Y21134D01*
G01X55215Y21115D01*
G01X55245Y21099D01*
G01X55277Y21084D01*
G01X55308Y21072D01*
G01X55341Y21061D01*
G01X55360Y21053D01*
G01X55384Y21041D01*
G01X55397Y21034D01*
G01X55408Y21025D01*
G01X55418Y21015D01*
G01X55427Y21003D01*
G01X55434Y20991D01*
G01X55439Y20977D01*
G01X55442Y20963D01*
G01X55443Y20949D01*
G01X55443Y20925D01*
G01X55444Y20900D01*
G01X55448Y20875D01*
G01X55454Y20851D01*
G01X55462Y20828D01*
G01X55472Y20805D01*
G01X55485Y20784D01*
G01X55510Y20749D01*
G01X55517Y20733D01*
G01X55521Y20717D01*
G01X55522Y20700D01*
G01X55521Y20682D01*
G01X55517Y20666D01*
G01X55510Y20650D01*
G01X55500Y20636D01*
G01X55485Y20616D01*
G01X55472Y20594D01*
G01X55462Y20572D01*
G01X55454Y20548D01*
G01X55448Y20524D01*
G01X55444Y20499D01*
G01X55443Y20474D01*
G01X55443Y20250D01*
G01X55986Y20250D01*
G01X55986Y20567D01*
G01X55987Y20581D01*
G01X55990Y20595D01*
G01X55995Y20609D01*
G01X56002Y20621D01*
G01X56011Y20633D01*
G01X56021Y20643D01*
G01X56033Y20652D01*
G01X56045Y20659D01*
G01X56059Y20664D01*
G01X56073Y20667D01*
G01X56088Y20668D01*
G01X56711Y20668D01*
G01X56726Y20667D01*
G01X56740Y20664D01*
G01X56753Y20659D01*
G01X56766Y20652D01*
G01X56778Y20643D01*
G01X56788Y20633D01*
G01X56797Y20621D01*
G01X56804Y20609D01*
G01X56809Y20595D01*
G01X56812Y20581D01*
G01X56813Y20567D01*
G01X56813Y20250D01*
G01X57264Y20250D01*
G01X57279Y20249D01*
G01X57293Y20246D01*
G01X57307Y20241D01*
G01X57319Y20234D01*
G01X57331Y20226D01*
G01X57341Y20215D01*
G01X57350Y20204D01*
G01X57357Y20191D01*
G01X57362Y20178D01*
G01X57365Y20163D01*
G01X57366Y20149D01*
G01X57365Y20134D01*
G01X57362Y20120D01*
G01X57351Y20080D01*
G01X57344Y20040D01*
G01X57340Y20000D01*
G01X57338Y19959D01*
G01X57339Y19925D01*
G01X57342Y19891D01*
G01X57347Y19858D01*
G01X57355Y19824D01*
G01X57364Y19792D01*
G01X57375Y19759D01*
G01X57388Y19728D01*
G01X57403Y19697D01*
G01X57409Y19682D01*
G01X57413Y19666D01*
G01X57415Y19650D01*
G01X57414Y19636D01*
G01X57411Y19621D01*
G01X57399Y19595D01*
G01X57390Y19584D01*
G01X57380Y19573D01*
G01X57368Y19565D01*
G01X57355Y19558D01*
G01X57342Y19553D01*
G01X57328Y19550D01*
G01X57313Y19548D01*
G01X56813Y19548D01*
G01X56813Y19068D01*
G01X57099Y19068D01*
G01X57123Y19069D01*
G01X57147Y19072D01*
G01X57170Y19078D01*
G01X57192Y19085D01*
G01X57214Y19095D01*
G01X57234Y19106D01*
G01X57254Y19120D01*
G01X57272Y19135D01*
G01X57289Y19152D01*
G01X57304Y19170D01*
G01X57317Y19189D01*
G01X57329Y19210D01*
G01X57339Y19232D01*
G01X57346Y19254D01*
G01X57352Y19277D01*
G01X57355Y19301D01*
G01X57356Y19324D01*
G01X57356Y19465D01*
G01X57357Y19479D01*
G01X57360Y19494D01*
G01X57365Y19507D01*
G01X57372Y19520D01*
G01X57381Y19532D01*
G01X57391Y19542D01*
G01X57403Y19551D01*
G01X57415Y19557D01*
G01X57429Y19563D01*
G01X57443Y19566D01*
G01X57458Y19567D01*
G01X57472Y19566D01*
G01X57487Y19562D01*
G01X57501Y19557D01*
G01X57514Y19550D01*
G01X57525Y19541D01*
G01X57560Y19512D01*
G01X57596Y19487D01*
G01X57608Y19478D01*
G01X57618Y19468D01*
G01X57627Y19456D01*
G01X57634Y19443D01*
G01X57639Y19430D01*
G01X57642Y19416D01*
G01X57643Y19401D01*
G01X57643Y19324D01*
G01X57644Y19301D01*
G01X57648Y19277D01*
G01X57653Y19254D01*
G01X57660Y19232D01*
G01X57670Y19210D01*
G01X57682Y19189D01*
G01X57695Y19170D01*
G01X57710Y19152D01*
G01X57727Y19135D01*
G01X57745Y19120D01*
G01X57765Y19106D01*
G01X57785Y19095D01*
G01X57807Y19085D01*
G01X57830Y19078D01*
G01X57853Y19072D01*
G01X57876Y19069D01*
G01X57900Y19068D01*
G01X59300Y19068D01*
G01X59323Y19069D01*
G01X59347Y19072D01*
G01X59370Y19078D01*
G01X59392Y19085D01*
G01X59414Y19095D01*
G01X59435Y19106D01*
G01X59454Y19120D01*
G01X59473Y19135D01*
G01X59489Y19152D01*
G01X59504Y19170D01*
G01X59518Y19189D01*
G01X59529Y19210D01*
G01X59539Y19232D01*
G01X59546Y19254D01*
G01X59552Y19277D01*
G01X59555Y19301D01*
G01X59556Y19324D01*
G01X59556Y20474D01*
G01X59555Y20499D01*
G01X59551Y20524D01*
G01X59545Y20548D01*
G01X59537Y20572D01*
G01X59527Y20594D01*
G01X59514Y20616D01*
G01X59499Y20636D01*
G01X59490Y20650D01*
G01X59482Y20666D01*
G01X59478Y20682D01*
G01X59477Y20700D01*
G01X59478Y20717D01*
G01X59482Y20733D01*
G01X59490Y20749D01*
G01X59499Y20763D01*
G01X59514Y20784D01*
G01X59526Y20805D01*
G01X59537Y20827D01*
G01X59545Y20851D01*
G01X59551Y20875D01*
G01X59555Y20900D01*
G01X59556Y20925D01*
G01X59556Y21149D01*
G01X59013Y21149D01*
G01X59013Y20833D01*
G01X59012Y20818D01*
G01X59009Y20804D01*
G01X59004Y20790D01*
G01X58997Y20778D01*
G01X58988Y20766D01*
G01X58978Y20756D01*
G01X58966Y20747D01*
G01X58954Y20740D01*
G01X58940Y20735D01*
G01X58926Y20732D01*
G01X58911Y20731D01*
G01X58288Y20731D01*
G01X58273Y20732D01*
G01X58259Y20735D01*
G01X58245Y20740D01*
G01X58233Y20747D01*
G01X58221Y20756D01*
G01X58211Y20766D01*
G01X58202Y20778D01*
G01X58195Y20790D01*
G01X58190Y20804D01*
G01X58187Y20818D01*
G01X58186Y20833D01*
G01X58186Y21149D01*
G01X57643Y21149D01*
G01X57643Y20925D01*
G01X57644Y20901D01*
G01X57647Y20877D01*
G01X57653Y20854D01*
G01X57660Y20831D01*
G01X57670Y20810D01*
G01X57682Y20789D01*
G01X57695Y20769D01*
G01X57711Y20751D01*
G01X57728Y20734D01*
G01X57746Y20719D01*
G01X57766Y20706D01*
G01X57787Y20694D01*
G01X57800Y20686D01*
G01X57813Y20676D01*
G01X57823Y20663D01*
G01X57832Y20650D01*
G01X57838Y20635D01*
G01X57842Y20619D01*
G01X57843Y20603D01*
G01X57842Y20588D01*
G01X57839Y20573D01*
G01X57834Y20559D01*
G01X57826Y20546D01*
G01X57817Y20535D01*
G01X57806Y20524D01*
G01X57794Y20516D01*
G01X57780Y20509D01*
G01X57766Y20504D01*
G01X57733Y20495D01*
G01X57700Y20484D01*
G01X57669Y20471D01*
G01X57638Y20456D01*
G01X57608Y20439D01*
G01X57579Y20420D01*
G01X57552Y20400D01*
G01X57525Y20377D01*
G01X57514Y20368D01*
G01X57501Y20361D01*
G01X57487Y20356D01*
G01X57472Y20353D01*
G01X57458Y20352D01*
G01X57443Y20353D01*
G01X57429Y20356D01*
G01X57415Y20361D01*
G01X57403Y20368D01*
G01X57391Y20376D01*
G01X57381Y20387D01*
G01X57372Y20398D01*
G01X57365Y20411D01*
G01X57360Y20425D01*
G01X57357Y20439D01*
G01X57356Y20453D01*
G01X57356Y20474D01*
G01X57355Y20499D01*
G01X57351Y20524D01*
G01X57345Y20548D01*
G01X57337Y20572D01*
G01X57326Y20594D01*
G01X57314Y20616D01*
G01X57299Y20636D01*
G01X57289Y20650D01*
G01X57282Y20666D01*
G01X57278Y20682D01*
G01X57276Y20700D01*
G01X57278Y20717D01*
G01X57282Y20733D01*
G01X57289Y20749D01*
G01X57314Y20784D01*
G01X57326Y20805D01*
G01X57337Y20828D01*
G01X57345Y20851D01*
G01X57351Y20875D01*
G01X57355Y20900D01*
G01X57356Y20925D01*
G01X57356Y22075D01*
G01X57355Y22098D01*
G01X57352Y22122D01*
G01X57346Y22145D01*
G01X57339Y22167D01*
G01X57329Y22189D01*
G01X57317Y22210D01*
G01X57304Y22229D01*
G01X57289Y22248D01*
G01X57272Y22264D01*
G01X57254Y22279D01*
G01X57234Y22293D01*
G01X57214Y22304D01*
G01X57192Y22314D01*
G01X57170Y22321D01*
G01X57147Y22327D01*
G01X57123Y22330D01*
G01X57099Y22331D01*
G37*
G36*
G01X49543Y3914D02*
G01X49504Y3915D01*
G01X49464Y3914D01*
G01X49424Y3911D01*
G01X49385Y3906D01*
G01X49346Y3899D01*
G01X49308Y3890D01*
G01X49270Y3878D01*
G01X49232Y3865D01*
G01X49196Y3850D01*
G01X49160Y3833D01*
G01X49125Y3814D01*
G01X49092Y3793D01*
G01X49059Y3771D01*
G01X49027Y3747D01*
G01X48997Y3721D01*
G01X48969Y3694D01*
G01X48941Y3665D01*
G01X48916Y3635D01*
G01X48891Y3604D01*
G01X48869Y3571D01*
G01X48848Y3537D01*
G01X48829Y3502D01*
G01X48812Y3467D01*
G01X48797Y3430D01*
G01X48784Y3393D01*
G01X48773Y3355D01*
G01X48764Y3316D01*
G01X48756Y3277D01*
G01X48751Y3238D01*
G01X48748Y3199D01*
G01X48747Y3159D01*
G01X48747Y2160D01*
G01X48748Y2121D01*
G01X48751Y2081D01*
G01X48756Y2042D01*
G01X48764Y2003D01*
G01X48773Y1964D01*
G01X48784Y1926D01*
G01X48797Y1889D01*
G01X48812Y1853D01*
G01X48829Y1817D01*
G01X48848Y1782D01*
G01X48869Y1748D01*
G01X48891Y1716D01*
G01X48916Y1684D01*
G01X48941Y1654D01*
G01X48969Y1625D01*
G01X48997Y1598D01*
G01X49027Y1572D01*
G01X49059Y1548D01*
G01X49092Y1526D01*
G01X49125Y1505D01*
G01X49160Y1486D01*
G01X49196Y1469D01*
G01X49232Y1454D01*
G01X49270Y1441D01*
G01X49308Y1429D01*
G01X49346Y1420D01*
G01X49385Y1413D01*
G01X49424Y1408D01*
G01X49464Y1405D01*
G01X49504Y1404D01*
G01X49543Y1405D01*
G01X49583Y1408D01*
G01X49622Y1413D01*
G01X49661Y1420D01*
G01X49699Y1429D01*
G01X49737Y1441D01*
G01X49775Y1454D01*
G01X49811Y1469D01*
G01X49847Y1486D01*
G01X49882Y1505D01*
G01X49916Y1526D01*
G01X49948Y1548D01*
G01X49980Y1572D01*
G01X50010Y1598D01*
G01X50038Y1625D01*
G01X50066Y1654D01*
G01X50091Y1684D01*
G01X50116Y1716D01*
G01X50138Y1748D01*
G01X50159Y1782D01*
G01X50178Y1817D01*
G01X50195Y1853D01*
G01X50210Y1889D01*
G01X50223Y1926D01*
G01X50234Y1964D01*
G01X50244Y2003D01*
G01X50251Y2042D01*
G01X50256Y2081D01*
G01X50259Y2121D01*
G01X50260Y2160D01*
G01X50260Y3159D01*
G01X50259Y3199D01*
G01X50256Y3238D01*
G01X50251Y3277D01*
G01X50244Y3316D01*
G01X50234Y3355D01*
G01X50223Y3393D01*
G01X50210Y3430D01*
G01X50195Y3467D01*
G01X50178Y3502D01*
G01X50159Y3537D01*
G01X50138Y3571D01*
G01X50116Y3604D01*
G01X50091Y3635D01*
G01X50066Y3665D01*
G01X50038Y3694D01*
G01X50010Y3721D01*
G01X49980Y3747D01*
G01X49948Y3771D01*
G01X49916Y3793D01*
G01X49882Y3814D01*
G01X49847Y3833D01*
G01X49811Y3850D01*
G01X49775Y3865D01*
G01X49737Y3878D01*
G01X49699Y3890D01*
G01X49661Y3899D01*
G01X49622Y3906D01*
G01X49583Y3911D01*
G01X49543Y3914D01*
G37*
G36*
G01X49543Y7384D02*
G01X49504Y7385D01*
G01X49464Y7384D01*
G01X49424Y7381D01*
G01X49385Y7376D01*
G01X49346Y7369D01*
G01X49308Y7359D01*
G01X49270Y7348D01*
G01X49232Y7335D01*
G01X49196Y7320D01*
G01X49160Y7303D01*
G01X49125Y7284D01*
G01X49092Y7263D01*
G01X49059Y7241D01*
G01X49027Y7217D01*
G01X48997Y7191D01*
G01X48969Y7164D01*
G01X48941Y7135D01*
G01X48916Y7105D01*
G01X48891Y7073D01*
G01X48869Y7041D01*
G01X48848Y7007D01*
G01X48829Y6972D01*
G01X48812Y6936D01*
G01X48797Y6900D01*
G01X48784Y6862D01*
G01X48773Y6824D01*
G01X48764Y6786D01*
G01X48756Y6747D01*
G01X48751Y6708D01*
G01X48748Y6668D01*
G01X48747Y6629D01*
G01X48747Y5630D01*
G01X48748Y5590D01*
G01X48751Y5551D01*
G01X48756Y5512D01*
G01X48764Y5473D01*
G01X48773Y5434D01*
G01X48784Y5396D01*
G01X48797Y5359D01*
G01X48812Y5322D01*
G01X48829Y5286D01*
G01X48848Y5252D01*
G01X48869Y5218D01*
G01X48891Y5185D01*
G01X48916Y5154D01*
G01X48941Y5124D01*
G01X48969Y5095D01*
G01X48997Y5068D01*
G01X49027Y5042D01*
G01X49059Y5018D01*
G01X49092Y4995D01*
G01X49125Y4975D01*
G01X49160Y4956D01*
G01X49196Y4939D01*
G01X49232Y4924D01*
G01X49270Y4910D01*
G01X49308Y4899D01*
G01X49346Y4890D01*
G01X49385Y4883D01*
G01X49424Y4877D01*
G01X49464Y4874D01*
G01X49504Y4873D01*
G01X49543Y4874D01*
G01X49583Y4877D01*
G01X49622Y4883D01*
G01X49661Y4890D01*
G01X49699Y4899D01*
G01X49737Y4910D01*
G01X49775Y4924D01*
G01X49811Y4939D01*
G01X49847Y4956D01*
G01X49882Y4975D01*
G01X49916Y4995D01*
G01X49948Y5018D01*
G01X49980Y5042D01*
G01X50010Y5068D01*
G01X50038Y5095D01*
G01X50066Y5124D01*
G01X50091Y5154D01*
G01X50116Y5185D01*
G01X50138Y5218D01*
G01X50159Y5252D01*
G01X50178Y5286D01*
G01X50195Y5322D01*
G01X50210Y5359D01*
G01X50223Y5396D01*
G01X50234Y5434D01*
G01X50244Y5473D01*
G01X50251Y5512D01*
G01X50256Y5551D01*
G01X50259Y5590D01*
G01X50260Y5630D01*
G01X50260Y6629D01*
G01X50259Y6668D01*
G01X50256Y6708D01*
G01X50251Y6747D01*
G01X50244Y6786D01*
G01X50234Y6824D01*
G01X50223Y6862D01*
G01X50210Y6900D01*
G01X50195Y6936D01*
G01X50178Y6972D01*
G01X50159Y7007D01*
G01X50138Y7041D01*
G01X50116Y7073D01*
G01X50091Y7105D01*
G01X50066Y7135D01*
G01X50038Y7164D01*
G01X50010Y7191D01*
G01X49980Y7217D01*
G01X49948Y7241D01*
G01X49916Y7263D01*
G01X49882Y7284D01*
G01X49847Y7303D01*
G01X49811Y7320D01*
G01X49775Y7335D01*
G01X49737Y7348D01*
G01X49699Y7359D01*
G01X49661Y7369D01*
G01X49622Y7376D01*
G01X49583Y7381D01*
G01X49543Y7384D01*
G37*
G36*
G01X56741Y3914D02*
G01X56702Y3915D01*
G01X56662Y3914D01*
G01X56623Y3911D01*
G01X56584Y3906D01*
G01X56545Y3899D01*
G01X56506Y3890D01*
G01X56468Y3878D01*
G01X56431Y3865D01*
G01X56394Y3850D01*
G01X56358Y3833D01*
G01X56324Y3814D01*
G01X56290Y3793D01*
G01X56257Y3771D01*
G01X56226Y3747D01*
G01X56196Y3721D01*
G01X56167Y3694D01*
G01X56140Y3665D01*
G01X56114Y3635D01*
G01X56090Y3604D01*
G01X56067Y3571D01*
G01X56047Y3537D01*
G01X56028Y3502D01*
G01X56011Y3467D01*
G01X55996Y3430D01*
G01X55982Y3393D01*
G01X55971Y3355D01*
G01X55962Y3316D01*
G01X55955Y3277D01*
G01X55950Y3238D01*
G01X55946Y3199D01*
G01X55945Y3159D01*
G01X55945Y2160D01*
G01X55946Y2121D01*
G01X55950Y2081D01*
G01X55955Y2042D01*
G01X55962Y2003D01*
G01X55971Y1964D01*
G01X55982Y1926D01*
G01X55996Y1889D01*
G01X56011Y1853D01*
G01X56028Y1817D01*
G01X56047Y1782D01*
G01X56067Y1748D01*
G01X56090Y1716D01*
G01X56114Y1684D01*
G01X56140Y1654D01*
G01X56167Y1625D01*
G01X56196Y1598D01*
G01X56226Y1572D01*
G01X56257Y1548D01*
G01X56290Y1526D01*
G01X56324Y1505D01*
G01X56358Y1486D01*
G01X56394Y1469D01*
G01X56431Y1454D01*
G01X56468Y1441D01*
G01X56506Y1429D01*
G01X56545Y1420D01*
G01X56584Y1413D01*
G01X56623Y1408D01*
G01X56662Y1405D01*
G01X56702Y1404D01*
G01X56741Y1405D01*
G01X56781Y1408D01*
G01X56820Y1413D01*
G01X56859Y1420D01*
G01X56898Y1429D01*
G01X56936Y1441D01*
G01X56973Y1454D01*
G01X57010Y1469D01*
G01X57045Y1486D01*
G01X57080Y1505D01*
G01X57114Y1526D01*
G01X57147Y1548D01*
G01X57178Y1572D01*
G01X57208Y1598D01*
G01X57237Y1625D01*
G01X57264Y1654D01*
G01X57290Y1684D01*
G01X57314Y1716D01*
G01X57336Y1748D01*
G01X57357Y1782D01*
G01X57376Y1817D01*
G01X57393Y1853D01*
G01X57408Y1889D01*
G01X57421Y1926D01*
G01X57433Y1964D01*
G01X57442Y2003D01*
G01X57449Y2042D01*
G01X57454Y2081D01*
G01X57457Y2121D01*
G01X57458Y2160D01*
G01X57458Y3159D01*
G01X57457Y3199D01*
G01X57454Y3238D01*
G01X57449Y3277D01*
G01X57442Y3316D01*
G01X57433Y3355D01*
G01X57421Y3393D01*
G01X57408Y3430D01*
G01X57393Y3467D01*
G01X57376Y3502D01*
G01X57357Y3537D01*
G01X57336Y3571D01*
G01X57314Y3604D01*
G01X57290Y3635D01*
G01X57264Y3665D01*
G01X57237Y3694D01*
G01X57208Y3721D01*
G01X57178Y3747D01*
G01X57147Y3771D01*
G01X57114Y3793D01*
G01X57080Y3814D01*
G01X57045Y3833D01*
G01X57010Y3850D01*
G01X56973Y3865D01*
G01X56936Y3878D01*
G01X56898Y3890D01*
G01X56859Y3899D01*
G01X56820Y3906D01*
G01X56781Y3911D01*
G01X56741Y3914D01*
G37*
G36*
G01X56741Y7384D02*
G01X56702Y7385D01*
G01X56662Y7384D01*
G01X56623Y7381D01*
G01X56584Y7376D01*
G01X56545Y7369D01*
G01X56506Y7359D01*
G01X56468Y7348D01*
G01X56431Y7335D01*
G01X56394Y7320D01*
G01X56358Y7303D01*
G01X56324Y7284D01*
G01X56290Y7263D01*
G01X56257Y7241D01*
G01X56226Y7217D01*
G01X56196Y7191D01*
G01X56167Y7164D01*
G01X56140Y7135D01*
G01X56114Y7105D01*
G01X56090Y7073D01*
G01X56067Y7041D01*
G01X56047Y7007D01*
G01X56028Y6972D01*
G01X56011Y6936D01*
G01X55996Y6900D01*
G01X55982Y6862D01*
G01X55971Y6824D01*
G01X55962Y6786D01*
G01X55955Y6747D01*
G01X55950Y6708D01*
G01X55946Y6668D01*
G01X55945Y6629D01*
G01X55945Y5630D01*
G01X55946Y5590D01*
G01X55950Y5551D01*
G01X55955Y5512D01*
G01X55962Y5473D01*
G01X55971Y5434D01*
G01X55982Y5396D01*
G01X55996Y5359D01*
G01X56011Y5322D01*
G01X56028Y5286D01*
G01X56047Y5252D01*
G01X56067Y5218D01*
G01X56090Y5185D01*
G01X56114Y5154D01*
G01X56140Y5124D01*
G01X56167Y5095D01*
G01X56196Y5068D01*
G01X56226Y5042D01*
G01X56257Y5018D01*
G01X56290Y4995D01*
G01X56324Y4975D01*
G01X56358Y4956D01*
G01X56394Y4939D01*
G01X56431Y4924D01*
G01X56468Y4910D01*
G01X56506Y4899D01*
G01X56545Y4890D01*
G01X56584Y4883D01*
G01X56623Y4877D01*
G01X56662Y4874D01*
G01X56702Y4873D01*
G01X56741Y4874D01*
G01X56781Y4877D01*
G01X56820Y4883D01*
G01X56859Y4890D01*
G01X56898Y4899D01*
G01X56936Y4910D01*
G01X56973Y4924D01*
G01X57010Y4939D01*
G01X57045Y4956D01*
G01X57080Y4975D01*
G01X57114Y4995D01*
G01X57147Y5018D01*
G01X57178Y5042D01*
G01X57208Y5068D01*
G01X57237Y5095D01*
G01X57264Y5124D01*
G01X57290Y5154D01*
G01X57314Y5185D01*
G01X57336Y5218D01*
G01X57357Y5252D01*
G01X57376Y5286D01*
G01X57393Y5322D01*
G01X57408Y5359D01*
G01X57421Y5396D01*
G01X57433Y5434D01*
G01X57442Y5473D01*
G01X57449Y5512D01*
G01X57454Y5551D01*
G01X57457Y5590D01*
G01X57458Y5630D01*
G01X57458Y6629D01*
G01X57457Y6668D01*
G01X57454Y6708D01*
G01X57449Y6747D01*
G01X57442Y6786D01*
G01X57433Y6824D01*
G01X57421Y6862D01*
G01X57408Y6900D01*
G01X57393Y6936D01*
G01X57376Y6972D01*
G01X57357Y7007D01*
G01X57336Y7041D01*
G01X57314Y7073D01*
G01X57290Y7105D01*
G01X57264Y7135D01*
G01X57237Y7164D01*
G01X57208Y7191D01*
G01X57178Y7217D01*
G01X57147Y7241D01*
G01X57114Y7263D01*
G01X57080Y7284D01*
G01X57045Y7303D01*
G01X57010Y7320D01*
G01X56973Y7335D01*
G01X56936Y7348D01*
G01X56898Y7359D01*
G01X56859Y7369D01*
G01X56820Y7376D01*
G01X56781Y7381D01*
G01X56741Y7384D01*
G37*
G36*
G01X51138Y5415D02*
G01X51103Y5416D01*
G01X51068Y5415D01*
G01X51033Y5411D01*
G01X50998Y5406D01*
G01X50963Y5399D01*
G01X50929Y5390D01*
G01X50896Y5379D01*
G01X50863Y5366D01*
G01X50831Y5351D01*
G01X50800Y5334D01*
G01X50770Y5316D01*
G01X50741Y5296D01*
G01X50713Y5274D01*
G01X50687Y5250D01*
G01X50662Y5225D01*
G01X50638Y5199D01*
G01X50616Y5171D01*
G01X50596Y5142D01*
G01X50578Y5112D01*
G01X50561Y5081D01*
G01X50546Y5049D01*
G01X50533Y5016D01*
G01X50522Y4983D01*
G01X50513Y4949D01*
G01X50506Y4914D01*
G01X50501Y4879D01*
G01X50497Y4844D01*
G01X50496Y4809D01*
G01X50497Y4774D01*
G01X50501Y4739D01*
G01X50506Y4704D01*
G01X50513Y4669D01*
G01X50522Y4635D01*
G01X50533Y4602D01*
G01X50546Y4569D01*
G01X50561Y4537D01*
G01X50578Y4506D01*
G01X50596Y4476D01*
G01X50616Y4447D01*
G01X50638Y4419D01*
G01X50662Y4393D01*
G01X50687Y4368D01*
G01X50713Y4344D01*
G01X50741Y4322D01*
G01X50770Y4302D01*
G01X50800Y4284D01*
G01X50831Y4267D01*
G01X50863Y4252D01*
G01X50896Y4239D01*
G01X50929Y4228D01*
G01X50963Y4219D01*
G01X50998Y4212D01*
G01X51033Y4207D01*
G01X51068Y4203D01*
G01X51103Y4202D01*
G01X51138Y4203D01*
G01X51173Y4207D01*
G01X51208Y4212D01*
G01X51243Y4219D01*
G01X51277Y4228D01*
G01X51310Y4239D01*
G01X51343Y4252D01*
G01X51375Y4267D01*
G01X51406Y4284D01*
G01X51436Y4302D01*
G01X51465Y4322D01*
G01X51493Y4344D01*
G01X51519Y4368D01*
G01X51544Y4393D01*
G01X51568Y4419D01*
G01X51590Y4447D01*
G01X51610Y4476D01*
G01X51628Y4506D01*
G01X51645Y4537D01*
G01X51660Y4569D01*
G01X51673Y4602D01*
G01X51684Y4635D01*
G01X51693Y4669D01*
G01X51700Y4704D01*
G01X51705Y4739D01*
G01X51709Y4774D01*
G01X51710Y4809D01*
G01X51709Y4844D01*
G01X51705Y4879D01*
G01X51700Y4914D01*
G01X51693Y4949D01*
G01X51684Y4983D01*
G01X51673Y5016D01*
G01X51660Y5049D01*
G01X51645Y5081D01*
G01X51628Y5112D01*
G01X51610Y5142D01*
G01X51590Y5171D01*
G01X51568Y5199D01*
G01X51544Y5225D01*
G01X51519Y5250D01*
G01X51493Y5274D01*
G01X51465Y5296D01*
G01X51436Y5316D01*
G01X51406Y5334D01*
G01X51375Y5351D01*
G01X51343Y5366D01*
G01X51310Y5379D01*
G01X51277Y5390D01*
G01X51243Y5399D01*
G01X51208Y5406D01*
G01X51173Y5411D01*
G01X51138Y5415D01*
G37*
G36*
G01X55136Y5415D02*
G01X55101Y5416D01*
G01X55066Y5415D01*
G01X55031Y5411D01*
G01X54996Y5406D01*
G01X54961Y5399D01*
G01X54927Y5390D01*
G01X54894Y5379D01*
G01X54861Y5366D01*
G01X54829Y5351D01*
G01X54798Y5334D01*
G01X54768Y5316D01*
G01X54739Y5296D01*
G01X54711Y5274D01*
G01X54685Y5250D01*
G01X54660Y5225D01*
G01X54636Y5199D01*
G01X54614Y5171D01*
G01X54594Y5142D01*
G01X54576Y5112D01*
G01X54559Y5081D01*
G01X54544Y5049D01*
G01X54531Y5016D01*
G01X54520Y4983D01*
G01X54511Y4949D01*
G01X54504Y4914D01*
G01X54499Y4879D01*
G01X54495Y4844D01*
G01X54494Y4809D01*
G01X54495Y4774D01*
G01X54499Y4739D01*
G01X54504Y4704D01*
G01X54511Y4669D01*
G01X54520Y4635D01*
G01X54531Y4602D01*
G01X54544Y4569D01*
G01X54559Y4537D01*
G01X54576Y4506D01*
G01X54594Y4476D01*
G01X54614Y4447D01*
G01X54636Y4419D01*
G01X54660Y4393D01*
G01X54685Y4368D01*
G01X54711Y4344D01*
G01X54739Y4322D01*
G01X54768Y4302D01*
G01X54798Y4284D01*
G01X54829Y4267D01*
G01X54861Y4252D01*
G01X54894Y4239D01*
G01X54927Y4228D01*
G01X54961Y4219D01*
G01X54996Y4212D01*
G01X55031Y4207D01*
G01X55066Y4203D01*
G01X55101Y4202D01*
G01X55136Y4203D01*
G01X55171Y4207D01*
G01X55206Y4212D01*
G01X55241Y4219D01*
G01X55275Y4228D01*
G01X55308Y4239D01*
G01X55341Y4252D01*
G01X55373Y4267D01*
G01X55404Y4284D01*
G01X55434Y4302D01*
G01X55463Y4322D01*
G01X55491Y4344D01*
G01X55517Y4368D01*
G01X55542Y4393D01*
G01X55566Y4419D01*
G01X55588Y4447D01*
G01X55608Y4476D01*
G01X55626Y4506D01*
G01X55643Y4537D01*
G01X55658Y4569D01*
G01X55671Y4602D01*
G01X55682Y4635D01*
G01X55691Y4669D01*
G01X55698Y4704D01*
G01X55703Y4739D01*
G01X55707Y4774D01*
G01X55708Y4809D01*
G01X55707Y4844D01*
G01X55703Y4879D01*
G01X55698Y4914D01*
G01X55691Y4949D01*
G01X55682Y4983D01*
G01X55671Y5016D01*
G01X55658Y5049D01*
G01X55643Y5081D01*
G01X55626Y5112D01*
G01X55608Y5142D01*
G01X55588Y5171D01*
G01X55566Y5199D01*
G01X55542Y5225D01*
G01X55517Y5250D01*
G01X55491Y5274D01*
G01X55463Y5296D01*
G01X55434Y5316D01*
G01X55404Y5334D01*
G01X55373Y5351D01*
G01X55341Y5366D01*
G01X55308Y5379D01*
G01X55275Y5390D01*
G01X55241Y5399D01*
G01X55206Y5406D01*
G01X55171Y5411D01*
G01X55136Y5415D01*
G37*
G36*
G01X18733Y4060D02*
G01X18699Y4061D01*
G01X18666Y4060D01*
G01X18632Y4057D01*
G01X18598Y4052D01*
G01X18565Y4044D01*
G01X18532Y4035D01*
G01X18500Y4024D01*
G01X18469Y4011D01*
G01X18439Y3996D01*
G01X18409Y3980D01*
G01X18381Y3961D01*
G01X18353Y3941D01*
G01X18327Y3920D01*
G01X18279Y3872D01*
G01X18258Y3846D01*
G01X18238Y3818D01*
G01X18219Y3790D01*
G01X18202Y3760D01*
G01X18188Y3730D01*
G01X18175Y3698D01*
G01X18164Y3666D01*
G01X18154Y3634D01*
G01X18147Y3601D01*
G01X18142Y3567D01*
G01X18139Y3533D01*
G01X18138Y3499D01*
G01X18139Y3466D01*
G01X18142Y3432D01*
G01X18147Y3398D01*
G01X18154Y3365D01*
G01X18164Y3332D01*
G01X18175Y3300D01*
G01X18188Y3269D01*
G01X18202Y3239D01*
G01X18219Y3209D01*
G01X18238Y3181D01*
G01X18258Y3153D01*
G01X18279Y3127D01*
G01X18303Y3102D01*
G01X18327Y3079D01*
G01X18353Y3058D01*
G01X18381Y3037D01*
G01X18409Y3019D01*
G01X18439Y3002D01*
G01X18469Y2988D01*
G01X18500Y2975D01*
G01X18532Y2963D01*
G01X18565Y2954D01*
G01X18598Y2947D01*
G01X18632Y2942D01*
G01X18666Y2939D01*
G01X18699Y2938D01*
G01X18733Y2939D01*
G01X18767Y2942D01*
G01X18801Y2947D01*
G01X18834Y2954D01*
G01X18866Y2963D01*
G01X18899Y2975D01*
G01X18930Y2988D01*
G01X18960Y3002D01*
G01X18990Y3019D01*
G01X19018Y3037D01*
G01X19046Y3058D01*
G01X19072Y3079D01*
G01X19096Y3102D01*
G01X19120Y3127D01*
G01X19141Y3153D01*
G01X19161Y3181D01*
G01X19180Y3209D01*
G01X19197Y3239D01*
G01X19211Y3269D01*
G01X19224Y3300D01*
G01X19235Y3332D01*
G01X19245Y3365D01*
G01X19252Y3398D01*
G01X19257Y3432D01*
G01X19260Y3466D01*
G01X19261Y3499D01*
G01X19260Y3533D01*
G01X19257Y3567D01*
G01X19252Y3601D01*
G01X19245Y3634D01*
G01X19235Y3666D01*
G01X19224Y3698D01*
G01X19211Y3730D01*
G01X19197Y3760D01*
G01X19180Y3790D01*
G01X19161Y3818D01*
G01X19141Y3846D01*
G01X19120Y3872D01*
G01X19072Y3920D01*
G01X19046Y3941D01*
G01X19018Y3961D01*
G01X18990Y3980D01*
G01X18960Y3996D01*
G01X18930Y4011D01*
G01X18899Y4024D01*
G01X18866Y4035D01*
G01X18834Y4044D01*
G01X18801Y4052D01*
G01X18767Y4057D01*
G01X18733Y4060D01*
G37*
G36*
G01X55986Y19548D02*
G01X55443Y19548D01*
G01X55443Y19324D01*
G01X55444Y19301D01*
G01X55447Y19277D01*
G01X55453Y19254D01*
G01X55460Y19232D01*
G01X55470Y19210D01*
G01X55481Y19189D01*
G01X55495Y19170D01*
G01X55510Y19152D01*
G01X55527Y19135D01*
G01X55545Y19120D01*
G01X55564Y19106D01*
G01X55585Y19095D01*
G01X55607Y19085D01*
G01X55629Y19078D01*
G01X55652Y19072D01*
G01X55676Y19069D01*
G01X55699Y19068D01*
G01X55986Y19068D01*
G01X55986Y19548D01*
G37*
G36*
G01X58186Y22331D02*
G01X57900Y22331D01*
G01X57876Y22330D01*
G01X57852Y22327D01*
G01X57829Y22321D01*
G01X57807Y22314D01*
G01X57785Y22304D01*
G01X57764Y22293D01*
G01X57745Y22279D01*
G01X57727Y22264D01*
G01X57710Y22247D01*
G01X57695Y22229D01*
G01X57681Y22210D01*
G01X57670Y22189D01*
G01X57660Y22167D01*
G01X57653Y22145D01*
G01X57647Y22122D01*
G01X57644Y22098D01*
G01X57643Y22075D01*
G01X57643Y21851D01*
G01X58186Y21851D01*
G01X58186Y22331D01*
G37*
G36*
G01X59300Y22331D02*
G01X59013Y22331D01*
G01X59013Y21851D01*
G01X59556Y21851D01*
G01X59556Y22075D01*
G01X59555Y22098D01*
G01X59552Y22122D01*
G01X59546Y22145D01*
G01X59539Y22167D01*
G01X59529Y22189D01*
G01X59518Y22210D01*
G01X59504Y22229D01*
G01X59489Y22247D01*
G01X59472Y22264D01*
G01X59454Y22279D01*
G01X59435Y22293D01*
G01X59414Y22304D01*
G01X59392Y22314D01*
G01X59370Y22321D01*
G01X59347Y22327D01*
G01X59323Y22330D01*
G01X59300Y22331D01*
G37*

%LPD*%
G54D11*
G01X15100Y17899D02*
G01X14401Y17200D01*
G01X13600Y17200D01*
G54D14*
G01X58822Y39210D02*
G01X60498Y39199D01*
G54D12*
G01X33200Y54300D02*
G01X34400Y54300D01*
G01X34400Y48100D02*
G01X33200Y48100D01*
G01X33800Y48100D02*
G01X34400Y48100D01*
G01X33800Y54299D02*
G01X33800Y48100D01*
G54D13*
G01X33800Y50653D02*
G01X33800Y48100D01*
G54D12*
G01X33800Y53437D02*
G01X33800Y54299D01*
G01X33800Y48100D02*
G01X33800Y50635D01*
G54D10*
G01X70799Y2899D02*
G01X77100Y2899D01*
G54D14*
G01X37900Y31899D02*
G01X37892Y32992D01*
G54D10*
G01X38900Y25599D02*
G01X38900Y25599D01*
G01X38705Y25194D01*
G01X38705Y24406D01*
G54D13*
G01X22698Y38199D02*
G01X22700Y37599D01*
G54D14*
G01X26800Y48200D02*
G01X28500Y46499D01*
G01X28500Y41200D01*
G54D13*
G01X37100Y45112D02*
G01X37100Y36200D01*
G01X36413Y45587D02*
G01X36413Y46770D01*
G01X41921Y52278D01*
G01X41921Y54221D01*
G54D14*
G01X40800Y55640D02*
G01X38700Y53539D01*
G01X38700Y50899D01*
G01X35300Y47500D01*
G01X35300Y40499D01*
G01X34200Y39399D01*
G01X29498Y39399D01*
G01X28299Y38201D02*
G01X29498Y39399D01*
G01X14199Y39399D01*
G01X13599Y38799D01*
G01X13600Y17200D01*
G01X14600Y17200D01*
G01X24298Y38199D02*
G01X25497Y39400D01*
G01X20199Y38201D02*
G01X21413Y39400D01*
G54D13*
G01X9078Y52039D02*
G01X10348Y50769D01*
G01X12025Y50769D01*
G01X12675Y50121D01*
G01X12675Y49436D01*
G01X18700Y43410D01*
G01X18700Y40600D01*
G01X11999Y19199D02*
G01X12002Y19199D01*
G01X12401Y19598D01*
G01X11999Y19199D02*
G01X9873Y17073D01*
G01X9873Y8062D01*
G01X9251Y7437D01*
G01X7341Y7437D01*
G01X6279Y8498D01*
G01X11999Y15199D02*
G01X11999Y15199D01*
G01X12401Y15600D01*
G01X8819Y5958D02*
G01X10298Y7437D01*
G01X10298Y13497D01*
G01X11999Y15199D01*
G01X11999Y27899D02*
G01X12444Y27899D01*
G01X12495Y27947D01*
G01X11899Y27999D02*
G01X8819Y24919D01*
G01X8819Y8498D01*
G01X62700Y38299D02*
G01X62700Y38299D01*
G01X62700Y27899D01*
G01X11913Y23113D02*
G01X12399Y23599D01*
G01X40700Y34600D02*
G01X40306Y34206D01*
G01X40306Y32992D01*
G54D14*
G01X14600Y21198D02*
G01X13600Y21181D01*
G01X14599Y25199D02*
G01X14499Y25299D01*
G01X13600Y25299D01*
G01X14694Y29547D02*
G01X13600Y29545D01*
G01X14694Y33548D02*
G01X14645Y33500D01*
G01X13600Y33500D01*
G01X14694Y37548D02*
G01X13600Y37528D01*
G54D13*
G01X43264Y25905D02*
G01X41970Y27199D01*
G01X37100Y27199D01*
G54D10*
G01X44296Y41369D02*
G01X43534Y41369D01*
G01X42772Y42144D01*
G01X58821Y41623D02*
G01X56996Y41623D01*
G01X56107Y40480D01*
G01X56107Y37532D01*
G01X58647Y34003D02*
G01X57123Y36416D01*
G01X57123Y36800D01*
G01X62330Y52926D02*
G01X62330Y51529D01*
G01X60425Y49497D01*
G01X56869Y49497D01*
G01X56742Y49497D01*
G01X53186Y49497D01*
G01X52297Y48608D01*
G01X52297Y44925D01*
G01X50265Y42893D01*
G01X48821Y42893D01*
G01X59790Y52926D02*
G01X59790Y51656D01*
G01X58266Y50132D01*
G01X52297Y50132D01*
G01X51662Y49497D01*
G01X51662Y45687D01*
G01X50138Y44163D01*
G01X48821Y44163D01*
G01X57250Y52926D02*
G01X57250Y51783D01*
G01X56234Y50767D01*
G01X51916Y50767D01*
G01X51154Y50005D01*
G01X51154Y46576D01*
G01X50011Y45433D01*
G01X48821Y45433D01*
G01X54710Y52926D02*
G01X54710Y51656D01*
G01X54329Y51275D01*
G01X51535Y51275D01*
G01X50646Y50386D01*
G01X50646Y47211D01*
G01X50138Y46703D01*
G01X48819Y46703D01*
G01X48821Y47973D02*
G01X48741Y48053D01*
G01X48741Y51275D01*
G01X50392Y52926D01*
G01X52170Y52926D01*
G01X58821Y44163D02*
G01X63092Y44163D01*
G01X63981Y43274D01*
G01X63981Y20256D01*
G01X67839Y16398D01*
G01X58821Y45433D02*
G01X64235Y45433D01*
G01X64870Y44798D01*
G01X64870Y29177D01*
G01X67065Y26981D01*
G01X67838Y26981D01*
G01X58821Y46703D02*
G01X64616Y46703D01*
G01X65759Y45560D01*
G01X65759Y39644D01*
G01X67838Y37565D01*
G01X67838Y48148D02*
G01X67663Y47973D01*
G01X58821Y47973D01*
G01X43600Y39100D02*
G01X43964Y39464D01*
G01X44296Y39464D01*
G01X43600Y42900D02*
G01X43974Y43274D01*
G01X44296Y43274D01*
G01X44296Y45179D02*
G01X43153Y45179D01*
G01X42772Y44798D01*
G01X42772Y38448D01*
G01X43534Y37686D01*
G01X44296Y37686D01*
G01X44296Y44163D02*
G01X44931Y44163D01*
G01X47471Y41623D01*
G01X48821Y41623D01*
G01X48821Y39083D02*
G01X48821Y38274D01*
G01X47217Y36670D01*
G01X44296Y36670D01*
G01X44296Y40353D02*
G01X48821Y40353D01*
G54D12*
G01X38240Y18629D02*
G01X38240Y17825D01*
G54D10*
G01X44296Y35781D02*
G01X43915Y35400D01*
G01X43699Y35400D01*
G01X25373Y11226D02*
G01X25500Y11099D01*
G54D12*
G01X22833Y5638D02*
G01X22833Y6290D01*
G01X22833Y5638D02*
G01X35600Y17799D01*
G01X38240Y17825D01*
G54D10*
G01X38240Y18629D02*
G01X38240Y17825D01*
G01X56107Y37532D02*
G01X56107Y34003D01*
G01X57123Y36800D02*
G01X57123Y39845D01*
G01X57504Y40353D01*
G01X58821Y40353D01*
G01X44192Y29106D02*
G01X51083Y29106D01*
G01X56107Y34130D01*
G01X44192Y29893D02*
G01X51093Y29893D01*
G01X54900Y33700D01*
G01X54900Y35400D01*
G01X42373Y15717D02*
G01X41794Y15717D01*
G54D14*
G01X41792Y15716D02*
G01X40306Y17202D01*
G01X40306Y24407D01*
G01X40305Y24406D02*
G01X40300Y25200D01*
G01X40000Y25599D01*
G01X38900Y25599D01*
G54D10*
G01X41093Y24406D02*
G01X41100Y21209D01*
G01X39493Y24407D02*
G01X39400Y24313D01*
G01X39400Y21171D01*
G01X39400Y21171D02*
G01X39400Y20899D01*
G01X41100Y21209D02*
G01X41100Y20899D01*
G01X44192Y26693D02*
G01X56906Y26693D01*
G01X58900Y24700D01*
G01X44192Y27506D02*
G01X56793Y27506D01*
G01X61300Y23000D01*
G01X44192Y28293D02*
G01X62306Y28293D01*
G01X62700Y27899D01*
G01X62401Y11501D02*
G01X61700Y12199D01*
G01X61700Y20099D01*
G01X62200Y20599D01*
G01X62200Y22099D01*
G01X61298Y22999D01*
G01X62700Y27899D02*
G01X63099Y27500D01*
G01X63099Y12999D01*
G01X70799Y5299D01*
G01X70799Y2899D01*
G54D13*
G01X39492Y32992D02*
G01X39492Y34556D01*
G01X39543Y34604D01*
G01X42693Y24406D02*
G01X42693Y25333D01*
G01X14600Y15996D02*
G01X16000Y15996D01*
G01X16000Y23205D01*
G01X29404Y23205D01*
G01X31420Y25219D01*
G01X36419Y25219D01*
G01X37399Y26200D01*
G01X41827Y26200D01*
G01X42693Y25333D01*
G01X44191Y25905D02*
G01X43264Y25905D01*
G01X11298Y32565D02*
G01X6538Y37325D01*
G01X6538Y49499D01*
G01X11899Y31800D02*
G01X11899Y31964D01*
G01X11298Y32565D01*
G01X40801Y53098D02*
G01X40801Y52057D01*
G01X41921Y54221D02*
G01X43341Y55641D01*
G01X36533Y30706D02*
G01X36957Y31130D01*
G01X36957Y31777D01*
G01X36413Y32322D01*
G01X36413Y45587D01*
G01X36071Y30706D02*
G01X35606Y30706D01*
G01X36071Y30706D02*
G01X36533Y30706D01*
G01X11067Y36741D02*
G01X10615Y37193D01*
G01X10615Y37216D01*
G01X10183Y37647D01*
G01X10183Y38272D01*
G01X7808Y40647D01*
G01X7808Y49751D01*
G01X6475Y51087D01*
G01X11067Y36741D02*
G01X11067Y36732D01*
G01X11800Y35999D01*
G01X6475Y51087D02*
G01X6538Y51153D01*
G01X6538Y52039D01*
G01X35606Y28293D02*
G01X36698Y28293D01*
G01X36698Y30099D01*
G01X39398Y31699D01*
G01X43023Y31699D01*
G01X54344Y43020D01*
G01X58822Y43020D01*
G01X14600Y23898D02*
G01X29040Y23898D01*
G01X31047Y25905D01*
G01X35606Y25905D01*
G01X43341Y53101D02*
G01X37100Y46860D01*
G01X37100Y45112D01*
G01X40801Y52057D02*
G01X35881Y47137D01*
G01X35881Y31767D01*
G01X35606Y31493D01*
G01X6279Y5960D02*
G01X5200Y7040D01*
G01X5200Y10099D01*
G01X8000Y12899D01*
G01X8000Y23100D01*
G01X12393Y31948D02*
G01X12245Y31800D01*
G01X11899Y31800D01*
G01X11899Y31800D02*
G01X7100Y27000D01*
G01X7100Y26899D01*
G54D14*
G01X3999Y49500D02*
G01X3999Y52040D01*
G54D13*
G01X8499Y32699D02*
G01X6000Y30200D01*
G01X6000Y14399D01*
G01X2299Y10698D01*
G01X2299Y4000D01*
G01X2967Y3401D01*
G01X8799Y3401D01*
G01X11359Y5958D01*
G01X35606Y29105D02*
G01X22305Y29105D01*
G01X18200Y25000D01*
G01X35606Y29893D02*
G01X23099Y29893D01*
G01X23099Y29799D01*
G01X35606Y30706D02*
G01X15936Y30706D01*
G01X14693Y31948D01*
G01X35606Y31493D02*
G01X18200Y31501D01*
G01X35607Y26693D02*
G01X28406Y26693D01*
G01X26999Y28100D01*
G01X37100Y36200D02*
G01X37100Y32997D01*
G01X37105Y32992D01*
G01X14800Y36100D02*
G01X14900Y36200D01*
G01X35000Y36200D01*
G54D11*
G01X35100Y24000D02*
G01X35507Y24407D01*
G01X37106Y24407D01*
G01X55500Y21599D02*
G01X55599Y21500D01*
G01X56399Y21500D01*
G01X57900Y19959D02*
G01X57959Y19899D01*
G01X58600Y19899D01*
G54D16*
G01X47971Y39210D02*
G01X49671Y39210D01*
G01X47971Y40480D02*
G01X49671Y40480D01*
G01X47971Y41750D02*
G01X49671Y41750D01*
G01X47971Y43020D02*
G01X49671Y43020D01*
G01X47971Y44290D02*
G01X49671Y44290D01*
G01X47971Y45560D02*
G01X49671Y45560D01*
G01X47971Y46830D02*
G01X49671Y46830D01*
G01X47971Y48100D02*
G01X49671Y48100D01*
G01X57971Y39210D02*
G01X59671Y39210D01*
G01X57971Y40480D02*
G01X59671Y40480D01*
G01X57971Y41750D02*
G01X59671Y41750D01*
G01X57971Y43020D02*
G01X59671Y43020D01*
G01X57971Y44290D02*
G01X59671Y44290D01*
G01X57971Y45560D02*
G01X59671Y45560D01*
G01X57971Y46830D02*
G01X59671Y46830D01*
G01X57971Y48100D02*
G01X59671Y48100D01*
G36*
G01X57100Y22075D02*
G01X55700Y22075D01*
G01X55700Y20925D01*
G01X57100Y20925D01*
G01X57100Y22075D01*
G37*
G36*
G01X59300Y20474D02*
G01X58262Y20475D01*
G01X57900Y20096D01*
G01X57900Y19324D01*
G01X59300Y19324D01*
G01X59300Y20474D01*
G37*
G36*
G01X59300Y22075D02*
G01X57900Y22075D01*
G01X57900Y20925D01*
G01X59300Y20925D01*
G01X59300Y22075D01*
G37*
G36*
G01X57100Y20474D02*
G01X55700Y20474D01*
G01X55700Y19324D01*
G01X57100Y19324D01*
G01X57100Y20474D01*
G37*
G36*
G01X14145Y36448D02*
G01X14145Y35448D01*
G01X15245Y35448D01*
G01X15245Y36448D01*
G01X14145Y36448D01*
G37*
G36*
G01X14145Y38048D02*
G01X14145Y37048D01*
G01X15245Y37048D01*
G01X15245Y38048D01*
G01X14145Y38048D01*
G37*
G36*
G01X27200Y41150D02*
G01X26200Y41150D01*
G01X26200Y40050D01*
G01X27200Y40050D01*
G01X27200Y41150D01*
G37*
G36*
G01X28800Y41150D02*
G01X27800Y41150D01*
G01X27800Y40050D01*
G01X28800Y40050D01*
G01X28800Y41150D01*
G37*
G36*
G01X11849Y20099D02*
G01X11849Y19099D01*
G01X12949Y19099D01*
G01X12949Y20099D01*
G01X11849Y20099D01*
G37*
G36*
G01X11849Y21699D02*
G01X11849Y20699D01*
G01X12949Y20699D01*
G01X12949Y21699D01*
G01X11849Y21699D01*
G37*
G36*
G01X27199Y38751D02*
G01X26199Y38751D01*
G01X26199Y37651D01*
G01X27199Y37651D01*
G01X27199Y38751D01*
G37*
G36*
G01X28799Y38751D02*
G01X27799Y38751D01*
G01X27799Y37651D01*
G01X28799Y37651D01*
G01X28799Y38751D01*
G37*
G36*
G01X14049Y24099D02*
G01X14049Y23099D01*
G01X15149Y23099D01*
G01X15149Y24099D01*
G01X14049Y24099D01*
G37*
G36*
G01X14049Y25699D02*
G01X14049Y24699D01*
G01X15149Y24699D01*
G01X15149Y25699D01*
G01X14049Y25699D01*
G37*
G36*
G01X11849Y24099D02*
G01X11849Y23099D01*
G01X12949Y23099D01*
G01X12949Y24099D01*
G01X11849Y24099D01*
G37*
G36*
G01X11849Y25699D02*
G01X11849Y24699D01*
G01X12949Y24699D01*
G01X12949Y25699D01*
G01X11849Y25699D01*
G37*
G36*
G01X11943Y28448D02*
G01X11943Y27448D01*
G01X13043Y27448D01*
G01X13043Y28448D01*
G01X11943Y28448D01*
G37*
G36*
G01X11943Y30048D02*
G01X11943Y29048D01*
G01X13043Y29048D01*
G01X13043Y30048D01*
G01X11943Y30048D01*
G37*
G36*
G01X14143Y28448D02*
G01X14143Y27448D01*
G01X15243Y27448D01*
G01X15243Y28448D01*
G01X14143Y28448D01*
G37*
G36*
G01X14143Y30048D02*
G01X14143Y29048D01*
G01X15243Y29048D01*
G01X15243Y30048D01*
G01X14143Y30048D01*
G37*
G36*
G01X19200Y41150D02*
G01X18200Y41150D01*
G01X18200Y40050D01*
G01X19200Y40050D01*
G01X19200Y41150D01*
G37*
G36*
G01X20800Y41150D02*
G01X19800Y41150D01*
G01X19800Y40050D01*
G01X20800Y40050D01*
G01X20800Y41150D01*
G37*
G36*
G01X19099Y38750D02*
G01X18099Y38750D01*
G01X18099Y37650D01*
G01X19099Y37650D01*
G01X19099Y38750D01*
G37*
G36*
G01X20699Y38750D02*
G01X19699Y38750D01*
G01X19699Y37650D01*
G01X20699Y37650D01*
G01X20699Y38750D01*
G37*
G36*
G01X14049Y16099D02*
G01X14049Y15099D01*
G01X15149Y15099D01*
G01X15149Y16099D01*
G01X14049Y16099D01*
G37*
G36*
G01X14049Y17699D02*
G01X14049Y16699D01*
G01X15149Y16699D01*
G01X15149Y17699D01*
G01X14049Y17699D01*
G37*
G36*
G01X11849Y16099D02*
G01X11849Y15099D01*
G01X12949Y15099D01*
G01X12949Y16099D01*
G01X11849Y16099D01*
G37*
G36*
G01X11849Y17699D02*
G01X11849Y16699D01*
G01X12949Y16699D01*
G01X12949Y17699D01*
G01X11849Y17699D01*
G37*
G36*
G01X14143Y32448D02*
G01X14143Y31448D01*
G01X15243Y31448D01*
G01X15243Y32448D01*
G01X14143Y32448D01*
G37*
G36*
G01X14143Y34048D02*
G01X14143Y33048D01*
G01X15243Y33048D01*
G01X15243Y34048D01*
G01X14143Y34048D01*
G37*
G36*
G01X11843Y32448D02*
G01X11843Y31448D01*
G01X12943Y31448D01*
G01X12943Y32448D01*
G01X11843Y32448D01*
G37*
G36*
G01X11843Y34048D02*
G01X11843Y33048D01*
G01X12943Y33048D01*
G01X12943Y34048D01*
G01X11843Y34048D01*
G37*
G36*
G01X11843Y36448D02*
G01X11843Y35448D01*
G01X12943Y35448D01*
G01X12943Y36448D01*
G01X11843Y36448D01*
G37*
G36*
G01X11843Y38048D02*
G01X11843Y37048D01*
G01X12943Y37048D01*
G01X12943Y38048D01*
G01X11843Y38048D01*
G37*
G36*
G01X14049Y20099D02*
G01X14049Y19099D01*
G01X15149Y19099D01*
G01X15149Y20099D01*
G01X14049Y20099D01*
G37*
G36*
G01X14049Y21699D02*
G01X14049Y20699D01*
G01X15149Y20699D01*
G01X15149Y21699D01*
G01X14049Y21699D01*
G37*
G36*
G01X23199Y38749D02*
G01X22199Y38749D01*
G01X22199Y37649D01*
G01X23199Y37649D01*
G01X23199Y38749D01*
G37*
G36*
G01X24799Y38749D02*
G01X23799Y38749D01*
G01X23799Y37649D01*
G01X24799Y37649D01*
G01X24799Y38749D01*
G37*
G36*
G01X23199Y41150D02*
G01X22199Y41150D01*
G01X22199Y40050D01*
G01X23199Y40050D01*
G01X23199Y41150D01*
G37*
G36*
G01X24799Y41150D02*
G01X23799Y41150D01*
G01X23799Y40050D01*
G01X24799Y40050D01*
G01X24799Y41150D01*
G37*
G36*
G01X44931Y43083D02*
G01X44931Y43718D01*
G01X43661Y43718D01*
G01X43661Y43083D01*
G01X44931Y43083D01*
G37*
G36*
G01X44931Y43972D02*
G01X44931Y44607D01*
G01X43661Y44607D01*
G01X43661Y43972D01*
G01X44931Y43972D01*
G37*
G36*
G01X44931Y44861D02*
G01X44931Y45496D01*
G01X43661Y45496D01*
G01X43661Y44861D01*
G01X44931Y44861D01*
G37*
G36*
G01X44931Y39273D02*
G01X44931Y39908D01*
G01X43661Y39908D01*
G01X43661Y39273D01*
G01X44931Y39273D01*
G37*
G36*
G01X44931Y40162D02*
G01X44931Y40797D01*
G01X43661Y40797D01*
G01X43661Y40162D01*
G01X44931Y40162D01*
G37*
G36*
G01X44931Y41051D02*
G01X44931Y41686D01*
G01X43661Y41686D01*
G01X43661Y41051D01*
G01X44931Y41051D01*
G37*
G36*
G01X44931Y35590D02*
G01X44931Y36225D01*
G01X43661Y36225D01*
G01X43661Y35590D01*
G01X44931Y35590D01*
G37*
G36*
G01X44931Y36479D02*
G01X44931Y37114D01*
G01X43661Y37114D01*
G01X43661Y36479D01*
G01X44931Y36479D01*
G37*
G36*
G01X44931Y37368D02*
G01X44931Y38003D01*
G01X43661Y38003D01*
G01X43661Y37368D01*
G01X44931Y37368D01*
G37*
G36*
G01X42973Y23772D02*
G01X42973Y25042D01*
G01X42414Y25042D01*
G01X42414Y23772D01*
G01X42973Y23772D01*
G37*
G36*
G01X42186Y23772D02*
G01X42186Y25042D01*
G01X41627Y25042D01*
G01X41627Y23772D01*
G01X42186Y23772D01*
G37*
G36*
G01X41373Y23772D02*
G01X41373Y25042D01*
G01X40814Y25042D01*
G01X40814Y23772D01*
G01X41373Y23772D01*
G37*
G36*
G01X40585Y23772D02*
G01X40585Y25042D01*
G01X40027Y25042D01*
G01X40027Y23772D01*
G01X40585Y23772D01*
G37*
G36*
G01X39773Y23772D02*
G01X39773Y25042D01*
G01X39214Y25042D01*
G01X39214Y23772D01*
G01X39773Y23772D01*
G37*
G36*
G01X38985Y23772D02*
G01X38985Y25042D01*
G01X38426Y25042D01*
G01X38426Y23772D01*
G01X38985Y23772D01*
G37*
G36*
G01X38172Y23772D02*
G01X38172Y25042D01*
G01X37614Y25042D01*
G01X37614Y23772D01*
G01X38172Y23772D01*
G37*
G36*
G01X37385Y23772D02*
G01X37385Y25042D01*
G01X36826Y25042D01*
G01X36826Y23772D01*
G01X37385Y23772D01*
G37*
G36*
G01X36242Y25626D02*
G01X36242Y26185D01*
G01X34972Y26185D01*
G01X34972Y25626D01*
G01X36242Y25626D01*
G37*
G36*
G01X36242Y26413D02*
G01X36242Y26972D01*
G01X34972Y26972D01*
G01X34972Y26413D01*
G01X36242Y26413D01*
G37*
G36*
G01X36242Y27226D02*
G01X36242Y27785D01*
G01X34972Y27785D01*
G01X34972Y27226D01*
G01X36242Y27226D01*
G37*
G36*
G01X36242Y28014D02*
G01X36242Y28572D01*
G01X34972Y28572D01*
G01X34972Y28014D01*
G01X36242Y28014D01*
G37*
G36*
G01X36242Y28826D02*
G01X36242Y29385D01*
G01X34972Y29385D01*
G01X34972Y28826D01*
G01X36242Y28826D01*
G37*
G36*
G01X36242Y29614D02*
G01X36242Y30173D01*
G01X34972Y30173D01*
G01X34972Y29614D01*
G01X36242Y29614D01*
G37*
G36*
G01X36242Y30427D02*
G01X36242Y30985D01*
G01X34972Y30985D01*
G01X34972Y30427D01*
G01X36242Y30427D01*
G37*
G36*
G01X36242Y31214D02*
G01X36242Y31773D01*
G01X34972Y31773D01*
G01X34972Y31214D01*
G01X36242Y31214D01*
G37*
G36*
G01X37385Y32357D02*
G01X37385Y33627D01*
G01X36826Y33627D01*
G01X36826Y32357D01*
G01X37385Y32357D01*
G37*
G36*
G01X38172Y32357D02*
G01X38172Y33627D01*
G01X37614Y33627D01*
G01X37614Y32357D01*
G01X38172Y32357D01*
G37*
G36*
G01X38985Y32357D02*
G01X38985Y33627D01*
G01X38426Y33627D01*
G01X38426Y32357D01*
G01X38985Y32357D01*
G37*
G36*
G01X39773Y32357D02*
G01X39773Y33627D01*
G01X39214Y33627D01*
G01X39214Y32357D01*
G01X39773Y32357D01*
G37*
G36*
G01X40585Y32357D02*
G01X40585Y33627D01*
G01X40027Y33627D01*
G01X40027Y32357D01*
G01X40585Y32357D01*
G37*
G36*
G01X41373Y32357D02*
G01X41373Y33627D01*
G01X40814Y33627D01*
G01X40814Y32357D01*
G01X41373Y32357D01*
G37*
G36*
G01X42186Y32357D02*
G01X42186Y33627D01*
G01X41627Y33627D01*
G01X41627Y32357D01*
G01X42186Y32357D01*
G37*
G36*
G01X42973Y32357D02*
G01X42973Y33627D01*
G01X42414Y33627D01*
G01X42414Y32357D01*
G01X42973Y32357D01*
G37*
G36*
G01X44827Y31214D02*
G01X44827Y31773D01*
G01X43557Y31773D01*
G01X43557Y31214D01*
G01X44827Y31214D01*
G37*
G36*
G01X44827Y30427D02*
G01X44827Y30985D01*
G01X43557Y30985D01*
G01X43557Y30427D01*
G01X44827Y30427D01*
G37*
G36*
G01X44827Y29614D02*
G01X44827Y30173D01*
G01X43557Y30173D01*
G01X43557Y29614D01*
G01X44827Y29614D01*
G37*
G36*
G01X44827Y28826D02*
G01X44827Y29385D01*
G01X43557Y29385D01*
G01X43557Y28826D01*
G01X44827Y28826D01*
G37*
G36*
G01X44827Y28014D02*
G01X44827Y28572D01*
G01X43557Y28572D01*
G01X43557Y28014D01*
G01X44827Y28014D01*
G37*
G36*
G01X44827Y27226D02*
G01X44827Y27785D01*
G01X43557Y27785D01*
G01X43557Y27226D01*
G01X44827Y27226D01*
G37*
G36*
G01X44827Y26413D02*
G01X44827Y26972D01*
G01X43557Y26972D01*
G01X43557Y26413D01*
G01X44827Y26413D01*
G37*
G36*
G01X44827Y25626D02*
G01X44827Y26185D01*
G01X43557Y26185D01*
G01X43557Y25626D01*
G01X44827Y25626D01*
G37*
G54D35*
G01X13899Y8500D03*
G01X11359Y8500D03*
G01X8819Y8500D03*
G01X6279Y8500D03*
G01X3739Y8500D03*
G01X13899Y5960D03*
G01X11359Y5960D03*
G01X8819Y5960D03*
G01X6279Y5960D03*
G01X3739Y5960D03*
G01X3999Y49500D03*
G01X6539Y49500D03*
G01X9079Y49500D03*
G01X11619Y49500D03*
G01X14159Y49500D03*
G01X3999Y52040D03*
G01X6539Y52040D03*
G01X9079Y52040D03*
G01X11619Y52040D03*
G01X14159Y52040D03*
G54D36*
G01X45880Y55640D03*
G01X43340Y55640D03*
G01X40800Y55640D03*
G01X45880Y53100D03*
G01X43340Y53100D03*
G54D37*
G01X40800Y53099D03*
G54D38*
G01X52170Y53053D03*
G01X57250Y53053D03*
G01X62330Y53053D03*
G01X54710Y53053D03*
G01X59790Y53053D03*
G01X64870Y53053D03*
G54D35*
G01X50773Y34130D03*
G01X53567Y34130D03*
G01X56107Y34130D03*
G01X58647Y34130D03*
G54D39*
G01X74338Y33192D03*
G01X67838Y33192D03*
G01X67838Y37692D03*
G01X74338Y37692D03*
G01X74338Y22609D03*
G01X67838Y22609D03*
G01X67838Y27108D03*
G01X74338Y27108D03*
G01X74338Y12025D03*
G01X67838Y12025D03*
G01X67838Y16525D03*
G01X74338Y16525D03*
G01X74338Y43775D03*
G01X67838Y43775D03*
G01X67838Y48275D03*
G01X74338Y48275D03*
G54D17*
G01X11899Y27999D03*
G01X11800Y35999D03*
G01X11899Y31800D03*
G01X37100Y27199D03*
G01X11999Y23199D03*
G01X39543Y34604D03*
G01X38239Y18629D03*
G01X38239Y17825D03*
G01X40652Y8681D03*
G01X35699Y14015D03*
G01X35699Y13507D03*
G54D18*
G01X35699Y12999D03*
G01X60500Y39200D03*
G01X43699Y35400D03*
G01X43600Y39100D03*
G01X43600Y42900D03*
G54D17*
G01X42940Y9122D03*
G01X42841Y11722D03*
G01X62340Y17122D03*
G01X11899Y33699D03*
G01X11894Y29848D03*
G01X11800Y20999D03*
G01X11899Y37699D03*
G54D18*
G01X25500Y11100D03*
G01X22833Y5639D03*
G54D17*
G01X25500Y10592D03*
G01X25500Y10084D03*
G01X22833Y6290D03*
G01X20293Y15164D03*
G01X11800Y25099D03*
G01X28500Y41200D03*
G01X24599Y41200D03*
G01X20500Y41100D03*
G01X11800Y16999D03*
G01X56107Y37532D03*
G01X57123Y36800D03*
G54D18*
G01X45099Y37699D03*
G01X54900Y35400D03*
G01X41792Y15716D03*
G01X42373Y15717D03*
G01X39399Y21171D03*
G01X41099Y21209D03*
G01X58900Y24700D03*
G01X62700Y27899D03*
G01X62400Y11499D03*
G01X70799Y2899D03*
G54D17*
G01X51032Y2958D03*
G01X53572Y2958D03*
G54D18*
G01X61799Y1799D03*
G01X39399Y20700D03*
G01X41099Y20700D03*
G01X14699Y24100D03*
G01X14699Y20100D03*
G01X14600Y15996D03*
G01X14800Y28100D03*
G01X14800Y32100D03*
G01X14800Y36100D03*
G01X40699Y34599D03*
G01X62700Y38299D03*
G01X15100Y17899D03*
G01X18699Y4100D03*
G01X7999Y23100D03*
G01X7100Y26899D03*
G01X8500Y32699D03*
G01X18599Y40999D03*
G01X22500Y41000D03*
G01X26500Y41000D03*
G01X37100Y36200D03*
G01X26999Y28100D03*
G01X22999Y29899D03*
G01X26700Y37600D03*
G01X22699Y37600D03*
G01X18699Y37699D03*
G01X11999Y19199D03*
G01X11999Y15199D03*
G01X18200Y24999D03*
G01X18200Y31501D03*
G01X34999Y36200D03*
G01X36399Y44299D03*
G01X37100Y45112D03*
G01X26800Y48200D03*
G01X33800Y48100D03*
G01X33800Y54299D03*
G01X37900Y31899D03*
G01X38900Y25599D03*
G01X77100Y2899D03*
G01X61799Y1199D03*
G01X61799Y599D03*
G01X34399Y54299D03*
G01X33200Y54299D03*
G01X33200Y48100D03*
G01X34399Y48100D03*
G01X18699Y3499D03*
G01X18699Y2899D03*
G01X37900Y25199D03*
G01X35100Y23999D03*
G01X55500Y21599D03*
G01X57900Y19959D03*
G54D12*
G01X56701Y3160D02*
G01X56701Y2160D01*
G01X49503Y3160D02*
G01X49503Y2160D01*
G01X56701Y6630D02*
G01X56701Y5630D01*
G01X49503Y6630D02*
G01X49503Y5630D01*
M00*
M02*
