G04 Layer: BottomSilkLayer*
G04 EasyEDA v6.3.43, 2020-05-10T20:22:00+02:00*
G04 8efef6a7772f454f874d1fefd099d7f4,c718b20e53f548e3abf3144c64a63f4f,10*
G04 Gerber Generator version 0.2*
G04 Scale: 100 percent, Rotated: No, Reflected: No *
G04 Dimensions in millimeters *
G04 leading zeros omitted , absolute positions ,3 integer and 3 decimal *
%FSLAX33Y33*%
%MOMM*%
G90*
G71D02*

%ADD10C,0.254000*%
%ADD16C,0.599999*%
%ADD44C,0.203200*%
%ADD50C,0.299999*%
%ADD51C,0.152400*%
%ADD53C,0.200000*%

%LPD*%
G54D44*
G01X59600Y19000D02*
G01X55400Y19000D01*
G01X55400Y22400D01*
G01X59600Y22400D01*
G01X59600Y19000D01*
G54D10*
G01X13895Y38298D02*
G01X15495Y38298D01*
G01X15490Y36448D02*
G01X15490Y35198D01*
G01X13890Y36448D02*
G01X13890Y35198D01*
G01X15495Y37048D02*
G01X15495Y38298D01*
G01X13895Y37048D02*
G01X13895Y38298D01*
G01X13890Y35198D02*
G01X15490Y35198D01*
G01X29050Y41400D02*
G01X29050Y39800D01*
G01X27199Y39805D02*
G01X25949Y39805D01*
G01X27199Y41405D02*
G01X25949Y41405D01*
G01X27800Y39800D02*
G01X29050Y39800D01*
G01X27800Y41400D02*
G01X29050Y41400D01*
G01X25949Y41405D02*
G01X25949Y39805D01*
G01X11599Y21949D02*
G01X13199Y21949D01*
G01X13194Y20099D02*
G01X13194Y18849D01*
G01X11594Y20099D02*
G01X11594Y18849D01*
G01X13199Y20699D02*
G01X13199Y21949D01*
G01X11599Y20699D02*
G01X11599Y21949D01*
G01X11594Y18849D02*
G01X13194Y18849D01*
G01X29049Y39001D02*
G01X29049Y37401D01*
G01X27198Y37406D02*
G01X25948Y37406D01*
G01X27198Y39006D02*
G01X25948Y39006D01*
G01X27799Y37401D02*
G01X29049Y37401D01*
G01X27799Y39001D02*
G01X29049Y39001D01*
G01X25948Y39006D02*
G01X25948Y37406D01*
G01X13799Y25949D02*
G01X15399Y25949D01*
G01X15394Y24099D02*
G01X15394Y22849D01*
G01X13794Y24099D02*
G01X13794Y22849D01*
G01X15399Y24699D02*
G01X15399Y25949D01*
G01X13799Y24699D02*
G01X13799Y25949D01*
G01X13794Y22849D02*
G01X15394Y22849D01*
G01X11599Y25949D02*
G01X13199Y25949D01*
G01X13194Y24099D02*
G01X13194Y22849D01*
G01X11594Y24099D02*
G01X11594Y22849D01*
G01X13199Y24699D02*
G01X13199Y25949D01*
G01X11599Y24699D02*
G01X11599Y25949D01*
G01X11594Y22849D02*
G01X13194Y22849D01*
G01X11693Y30298D02*
G01X13293Y30298D01*
G01X13288Y28448D02*
G01X13288Y27198D01*
G01X11688Y28448D02*
G01X11688Y27198D01*
G01X13293Y29048D02*
G01X13293Y30298D01*
G01X11693Y29048D02*
G01X11693Y30298D01*
G01X11688Y27198D02*
G01X13288Y27198D01*
G01X13893Y30298D02*
G01X15493Y30298D01*
G01X15488Y28448D02*
G01X15488Y27198D01*
G01X13888Y28448D02*
G01X13888Y27198D01*
G01X15493Y29048D02*
G01X15493Y30298D01*
G01X13893Y29048D02*
G01X13893Y30298D01*
G01X13888Y27198D02*
G01X15488Y27198D01*
G01X21050Y41400D02*
G01X21050Y39800D01*
G01X19200Y39805D02*
G01X17950Y39805D01*
G01X19200Y41405D02*
G01X17950Y41405D01*
G01X19800Y39800D02*
G01X21050Y39800D01*
G01X19800Y41400D02*
G01X21050Y41400D01*
G01X17950Y41405D02*
G01X17950Y39805D01*
G01X20949Y39000D02*
G01X20949Y37400D01*
G01X19098Y37405D02*
G01X17848Y37405D01*
G01X19098Y39005D02*
G01X17848Y39005D01*
G01X19699Y37400D02*
G01X20949Y37400D01*
G01X19699Y39000D02*
G01X20949Y39000D01*
G01X17848Y39005D02*
G01X17848Y37405D01*
G01X13799Y17949D02*
G01X15399Y17949D01*
G01X15394Y16099D02*
G01X15394Y14849D01*
G01X13794Y16099D02*
G01X13794Y14849D01*
G01X15399Y16699D02*
G01X15399Y17949D01*
G01X13799Y16699D02*
G01X13799Y17949D01*
G01X13794Y14849D02*
G01X15394Y14849D01*
G01X11599Y17949D02*
G01X13199Y17949D01*
G01X13194Y16099D02*
G01X13194Y14849D01*
G01X11594Y16099D02*
G01X11594Y14849D01*
G01X13199Y16699D02*
G01X13199Y17949D01*
G01X11599Y16699D02*
G01X11599Y17949D01*
G01X11594Y14849D02*
G01X13194Y14849D01*
G01X13893Y34298D02*
G01X15493Y34298D01*
G01X15488Y32448D02*
G01X15488Y31198D01*
G01X13888Y32448D02*
G01X13888Y31198D01*
G01X15493Y33048D02*
G01X15493Y34298D01*
G01X13893Y33048D02*
G01X13893Y34298D01*
G01X13888Y31198D02*
G01X15488Y31198D01*
G01X11593Y34298D02*
G01X13193Y34298D01*
G01X13188Y32448D02*
G01X13188Y31198D01*
G01X11588Y32448D02*
G01X11588Y31198D01*
G01X13193Y33048D02*
G01X13193Y34298D01*
G01X11593Y33048D02*
G01X11593Y34298D01*
G01X11588Y31198D02*
G01X13188Y31198D01*
G01X11593Y38298D02*
G01X13193Y38298D01*
G01X13188Y36448D02*
G01X13188Y35198D01*
G01X11588Y36448D02*
G01X11588Y35198D01*
G01X13193Y37048D02*
G01X13193Y38298D01*
G01X11593Y37048D02*
G01X11593Y38298D01*
G01X11588Y35198D02*
G01X13188Y35198D01*
G01X13799Y21949D02*
G01X15399Y21949D01*
G01X15394Y20099D02*
G01X15394Y18849D01*
G01X13794Y20099D02*
G01X13794Y18849D01*
G01X15399Y20699D02*
G01X15399Y21949D01*
G01X13799Y20699D02*
G01X13799Y21949D01*
G01X13794Y18849D02*
G01X15394Y18849D01*
G01X25049Y38999D02*
G01X25049Y37399D01*
G01X23198Y37405D02*
G01X21948Y37405D01*
G01X23198Y39005D02*
G01X21948Y39005D01*
G01X23799Y37399D02*
G01X25049Y37399D01*
G01X23799Y38999D02*
G01X25049Y38999D01*
G01X21948Y39005D02*
G01X21948Y37405D01*
G01X25049Y41400D02*
G01X25049Y39800D01*
G01X23198Y39805D02*
G01X21948Y39805D01*
G01X23198Y41405D02*
G01X21948Y41405D01*
G01X23799Y39800D02*
G01X25049Y39800D01*
G01X23799Y41400D02*
G01X25049Y41400D01*
G01X21948Y41405D02*
G01X21948Y39805D01*
G54D53*
G01X56821Y38554D02*
G01X50421Y38554D01*
G01X50421Y48755D01*
G01X57121Y48755D01*
G01X57121Y38554D01*
G01X56821Y38554D01*
G54D10*
G01X43280Y45560D02*
G01X43280Y43020D01*
G01X43534Y45814D02*
G01X45058Y45814D01*
G01X43534Y42766D02*
G01X45058Y42766D01*
G01X45312Y43020D02*
G01X45312Y45560D01*
G01X43280Y41750D02*
G01X43280Y39210D01*
G01X43534Y42004D02*
G01X45058Y42004D01*
G01X43534Y38956D02*
G01X45058Y38956D01*
G01X45312Y39210D02*
G01X45312Y41750D01*
G01X43280Y38067D02*
G01X43280Y35527D01*
G01X43534Y38321D02*
G01X45058Y38321D01*
G01X43534Y35273D02*
G01X45058Y35273D01*
G01X45312Y35527D02*
G01X45312Y38067D01*
G01X43456Y25651D02*
G01X43456Y32255D01*
G01X36344Y32255D01*
G01X36344Y25143D01*
G01X43456Y25143D01*
G01X43456Y25651D01*
G54D51*
G01X57708Y23753D02*
G01X56981Y22663D01*
G01X56981Y23753D02*
G01X57708Y22663D01*
G01X56585Y23494D02*
G01X56585Y23545D01*
G01X56534Y23649D01*
G01X56481Y23702D01*
G01X56377Y23753D01*
G01X56171Y23753D01*
G01X56067Y23702D01*
G01X56013Y23649D01*
G01X55963Y23545D01*
G01X55963Y23440D01*
G01X56013Y23336D01*
G01X56118Y23181D01*
G01X56638Y22663D01*
G01X55909Y22663D01*
G01X15840Y38348D02*
G01X16931Y38348D01*
G01X15840Y38348D02*
G01X15840Y37881D01*
G01X15892Y37725D01*
G01X15944Y37673D01*
G01X16048Y37621D01*
G01X16152Y37621D01*
G01X16256Y37673D01*
G01X16308Y37725D01*
G01X16360Y37881D01*
G01X16360Y38348D01*
G01X16360Y37984D02*
G01X16931Y37621D01*
G01X16100Y37226D02*
G01X16048Y37226D01*
G01X15944Y37174D01*
G01X15892Y37122D01*
G01X15840Y37018D01*
G01X15840Y36810D01*
G01X15892Y36706D01*
G01X15944Y36654D01*
G01X16048Y36603D01*
G01X16152Y36603D01*
G01X16256Y36654D01*
G01X16412Y36758D01*
G01X16931Y37278D01*
G01X16931Y36551D01*
G01X15840Y36104D02*
G01X15840Y35532D01*
G01X16256Y35844D01*
G01X16256Y35688D01*
G01X16308Y35584D01*
G01X16360Y35532D01*
G01X16515Y35480D01*
G01X16619Y35480D01*
G01X16775Y35532D01*
G01X16879Y35636D01*
G01X16931Y35792D01*
G01X16931Y35948D01*
G01X16879Y36104D01*
G01X16827Y36156D01*
G01X16723Y36208D01*
G01X26301Y41746D02*
G01X26301Y42837D01*
G01X26301Y41746D02*
G01X26768Y41746D01*
G01X26924Y41798D01*
G01X26976Y41850D01*
G01X27028Y41954D01*
G01X27028Y42058D01*
G01X26976Y42162D01*
G01X26924Y42214D01*
G01X26768Y42266D01*
G01X26301Y42266D01*
G01X26664Y42266D02*
G01X27028Y42837D01*
G01X27475Y41746D02*
G01X28046Y41746D01*
G01X27734Y42162D01*
G01X27890Y42162D01*
G01X27994Y42214D01*
G01X28046Y42266D01*
G01X28098Y42422D01*
G01X28098Y42526D01*
G01X28046Y42682D01*
G01X27942Y42785D01*
G01X27786Y42837D01*
G01X27631Y42837D01*
G01X27475Y42785D01*
G01X27423Y42734D01*
G01X27371Y42630D01*
G01X28441Y41954D02*
G01X28545Y41902D01*
G01X28701Y41746D01*
G01X28701Y42837D01*
G01X11353Y18899D02*
G01X10262Y18899D01*
G01X11353Y18899D02*
G01X11353Y19367D01*
G01X11301Y19523D01*
G01X11249Y19575D01*
G01X11145Y19627D01*
G01X11041Y19627D01*
G01X10937Y19575D01*
G01X10885Y19523D01*
G01X10833Y19367D01*
G01X10833Y18899D01*
G01X10833Y19263D02*
G01X10262Y19627D01*
G01X11145Y19970D02*
G01X11197Y20074D01*
G01X11353Y20229D01*
G01X10262Y20229D01*
G01X11093Y20624D02*
G01X11145Y20624D01*
G01X11249Y20676D01*
G01X11301Y20728D01*
G01X11353Y20832D01*
G01X11353Y21040D01*
G01X11301Y21144D01*
G01X11249Y21196D01*
G01X11145Y21248D01*
G01X11041Y21248D01*
G01X10937Y21196D01*
G01X10781Y21092D01*
G01X10262Y20572D01*
G01X10262Y21300D01*
G01X25900Y35646D02*
G01X25900Y36737D01*
G01X25900Y35646D02*
G01X26367Y35646D01*
G01X26523Y35698D01*
G01X26575Y35750D01*
G01X26627Y35854D01*
G01X26627Y35958D01*
G01X26575Y36062D01*
G01X26523Y36114D01*
G01X26367Y36166D01*
G01X25900Y36166D01*
G01X26263Y36166D02*
G01X26627Y36737D01*
G01X27074Y35646D02*
G01X27645Y35646D01*
G01X27334Y36062D01*
G01X27490Y36062D01*
G01X27593Y36114D01*
G01X27645Y36166D01*
G01X27697Y36322D01*
G01X27697Y36426D01*
G01X27645Y36581D01*
G01X27542Y36685D01*
G01X27386Y36737D01*
G01X27230Y36737D01*
G01X27074Y36685D01*
G01X27022Y36633D01*
G01X26970Y36529D01*
G01X28092Y35906D02*
G01X28092Y35854D01*
G01X28144Y35750D01*
G01X28196Y35698D01*
G01X28300Y35646D01*
G01X28508Y35646D01*
G01X28612Y35698D01*
G01X28664Y35750D01*
G01X28716Y35854D01*
G01X28716Y35958D01*
G01X28664Y36062D01*
G01X28560Y36218D01*
G01X28040Y36737D01*
G01X28768Y36737D01*
G01X16853Y22899D02*
G01X15762Y22899D01*
G01X16853Y22899D02*
G01X16853Y23367D01*
G01X16801Y23523D01*
G01X16749Y23575D01*
G01X16645Y23627D01*
G01X16541Y23627D01*
G01X16437Y23575D01*
G01X16385Y23523D01*
G01X16333Y23367D01*
G01X16333Y22899D01*
G01X16333Y23263D02*
G01X15762Y23627D01*
G01X16853Y24074D02*
G01X16853Y24645D01*
G01X16437Y24333D01*
G01X16437Y24489D01*
G01X16385Y24593D01*
G01X16333Y24645D01*
G01X16177Y24697D01*
G01X16074Y24697D01*
G01X15918Y24645D01*
G01X15814Y24541D01*
G01X15762Y24385D01*
G01X15762Y24229D01*
G01X15814Y24074D01*
G01X15866Y24022D01*
G01X15970Y23970D01*
G01X16853Y25144D02*
G01X16853Y25715D01*
G01X16437Y25404D01*
G01X16437Y25559D01*
G01X16385Y25663D01*
G01X16333Y25715D01*
G01X16177Y25767D01*
G01X16074Y25767D01*
G01X15918Y25715D01*
G01X15814Y25611D01*
G01X15762Y25456D01*
G01X15762Y25300D01*
G01X15814Y25144D01*
G01X15866Y25092D01*
G01X15970Y25040D01*
G01X11353Y23099D02*
G01X10262Y23099D01*
G01X11353Y23099D02*
G01X11353Y23567D01*
G01X11301Y23723D01*
G01X11249Y23775D01*
G01X11145Y23827D01*
G01X11041Y23827D01*
G01X10937Y23775D01*
G01X10885Y23723D01*
G01X10833Y23567D01*
G01X10833Y23099D01*
G01X10833Y23463D02*
G01X10262Y23827D01*
G01X11353Y24274D02*
G01X11353Y24845D01*
G01X10937Y24533D01*
G01X10937Y24689D01*
G01X10885Y24793D01*
G01X10833Y24845D01*
G01X10677Y24897D01*
G01X10574Y24897D01*
G01X10418Y24845D01*
G01X10314Y24741D01*
G01X10262Y24585D01*
G01X10262Y24429D01*
G01X10314Y24274D01*
G01X10366Y24222D01*
G01X10470Y24170D01*
G01X11353Y25759D02*
G01X10626Y25240D01*
G01X10626Y26019D01*
G01X11353Y25759D02*
G01X10262Y25759D01*
G01X10040Y30149D02*
G01X11131Y30149D01*
G01X10040Y30149D02*
G01X10040Y29681D01*
G01X10092Y29525D01*
G01X10144Y29473D01*
G01X10248Y29421D01*
G01X10352Y29421D01*
G01X10456Y29473D01*
G01X10508Y29525D01*
G01X10560Y29681D01*
G01X10560Y30149D01*
G01X10560Y29785D02*
G01X11131Y29421D01*
G01X10300Y29026D02*
G01X10248Y29026D01*
G01X10144Y28974D01*
G01X10092Y28922D01*
G01X10040Y28819D01*
G01X10040Y28611D01*
G01X10092Y28507D01*
G01X10144Y28455D01*
G01X10248Y28403D01*
G01X10352Y28403D01*
G01X10456Y28455D01*
G01X10612Y28559D01*
G01X11131Y29078D01*
G01X11131Y28351D01*
G01X10040Y27385D02*
G01X10040Y27904D01*
G01X10508Y27956D01*
G01X10456Y27904D01*
G01X10404Y27748D01*
G01X10404Y27592D01*
G01X10456Y27437D01*
G01X10560Y27333D01*
G01X10716Y27281D01*
G01X10820Y27281D01*
G01X10975Y27333D01*
G01X11079Y27437D01*
G01X11131Y27592D01*
G01X11131Y27748D01*
G01X11079Y27904D01*
G01X11027Y27956D01*
G01X10923Y28008D01*
G01X15740Y30149D02*
G01X16831Y30149D01*
G01X15740Y30149D02*
G01X15740Y29681D01*
G01X15792Y29525D01*
G01X15844Y29473D01*
G01X15948Y29421D01*
G01X16052Y29421D01*
G01X16156Y29473D01*
G01X16208Y29525D01*
G01X16259Y29681D01*
G01X16259Y30149D01*
G01X16259Y29785D02*
G01X16831Y29421D01*
G01X16000Y29026D02*
G01X15948Y29026D01*
G01X15844Y28974D01*
G01X15792Y28922D01*
G01X15740Y28819D01*
G01X15740Y28611D01*
G01X15792Y28507D01*
G01X15844Y28455D01*
G01X15948Y28403D01*
G01X16052Y28403D01*
G01X16156Y28455D01*
G01X16311Y28559D01*
G01X16831Y29078D01*
G01X16831Y28351D01*
G01X15896Y27385D02*
G01X15792Y27437D01*
G01X15740Y27592D01*
G01X15740Y27696D01*
G01X15792Y27852D01*
G01X15948Y27956D01*
G01X16208Y28008D01*
G01X16467Y28008D01*
G01X16675Y27956D01*
G01X16779Y27852D01*
G01X16831Y27696D01*
G01X16831Y27644D01*
G01X16779Y27489D01*
G01X16675Y27385D01*
G01X16519Y27333D01*
G01X16467Y27333D01*
G01X16311Y27385D01*
G01X16208Y27489D01*
G01X16156Y27644D01*
G01X16156Y27696D01*
G01X16208Y27852D01*
G01X16311Y27956D01*
G01X16467Y28008D01*
G01X18100Y41746D02*
G01X18100Y42837D01*
G01X18100Y41746D02*
G01X18567Y41746D01*
G01X18723Y41798D01*
G01X18775Y41850D01*
G01X18827Y41954D01*
G01X18827Y42058D01*
G01X18775Y42162D01*
G01X18723Y42214D01*
G01X18567Y42266D01*
G01X18100Y42266D01*
G01X18463Y42266D02*
G01X18827Y42837D01*
G01X19274Y41746D02*
G01X19845Y41746D01*
G01X19534Y42162D01*
G01X19690Y42162D01*
G01X19793Y42214D01*
G01X19845Y42266D01*
G01X19897Y42422D01*
G01X19897Y42526D01*
G01X19845Y42681D01*
G01X19741Y42785D01*
G01X19586Y42837D01*
G01X19430Y42837D01*
G01X19274Y42785D01*
G01X19222Y42733D01*
G01X19170Y42629D01*
G01X20864Y41746D02*
G01X20344Y41746D01*
G01X20292Y42214D01*
G01X20344Y42162D01*
G01X20500Y42110D01*
G01X20656Y42110D01*
G01X20812Y42162D01*
G01X20916Y42266D01*
G01X20968Y42422D01*
G01X20968Y42526D01*
G01X20916Y42681D01*
G01X20812Y42785D01*
G01X20656Y42837D01*
G01X20500Y42837D01*
G01X20344Y42785D01*
G01X20292Y42733D01*
G01X20240Y42629D01*
G01X18000Y35746D02*
G01X18000Y36837D01*
G01X18000Y35746D02*
G01X18467Y35746D01*
G01X18623Y35798D01*
G01X18675Y35850D01*
G01X18727Y35954D01*
G01X18727Y36058D01*
G01X18675Y36162D01*
G01X18623Y36214D01*
G01X18467Y36266D01*
G01X18000Y36266D01*
G01X18363Y36266D02*
G01X18727Y36837D01*
G01X19174Y35746D02*
G01X19745Y35746D01*
G01X19434Y36162D01*
G01X19590Y36162D01*
G01X19693Y36214D01*
G01X19745Y36266D01*
G01X19797Y36422D01*
G01X19797Y36526D01*
G01X19745Y36681D01*
G01X19641Y36785D01*
G01X19486Y36837D01*
G01X19330Y36837D01*
G01X19174Y36785D01*
G01X19122Y36733D01*
G01X19070Y36629D01*
G01X20764Y35902D02*
G01X20712Y35798D01*
G01X20556Y35746D01*
G01X20452Y35746D01*
G01X20296Y35798D01*
G01X20192Y35954D01*
G01X20140Y36214D01*
G01X20140Y36474D01*
G01X20192Y36681D01*
G01X20296Y36785D01*
G01X20452Y36837D01*
G01X20504Y36837D01*
G01X20660Y36785D01*
G01X20764Y36681D01*
G01X20816Y36526D01*
G01X20816Y36474D01*
G01X20764Y36318D01*
G01X20660Y36214D01*
G01X20504Y36162D01*
G01X20452Y36162D01*
G01X20296Y36214D01*
G01X20192Y36318D01*
G01X20140Y36474D01*
G01X16853Y15099D02*
G01X15762Y15099D01*
G01X16853Y15099D02*
G01X16853Y15567D01*
G01X16801Y15723D01*
G01X16749Y15775D01*
G01X16645Y15827D01*
G01X16541Y15827D01*
G01X16437Y15775D01*
G01X16385Y15723D01*
G01X16333Y15567D01*
G01X16333Y15099D01*
G01X16333Y15463D02*
G01X15762Y15827D01*
G01X16853Y16274D02*
G01X16853Y16845D01*
G01X16437Y16533D01*
G01X16437Y16689D01*
G01X16385Y16793D01*
G01X16333Y16845D01*
G01X16177Y16897D01*
G01X16074Y16897D01*
G01X15918Y16845D01*
G01X15814Y16741D01*
G01X15762Y16585D01*
G01X15762Y16429D01*
G01X15814Y16274D01*
G01X15866Y16222D01*
G01X15970Y16170D01*
G01X16853Y17967D02*
G01X15762Y17448D01*
G01X16853Y17240D02*
G01X16853Y17967D01*
G01X11353Y14999D02*
G01X10262Y14999D01*
G01X11353Y14999D02*
G01X11353Y15467D01*
G01X11301Y15623D01*
G01X11249Y15675D01*
G01X11145Y15727D01*
G01X11041Y15727D01*
G01X10937Y15675D01*
G01X10885Y15623D01*
G01X10833Y15467D01*
G01X10833Y14999D01*
G01X10833Y15363D02*
G01X10262Y15727D01*
G01X11353Y16174D02*
G01X11353Y16745D01*
G01X10937Y16433D01*
G01X10937Y16589D01*
G01X10885Y16693D01*
G01X10833Y16745D01*
G01X10677Y16797D01*
G01X10574Y16797D01*
G01X10418Y16745D01*
G01X10314Y16641D01*
G01X10262Y16485D01*
G01X10262Y16329D01*
G01X10314Y16174D01*
G01X10366Y16122D01*
G01X10470Y16070D01*
G01X11353Y17400D02*
G01X11301Y17244D01*
G01X11197Y17192D01*
G01X11093Y17192D01*
G01X10989Y17244D01*
G01X10937Y17348D01*
G01X10885Y17556D01*
G01X10833Y17711D01*
G01X10729Y17815D01*
G01X10626Y17867D01*
G01X10470Y17867D01*
G01X10366Y17815D01*
G01X10314Y17763D01*
G01X10262Y17607D01*
G01X10262Y17400D01*
G01X10314Y17244D01*
G01X10366Y17192D01*
G01X10470Y17140D01*
G01X10626Y17140D01*
G01X10729Y17192D01*
G01X10833Y17296D01*
G01X10885Y17452D01*
G01X10937Y17659D01*
G01X10989Y17763D01*
G01X11093Y17815D01*
G01X11197Y17815D01*
G01X11301Y17763D01*
G01X11353Y17607D01*
G01X11353Y17400D01*
G01X15841Y34249D02*
G01X16932Y34249D01*
G01X15841Y34249D02*
G01X15841Y33782D01*
G01X15893Y33626D01*
G01X15945Y33574D01*
G01X16049Y33522D01*
G01X16153Y33522D01*
G01X16257Y33574D01*
G01X16309Y33626D01*
G01X16361Y33782D01*
G01X16361Y34249D01*
G01X16361Y33886D02*
G01X16932Y33522D01*
G01X16101Y33127D02*
G01X16049Y33127D01*
G01X15945Y33075D01*
G01X15893Y33023D01*
G01X15841Y32919D01*
G01X15841Y32712D01*
G01X15893Y32608D01*
G01X15945Y32556D01*
G01X16049Y32504D01*
G01X16153Y32504D01*
G01X16257Y32556D01*
G01X16413Y32660D01*
G01X16932Y33179D01*
G01X16932Y32452D01*
G01X15841Y31382D02*
G01X16932Y31901D01*
G01X15841Y32109D02*
G01X15841Y31382D01*
G01X9940Y34248D02*
G01X11031Y34248D01*
G01X9940Y34248D02*
G01X9940Y33781D01*
G01X9992Y33625D01*
G01X10044Y33573D01*
G01X10148Y33521D01*
G01X10252Y33521D01*
G01X10356Y33573D01*
G01X10408Y33625D01*
G01X10460Y33781D01*
G01X10460Y34248D01*
G01X10460Y33885D02*
G01X11031Y33521D01*
G01X10200Y33126D02*
G01X10148Y33126D01*
G01X10044Y33074D01*
G01X9992Y33022D01*
G01X9940Y32918D01*
G01X9940Y32710D01*
G01X9992Y32606D01*
G01X10044Y32555D01*
G01X10148Y32503D01*
G01X10252Y32503D01*
G01X10356Y32555D01*
G01X10512Y32658D01*
G01X11031Y33178D01*
G01X11031Y32451D01*
G01X9940Y31848D02*
G01X9992Y32004D01*
G01X10096Y32056D01*
G01X10200Y32056D01*
G01X10304Y32004D01*
G01X10356Y31900D01*
G01X10408Y31692D01*
G01X10460Y31536D01*
G01X10564Y31432D01*
G01X10667Y31380D01*
G01X10823Y31380D01*
G01X10927Y31432D01*
G01X10979Y31484D01*
G01X11031Y31640D01*
G01X11031Y31848D01*
G01X10979Y32004D01*
G01X10927Y32056D01*
G01X10823Y32108D01*
G01X10667Y32108D01*
G01X10564Y32056D01*
G01X10460Y31952D01*
G01X10408Y31796D01*
G01X10356Y31588D01*
G01X10304Y31484D01*
G01X10200Y31432D01*
G01X10096Y31432D01*
G01X9992Y31484D01*
G01X9940Y31640D01*
G01X9940Y31848D01*
G01X10040Y38148D02*
G01X11131Y38148D01*
G01X10040Y38148D02*
G01X10040Y37681D01*
G01X10092Y37525D01*
G01X10144Y37473D01*
G01X10248Y37421D01*
G01X10352Y37421D01*
G01X10456Y37473D01*
G01X10508Y37525D01*
G01X10560Y37681D01*
G01X10560Y38148D01*
G01X10560Y37784D02*
G01X11131Y37421D01*
G01X10300Y37026D02*
G01X10248Y37026D01*
G01X10144Y36974D01*
G01X10092Y36922D01*
G01X10040Y36818D01*
G01X10040Y36610D01*
G01X10092Y36506D01*
G01X10144Y36454D01*
G01X10248Y36403D01*
G01X10352Y36403D01*
G01X10456Y36454D01*
G01X10612Y36558D01*
G01X11131Y37078D01*
G01X11131Y36351D01*
G01X10040Y35488D02*
G01X10767Y36008D01*
G01X10767Y35228D01*
G01X10040Y35488D02*
G01X11131Y35488D01*
G01X16853Y18899D02*
G01X15762Y18899D01*
G01X16853Y18899D02*
G01X16853Y19367D01*
G01X16801Y19523D01*
G01X16749Y19575D01*
G01X16645Y19627D01*
G01X16541Y19627D01*
G01X16437Y19575D01*
G01X16385Y19523D01*
G01X16333Y19367D01*
G01X16333Y18899D01*
G01X16333Y19263D02*
G01X15762Y19627D01*
G01X16645Y19970D02*
G01X16697Y20074D01*
G01X16853Y20229D01*
G01X15762Y20229D01*
G01X16853Y20676D02*
G01X16853Y21248D01*
G01X16437Y20936D01*
G01X16437Y21092D01*
G01X16385Y21196D01*
G01X16333Y21248D01*
G01X16177Y21300D01*
G01X16074Y21300D01*
G01X15918Y21248D01*
G01X15814Y21144D01*
G01X15762Y20988D01*
G01X15762Y20832D01*
G01X15814Y20676D01*
G01X15866Y20624D01*
G01X15970Y20572D01*
G01X22000Y35747D02*
G01X22000Y36838D01*
G01X22000Y35747D02*
G01X22468Y35747D01*
G01X22623Y35799D01*
G01X22675Y35851D01*
G01X22727Y35955D01*
G01X22727Y36059D01*
G01X22675Y36162D01*
G01X22623Y36214D01*
G01X22468Y36266D01*
G01X22000Y36266D01*
G01X22364Y36266D02*
G01X22727Y36838D01*
G01X23122Y36007D02*
G01X23122Y35955D01*
G01X23174Y35851D01*
G01X23226Y35799D01*
G01X23330Y35747D01*
G01X23538Y35747D01*
G01X23642Y35799D01*
G01X23694Y35851D01*
G01X23746Y35955D01*
G01X23746Y36059D01*
G01X23694Y36162D01*
G01X23590Y36318D01*
G01X23070Y36838D01*
G01X23798Y36838D01*
G01X24816Y36111D02*
G01X24764Y36266D01*
G01X24660Y36370D01*
G01X24504Y36422D01*
G01X24452Y36422D01*
G01X24296Y36370D01*
G01X24192Y36266D01*
G01X24141Y36111D01*
G01X24141Y36059D01*
G01X24192Y35903D01*
G01X24296Y35799D01*
G01X24452Y35747D01*
G01X24504Y35747D01*
G01X24660Y35799D01*
G01X24764Y35903D01*
G01X24816Y36111D01*
G01X24816Y36370D01*
G01X24764Y36630D01*
G01X24660Y36786D01*
G01X24504Y36838D01*
G01X24400Y36838D01*
G01X24244Y36786D01*
G01X24192Y36682D01*
G01X22300Y41746D02*
G01X22300Y42837D01*
G01X22300Y41746D02*
G01X22767Y41746D01*
G01X22923Y41798D01*
G01X22975Y41850D01*
G01X23027Y41954D01*
G01X23027Y42058D01*
G01X22975Y42162D01*
G01X22923Y42214D01*
G01X22767Y42266D01*
G01X22300Y42266D01*
G01X22663Y42266D02*
G01X23027Y42837D01*
G01X23474Y41746D02*
G01X24045Y41746D01*
G01X23734Y42162D01*
G01X23889Y42162D01*
G01X23993Y42214D01*
G01X24045Y42266D01*
G01X24097Y42422D01*
G01X24097Y42526D01*
G01X24045Y42681D01*
G01X23941Y42785D01*
G01X23786Y42837D01*
G01X23630Y42837D01*
G01X23474Y42785D01*
G01X23422Y42733D01*
G01X23370Y42629D01*
G01X24752Y41746D02*
G01X24596Y41798D01*
G01X24492Y41954D01*
G01X24440Y42214D01*
G01X24440Y42370D01*
G01X24492Y42629D01*
G01X24596Y42785D01*
G01X24752Y42837D01*
G01X24856Y42837D01*
G01X25012Y42785D01*
G01X25116Y42629D01*
G01X25168Y42370D01*
G01X25168Y42214D01*
G01X25116Y41954D01*
G01X25012Y41798D01*
G01X24856Y41746D01*
G01X24752Y41746D01*
G01X60641Y43463D02*
G01X59861Y43463D01*
G01X59706Y43514D01*
G01X59602Y43618D01*
G01X59551Y43776D01*
G01X59551Y43880D01*
G01X59602Y44035D01*
G01X59706Y44139D01*
G01X59861Y44190D01*
G01X60641Y44190D01*
G01X60432Y44533D02*
G01X60486Y44637D01*
G01X60641Y44794D01*
G01X59551Y44794D01*
G01X46310Y45016D02*
G01X46414Y44912D01*
G01X46465Y44757D01*
G01X46465Y44549D01*
G01X46414Y44394D01*
G01X46310Y44290D01*
G01X46206Y44290D01*
G01X46102Y44340D01*
G01X46048Y44394D01*
G01X45997Y44498D01*
G01X45893Y44810D01*
G01X45842Y44912D01*
G01X45789Y44965D01*
G01X45685Y45016D01*
G01X45530Y45016D01*
G01X45426Y44912D01*
G01X45375Y44757D01*
G01X45375Y44549D01*
G01X45426Y44394D01*
G01X45530Y44290D01*
G01X46465Y45880D02*
G01X45634Y45880D01*
G01X45477Y45826D01*
G01X45426Y45775D01*
G01X45375Y45671D01*
G01X45375Y45567D01*
G01X45426Y45463D01*
G01X45477Y45412D01*
G01X45634Y45359D01*
G01X45738Y45359D01*
G01X46465Y46327D02*
G01X46465Y46898D01*
G01X46048Y46586D01*
G01X46048Y46741D01*
G01X45997Y46845D01*
G01X45947Y46898D01*
G01X45789Y46949D01*
G01X45685Y46949D01*
G01X45530Y46898D01*
G01X45426Y46794D01*
G01X45375Y46639D01*
G01X45375Y46482D01*
G01X45426Y46327D01*
G01X45477Y46273D01*
G01X45581Y46222D01*
G01X46310Y41206D02*
G01X46414Y41102D01*
G01X46465Y40947D01*
G01X46465Y40739D01*
G01X46414Y40584D01*
G01X46310Y40480D01*
G01X46206Y40480D01*
G01X46102Y40530D01*
G01X46048Y40584D01*
G01X45997Y40688D01*
G01X45893Y41000D01*
G01X45842Y41102D01*
G01X45789Y41155D01*
G01X45685Y41206D01*
G01X45530Y41206D01*
G01X45426Y41102D01*
G01X45375Y40947D01*
G01X45375Y40739D01*
G01X45426Y40584D01*
G01X45530Y40480D01*
G01X46465Y42070D02*
G01X45634Y42070D01*
G01X45477Y42016D01*
G01X45426Y41965D01*
G01X45375Y41861D01*
G01X45375Y41757D01*
G01X45426Y41653D01*
G01X45477Y41602D01*
G01X45634Y41549D01*
G01X45738Y41549D01*
G01X46206Y42463D02*
G01X46256Y42463D01*
G01X46361Y42517D01*
G01X46414Y42567D01*
G01X46465Y42672D01*
G01X46465Y42880D01*
G01X46414Y42984D01*
G01X46361Y43035D01*
G01X46256Y43088D01*
G01X46152Y43088D01*
G01X46048Y43035D01*
G01X45893Y42931D01*
G01X45375Y42412D01*
G01X45375Y43139D01*
G01X46310Y37523D02*
G01X46414Y37419D01*
G01X46465Y37264D01*
G01X46465Y37056D01*
G01X46414Y36901D01*
G01X46310Y36797D01*
G01X46206Y36797D01*
G01X46102Y36847D01*
G01X46048Y36901D01*
G01X45997Y37005D01*
G01X45893Y37317D01*
G01X45842Y37419D01*
G01X45789Y37472D01*
G01X45685Y37523D01*
G01X45530Y37523D01*
G01X45426Y37419D01*
G01X45375Y37264D01*
G01X45375Y37056D01*
G01X45426Y36901D01*
G01X45530Y36797D01*
G01X46465Y38387D02*
G01X45634Y38387D01*
G01X45477Y38333D01*
G01X45426Y38282D01*
G01X45375Y38178D01*
G01X45375Y38074D01*
G01X45426Y37970D01*
G01X45477Y37919D01*
G01X45634Y37866D01*
G01X45738Y37866D01*
G01X46256Y38729D02*
G01X46310Y38834D01*
G01X46465Y38989D01*
G01X45375Y38989D01*
G01X46133Y28699D02*
G01X45353Y28699D01*
G01X45198Y28750D01*
G01X45094Y28854D01*
G01X45043Y29012D01*
G01X45043Y29116D01*
G01X45094Y29271D01*
G01X45198Y29375D01*
G01X45353Y29426D01*
G01X46133Y29426D01*
G01X46133Y30290D02*
G01X45406Y29769D01*
G01X45406Y30549D01*
G01X46133Y30290D02*
G01X45043Y30290D01*
G54D50*
G75*
G01X59400Y18650D02*
G02X59398Y18650I-1J-150D01*
G01*
G54D16*
G75*
G01X51621Y39455D02*
G02X51621Y39463I-300J4D01*
G01*
G54D50*
G75*
G01X48871Y38354D02*
G02X48871Y38357I-150J1D01*
G01*
G54D10*
G75*
G01X45312Y45560D02*
G03X45058Y45814I-254J0D01*
G01*
G75*
G01X45058Y42766D02*
G03X45312Y43020I0J254D01*
G01*
G75*
G01X43534Y42766D02*
G02X43280Y43020I0J254D01*
G01*
G75*
G01X43280Y45560D02*
G02X43534Y45814I254J0D01*
G01*
G75*
G01X45312Y41750D02*
G03X45058Y42004I-254J0D01*
G01*
G75*
G01X45058Y38956D02*
G03X45312Y39210I0J254D01*
G01*
G75*
G01X43534Y38956D02*
G02X43280Y39210I0J254D01*
G01*
G75*
G01X43280Y41750D02*
G02X43534Y42004I254J0D01*
G01*
G75*
G01X45312Y38067D02*
G03X45058Y38321I-254J0D01*
G01*
G75*
G01X45058Y35273D02*
G03X45312Y35527I0J254D01*
G01*
G75*
G01X43534Y35273D02*
G02X43280Y35527I0J254D01*
G01*
G75*
G01X43280Y38067D02*
G02X43534Y38321I254J0D01*
G01*
G75*
G01X43786Y24560D02*
G03X43786Y24560I-254J0D01*
G01*
M00*
M02*
