G04 Layer: BottomPasteMaskLayer*
G04 EasyEDA v6.3.43, 2020-05-10T20:22:00+02:00*
G04 8efef6a7772f454f874d1fefd099d7f4,c718b20e53f548e3abf3144c64a63f4f,10*
G04 Gerber Generator version 0.2*
G04 Scale: 100 percent, Rotated: No, Reflected: No *
G04 Dimensions in millimeters *
G04 leading zeros omitted , absolute positions ,3 integer and 3 decimal *
%FSLAX33Y33*%
%MOMM*%
G90*
G71D02*

%ADD16C,0.599999*%

%LPD*%
G54D16*
G01X47971Y39210D02*
G01X49671Y39210D01*
G01X47971Y40480D02*
G01X49671Y40480D01*
G01X47971Y41750D02*
G01X49671Y41750D01*
G01X47971Y43020D02*
G01X49671Y43020D01*
G01X47971Y44290D02*
G01X49671Y44290D01*
G01X47971Y45560D02*
G01X49671Y45560D01*
G01X47971Y46830D02*
G01X49671Y46830D01*
G01X47971Y48100D02*
G01X49671Y48100D01*
G01X57971Y39210D02*
G01X59671Y39210D01*
G01X57971Y40480D02*
G01X59671Y40480D01*
G01X57971Y41750D02*
G01X59671Y41750D01*
G01X57971Y43020D02*
G01X59671Y43020D01*
G01X57971Y44290D02*
G01X59671Y44290D01*
G01X57971Y45560D02*
G01X59671Y45560D01*
G01X57971Y46830D02*
G01X59671Y46830D01*
G01X57971Y48100D02*
G01X59671Y48100D01*
G36*
G01X57100Y22075D02*
G01X55700Y22075D01*
G01X55700Y20925D01*
G01X57100Y20925D01*
G01X57100Y22075D01*
G37*
G36*
G01X59300Y20474D02*
G01X58262Y20475D01*
G01X57900Y20096D01*
G01X57900Y19324D01*
G01X59300Y19324D01*
G01X59300Y20474D01*
G37*
G36*
G01X59300Y22075D02*
G01X57900Y22075D01*
G01X57900Y20925D01*
G01X59300Y20925D01*
G01X59300Y22075D01*
G37*
G36*
G01X57100Y20474D02*
G01X55700Y20474D01*
G01X55700Y19324D01*
G01X57100Y19324D01*
G01X57100Y20474D01*
G37*
G36*
G01X14145Y36448D02*
G01X14145Y35448D01*
G01X15245Y35448D01*
G01X15245Y36448D01*
G01X14145Y36448D01*
G37*
G36*
G01X14145Y38048D02*
G01X14145Y37048D01*
G01X15245Y37048D01*
G01X15245Y38048D01*
G01X14145Y38048D01*
G37*
G36*
G01X27200Y41150D02*
G01X26200Y41150D01*
G01X26200Y40050D01*
G01X27200Y40050D01*
G01X27200Y41150D01*
G37*
G36*
G01X28800Y41150D02*
G01X27800Y41150D01*
G01X27800Y40050D01*
G01X28800Y40050D01*
G01X28800Y41150D01*
G37*
G36*
G01X11849Y20099D02*
G01X11849Y19099D01*
G01X12949Y19099D01*
G01X12949Y20099D01*
G01X11849Y20099D01*
G37*
G36*
G01X11849Y21699D02*
G01X11849Y20699D01*
G01X12949Y20699D01*
G01X12949Y21699D01*
G01X11849Y21699D01*
G37*
G36*
G01X27199Y38751D02*
G01X26199Y38751D01*
G01X26199Y37651D01*
G01X27199Y37651D01*
G01X27199Y38751D01*
G37*
G36*
G01X28799Y38751D02*
G01X27799Y38751D01*
G01X27799Y37651D01*
G01X28799Y37651D01*
G01X28799Y38751D01*
G37*
G36*
G01X14049Y24099D02*
G01X14049Y23099D01*
G01X15149Y23099D01*
G01X15149Y24099D01*
G01X14049Y24099D01*
G37*
G36*
G01X14049Y25699D02*
G01X14049Y24699D01*
G01X15149Y24699D01*
G01X15149Y25699D01*
G01X14049Y25699D01*
G37*
G36*
G01X11849Y24099D02*
G01X11849Y23099D01*
G01X12949Y23099D01*
G01X12949Y24099D01*
G01X11849Y24099D01*
G37*
G36*
G01X11849Y25699D02*
G01X11849Y24699D01*
G01X12949Y24699D01*
G01X12949Y25699D01*
G01X11849Y25699D01*
G37*
G36*
G01X11943Y28448D02*
G01X11943Y27448D01*
G01X13043Y27448D01*
G01X13043Y28448D01*
G01X11943Y28448D01*
G37*
G36*
G01X11943Y30048D02*
G01X11943Y29048D01*
G01X13043Y29048D01*
G01X13043Y30048D01*
G01X11943Y30048D01*
G37*
G36*
G01X14143Y28448D02*
G01X14143Y27448D01*
G01X15243Y27448D01*
G01X15243Y28448D01*
G01X14143Y28448D01*
G37*
G36*
G01X14143Y30048D02*
G01X14143Y29048D01*
G01X15243Y29048D01*
G01X15243Y30048D01*
G01X14143Y30048D01*
G37*
G36*
G01X19200Y41150D02*
G01X18200Y41150D01*
G01X18200Y40050D01*
G01X19200Y40050D01*
G01X19200Y41150D01*
G37*
G36*
G01X20800Y41150D02*
G01X19800Y41150D01*
G01X19800Y40050D01*
G01X20800Y40050D01*
G01X20800Y41150D01*
G37*
G36*
G01X19099Y38750D02*
G01X18099Y38750D01*
G01X18099Y37650D01*
G01X19099Y37650D01*
G01X19099Y38750D01*
G37*
G36*
G01X20699Y38750D02*
G01X19699Y38750D01*
G01X19699Y37650D01*
G01X20699Y37650D01*
G01X20699Y38750D01*
G37*
G36*
G01X14049Y16099D02*
G01X14049Y15099D01*
G01X15149Y15099D01*
G01X15149Y16099D01*
G01X14049Y16099D01*
G37*
G36*
G01X14049Y17699D02*
G01X14049Y16699D01*
G01X15149Y16699D01*
G01X15149Y17699D01*
G01X14049Y17699D01*
G37*
G36*
G01X11849Y16099D02*
G01X11849Y15099D01*
G01X12949Y15099D01*
G01X12949Y16099D01*
G01X11849Y16099D01*
G37*
G36*
G01X11849Y17699D02*
G01X11849Y16699D01*
G01X12949Y16699D01*
G01X12949Y17699D01*
G01X11849Y17699D01*
G37*
G36*
G01X14143Y32448D02*
G01X14143Y31448D01*
G01X15243Y31448D01*
G01X15243Y32448D01*
G01X14143Y32448D01*
G37*
G36*
G01X14143Y34048D02*
G01X14143Y33048D01*
G01X15243Y33048D01*
G01X15243Y34048D01*
G01X14143Y34048D01*
G37*
G36*
G01X11843Y32448D02*
G01X11843Y31448D01*
G01X12943Y31448D01*
G01X12943Y32448D01*
G01X11843Y32448D01*
G37*
G36*
G01X11843Y34048D02*
G01X11843Y33048D01*
G01X12943Y33048D01*
G01X12943Y34048D01*
G01X11843Y34048D01*
G37*
G36*
G01X11843Y36448D02*
G01X11843Y35448D01*
G01X12943Y35448D01*
G01X12943Y36448D01*
G01X11843Y36448D01*
G37*
G36*
G01X11843Y38048D02*
G01X11843Y37048D01*
G01X12943Y37048D01*
G01X12943Y38048D01*
G01X11843Y38048D01*
G37*
G36*
G01X14049Y20099D02*
G01X14049Y19099D01*
G01X15149Y19099D01*
G01X15149Y20099D01*
G01X14049Y20099D01*
G37*
G36*
G01X14049Y21699D02*
G01X14049Y20699D01*
G01X15149Y20699D01*
G01X15149Y21699D01*
G01X14049Y21699D01*
G37*
G36*
G01X23199Y38749D02*
G01X22199Y38749D01*
G01X22199Y37649D01*
G01X23199Y37649D01*
G01X23199Y38749D01*
G37*
G36*
G01X24799Y38749D02*
G01X23799Y38749D01*
G01X23799Y37649D01*
G01X24799Y37649D01*
G01X24799Y38749D01*
G37*
G36*
G01X23199Y41150D02*
G01X22199Y41150D01*
G01X22199Y40050D01*
G01X23199Y40050D01*
G01X23199Y41150D01*
G37*
G36*
G01X24799Y41150D02*
G01X23799Y41150D01*
G01X23799Y40050D01*
G01X24799Y40050D01*
G01X24799Y41150D01*
G37*
G36*
G01X44931Y43083D02*
G01X44931Y43718D01*
G01X43661Y43718D01*
G01X43661Y43083D01*
G01X44931Y43083D01*
G37*
G36*
G01X44931Y43972D02*
G01X44931Y44607D01*
G01X43661Y44607D01*
G01X43661Y43972D01*
G01X44931Y43972D01*
G37*
G36*
G01X44931Y44861D02*
G01X44931Y45496D01*
G01X43661Y45496D01*
G01X43661Y44861D01*
G01X44931Y44861D01*
G37*
G36*
G01X44931Y39273D02*
G01X44931Y39908D01*
G01X43661Y39908D01*
G01X43661Y39273D01*
G01X44931Y39273D01*
G37*
G36*
G01X44931Y40162D02*
G01X44931Y40797D01*
G01X43661Y40797D01*
G01X43661Y40162D01*
G01X44931Y40162D01*
G37*
G36*
G01X44931Y41051D02*
G01X44931Y41686D01*
G01X43661Y41686D01*
G01X43661Y41051D01*
G01X44931Y41051D01*
G37*
G36*
G01X44931Y35590D02*
G01X44931Y36225D01*
G01X43661Y36225D01*
G01X43661Y35590D01*
G01X44931Y35590D01*
G37*
G36*
G01X44931Y36479D02*
G01X44931Y37114D01*
G01X43661Y37114D01*
G01X43661Y36479D01*
G01X44931Y36479D01*
G37*
G36*
G01X44931Y37368D02*
G01X44931Y38003D01*
G01X43661Y38003D01*
G01X43661Y37368D01*
G01X44931Y37368D01*
G37*
G36*
G01X42973Y23772D02*
G01X42973Y25042D01*
G01X42414Y25042D01*
G01X42414Y23772D01*
G01X42973Y23772D01*
G37*
G36*
G01X42186Y23772D02*
G01X42186Y25042D01*
G01X41627Y25042D01*
G01X41627Y23772D01*
G01X42186Y23772D01*
G37*
G36*
G01X41373Y23772D02*
G01X41373Y25042D01*
G01X40814Y25042D01*
G01X40814Y23772D01*
G01X41373Y23772D01*
G37*
G36*
G01X40585Y23772D02*
G01X40585Y25042D01*
G01X40027Y25042D01*
G01X40027Y23772D01*
G01X40585Y23772D01*
G37*
G36*
G01X39773Y23772D02*
G01X39773Y25042D01*
G01X39214Y25042D01*
G01X39214Y23772D01*
G01X39773Y23772D01*
G37*
G36*
G01X38985Y23772D02*
G01X38985Y25042D01*
G01X38426Y25042D01*
G01X38426Y23772D01*
G01X38985Y23772D01*
G37*
G36*
G01X38172Y23772D02*
G01X38172Y25042D01*
G01X37614Y25042D01*
G01X37614Y23772D01*
G01X38172Y23772D01*
G37*
G36*
G01X37385Y23772D02*
G01X37385Y25042D01*
G01X36826Y25042D01*
G01X36826Y23772D01*
G01X37385Y23772D01*
G37*
G36*
G01X36242Y25626D02*
G01X36242Y26185D01*
G01X34972Y26185D01*
G01X34972Y25626D01*
G01X36242Y25626D01*
G37*
G36*
G01X36242Y26413D02*
G01X36242Y26972D01*
G01X34972Y26972D01*
G01X34972Y26413D01*
G01X36242Y26413D01*
G37*
G36*
G01X36242Y27226D02*
G01X36242Y27785D01*
G01X34972Y27785D01*
G01X34972Y27226D01*
G01X36242Y27226D01*
G37*
G36*
G01X36242Y28014D02*
G01X36242Y28572D01*
G01X34972Y28572D01*
G01X34972Y28014D01*
G01X36242Y28014D01*
G37*
G36*
G01X36242Y28826D02*
G01X36242Y29385D01*
G01X34972Y29385D01*
G01X34972Y28826D01*
G01X36242Y28826D01*
G37*
G36*
G01X36242Y29614D02*
G01X36242Y30173D01*
G01X34972Y30173D01*
G01X34972Y29614D01*
G01X36242Y29614D01*
G37*
G36*
G01X36242Y30427D02*
G01X36242Y30985D01*
G01X34972Y30985D01*
G01X34972Y30427D01*
G01X36242Y30427D01*
G37*
G36*
G01X36242Y31214D02*
G01X36242Y31773D01*
G01X34972Y31773D01*
G01X34972Y31214D01*
G01X36242Y31214D01*
G37*
G36*
G01X37385Y32357D02*
G01X37385Y33627D01*
G01X36826Y33627D01*
G01X36826Y32357D01*
G01X37385Y32357D01*
G37*
G36*
G01X38172Y32357D02*
G01X38172Y33627D01*
G01X37614Y33627D01*
G01X37614Y32357D01*
G01X38172Y32357D01*
G37*
G36*
G01X38985Y32357D02*
G01X38985Y33627D01*
G01X38426Y33627D01*
G01X38426Y32357D01*
G01X38985Y32357D01*
G37*
G36*
G01X39773Y32357D02*
G01X39773Y33627D01*
G01X39214Y33627D01*
G01X39214Y32357D01*
G01X39773Y32357D01*
G37*
G36*
G01X40585Y32357D02*
G01X40585Y33627D01*
G01X40027Y33627D01*
G01X40027Y32357D01*
G01X40585Y32357D01*
G37*
G36*
G01X41373Y32357D02*
G01X41373Y33627D01*
G01X40814Y33627D01*
G01X40814Y32357D01*
G01X41373Y32357D01*
G37*
G36*
G01X42186Y32357D02*
G01X42186Y33627D01*
G01X41627Y33627D01*
G01X41627Y32357D01*
G01X42186Y32357D01*
G37*
G36*
G01X42973Y32357D02*
G01X42973Y33627D01*
G01X42414Y33627D01*
G01X42414Y32357D01*
G01X42973Y32357D01*
G37*
G36*
G01X44827Y31214D02*
G01X44827Y31773D01*
G01X43557Y31773D01*
G01X43557Y31214D01*
G01X44827Y31214D01*
G37*
G36*
G01X44827Y30427D02*
G01X44827Y30985D01*
G01X43557Y30985D01*
G01X43557Y30427D01*
G01X44827Y30427D01*
G37*
G36*
G01X44827Y29614D02*
G01X44827Y30173D01*
G01X43557Y30173D01*
G01X43557Y29614D01*
G01X44827Y29614D01*
G37*
G36*
G01X44827Y28826D02*
G01X44827Y29385D01*
G01X43557Y29385D01*
G01X43557Y28826D01*
G01X44827Y28826D01*
G37*
G36*
G01X44827Y28014D02*
G01X44827Y28572D01*
G01X43557Y28572D01*
G01X43557Y28014D01*
G01X44827Y28014D01*
G37*
G36*
G01X44827Y27226D02*
G01X44827Y27785D01*
G01X43557Y27785D01*
G01X43557Y27226D01*
G01X44827Y27226D01*
G37*
G36*
G01X44827Y26413D02*
G01X44827Y26972D01*
G01X43557Y26972D01*
G01X43557Y26413D01*
G01X44827Y26413D01*
G37*
G36*
G01X44827Y25626D02*
G01X44827Y26185D01*
G01X43557Y26185D01*
G01X43557Y25626D01*
G01X44827Y25626D01*
G37*
M00*
M02*
